<svg width="33" height="33" viewBox="0 0 33 33" fill="none" xmlns="http://www.w3.org/2000/svg">
<g clip-path="url(#clip0_1_144)">
<path d="M13.5377 7.89807C13.4297 7.89707 13.3227 7.9176 13.2228 7.95844C13.1229 7.99927 13.0322 8.05961 12.9559 8.13592C12.8796 8.21222 12.8192 8.30298 12.7784 8.40287C12.7376 8.50276 12.717 8.60978 12.718 8.71769C12.7198 8.93234 12.8058 9.1377 12.9576 9.28949C13.1094 9.44127 13.3147 9.52732 13.5294 9.52906L21.8414 9.52906L8.12718 23.2432C8.05134 23.3184 7.99116 23.4078 7.9501 23.5064C7.90904 23.6049 7.88793 23.7106 7.88798 23.8174C7.88803 23.9242 7.90924 24.0299 7.95038 24.1284C7.99153 24.2269 8.05179 24.3163 8.12769 24.3913C8.44739 24.711 8.96385 24.7193 9.28354 24.3996L22.9977 10.6854L22.99 18.9897C22.9977 19.4405 23.367 19.8098 23.8096 19.8093C23.9175 19.8103 24.0246 19.7897 24.1244 19.7489C24.2243 19.7081 24.3151 19.6477 24.3914 19.5714C24.4677 19.4951 24.528 19.4044 24.5689 19.3045C24.6097 19.2046 24.6302 19.0976 24.6292 18.9897L24.6292 8.70995C24.631 8.60291 24.6112 8.49661 24.5711 8.39738C24.5309 8.29814 24.4712 8.20799 24.3955 8.1323C24.3198 8.0566 24.2297 7.9969 24.1304 7.95675C24.0312 7.9166 23.9249 7.89682 23.8179 7.89858L13.5377 7.89807Z" fill="#5A6069"/>
</g>
<defs>
<clipPath id="clip0_1_144">
<rect width="23" height="23" fill="white" transform="translate(0 16.2637) rotate(-45)"/>
</clipPath>
</defs>
</svg>
