<svg width="26" height="26" viewBox="0 0 26 26" fill="none" xmlns="http://www.w3.org/2000/svg">
<path d="M-5.68248e-07 13C-2.54413e-07 20.1797 5.82029 26 13 26C20.1797 26 26 20.1797 26 13C26 5.82029 20.1797 -8.82083e-07 13 -5.68248e-07C5.82029 -2.54413e-07 -8.82083e-07 5.82029 -5.68248e-07 13ZM24.375 13C24.375 19.2822 19.2822 24.375 13 24.375C6.71775 24.375 1.625 19.2822 1.625 13C1.625 6.71775 6.71775 1.625 13 1.625C19.2822 1.625 24.375 6.71775 24.375 13Z" fill="url(#paint0_linear_1_3502)"/>
<path d="M15.9168 13.0003L9.9856 18.9234L11.1393 20.0771L17.6393 13.5771C17.9544 13.2602 17.9544 12.7484 17.6393 12.4315L11.1393 5.93152L9.99372 7.07715L15.9168 13.0003Z" fill="url(#paint1_linear_1_3502)"/>
<defs>
<linearGradient id="paint0_linear_1_3502" x1="46.7037" y1="7.92683" x2="-15.6482" y2="7.92682" gradientUnits="userSpaceOnUse">
<stop stop-color="#24A363"/>
<stop offset="1" stop-color="#4BDD48"/>
</linearGradient>
<linearGradient id="paint1_linear_1_3502" x1="24.1584" y1="10.2442" x2="5.23696" y2="10.2442" gradientUnits="userSpaceOnUse">
<stop stop-color="#24A363"/>
<stop offset="1" stop-color="#4BDD48"/>
</linearGradient>
</defs>
</svg>
