<svg width="61" height="26" viewBox="0 0 61 26" fill="none" xmlns="http://www.w3.org/2000/svg">
<g clip-path="url(#clip0_1_499)">
<path d="M25.974 12.9996C25.974 11.4042 25.6712 9.88241 25.1435 8.47091C25.0039 13.1169 20.2754 16.714 17.4992 19.0944H24.4481C25.4194 17.2768 25.974 15.2033 25.974 12.9996ZM20.9505 2.76963C18.7503 1.05897 15.9918 0.0302734 12.9873 0.0302734C5.81464 0.0302734 0 5.83714 0 12.9996C0 20.162 5.81464 25.9688 12.9873 25.9688C16.2717 25.9688 19.2623 24.7415 21.5494 22.7332H12.147L12.1184 19.9757C17.7836 15.0574 21.2565 11.7312 21.2565 8.51838C21.2565 7.32435 20.8011 5.81759 18.7516 5.81759C17.1287 5.81759 15.5631 6.7564 15.8477 10.6792H12.5457C11.7199 6.13092 14.1967 2.52 18.9219 2.52C19.6545 2.52 20.3322 2.60734 20.9505 2.76963Z" fill="#E2E4E4"/>
<path d="M38.0197 8.99375H41.0916C41.1966 6.66044 40.4092 2.96289 35.3421 2.96289C31.6136 2.96289 28.9092 5.19208 28.9092 9.83284C28.9092 10.4622 28.9352 13.7134 28.9352 15.7323C28.9352 20.7671 32.4277 21.868 35.3682 21.868C37.1274 21.868 39.6741 21.4745 40.8554 20.1898V12.1664H35.0792V15.0769H37.6525V18.6167C35.7094 19.2721 32.1648 19.5345 32.1648 15.0769V9.83284C32.1648 6.71253 33.6091 5.63761 35.2103 5.63761C36.8647 5.63761 38.0197 6.4767 38.0197 8.99375ZM60.8692 16.7809C61.0003 9.59701 52.7565 11.9826 52.8347 7.97113C52.8608 6.55556 53.78 5.63761 55.2769 5.63761C56.8784 5.63761 57.8229 6.58158 57.7968 9.04654H60.8163C60.8953 6.81741 60.3702 3.01568 55.382 3.01568C52.2836 3.01568 49.7371 4.53673 49.6842 7.91888C49.5531 14.8143 57.8497 12.5596 57.7186 16.7288C57.6658 18.433 56.4315 19.1932 55.0403 19.1932C53.4128 19.1932 52.0998 18.2493 52.3625 15.4176H49.3162C48.9751 19.1672 50.6294 21.842 55.0142 21.842C58.716 21.842 60.8163 19.7963 60.8692 16.7809ZM46.9987 21.6054H43.901V3.25151H46.9987V21.6054ZM46.9987 21.6054H43.901V3.25151H46.9987V21.6054Z" fill="#B0B2B2"/>
</g>
<defs>
<clipPath id="clip0_1_499">
<rect width="61" height="26" fill="white"/>
</clipPath>
</defs>
</svg>
