<svg width="16" height="17" viewBox="0 0 16 17" fill="none" xmlns="http://www.w3.org/2000/svg">
<path d="M15.3333 9.12614H0.666667C0.298667 9.12614 0 8.82747 0 8.45947C0 8.09147 0.298667 7.79281 0.666667 7.79281H15.3333C15.7013 7.79281 16 8.09147 16 8.45947C16 8.82747 15.7013 9.12614 15.3333 9.12614ZM15.3333 4.01497H0.666667C0.298667 4.01497 0 3.71631 0 3.34831C0 2.98031 0.298667 2.68164 0.666667 2.68164H15.3333C15.7013 2.68164 16 2.98031 16 3.34831C16 3.71631 15.7013 4.01497 15.3333 4.01497ZM15.3333 14.2371H0.666667C0.298667 14.2371 0 13.9385 0 13.5705C0 13.2025 0.298667 12.9038 0.666667 12.9038H15.3333C15.7013 12.9038 16 13.2025 16 13.5705C16 13.9385 15.7013 14.2371 15.3333 14.2371Z" fill="black" fill-opacity="0.6"/>
</svg>
