<svg width="19" height="20" viewBox="0 0 19 20" fill="none" xmlns="http://www.w3.org/2000/svg">
<g clip-path="url(#clip0_1_7881)">
<path d="M15.8384 12.9642C14.6971 12.388 13.443 11.9912 12.2081 11.742C11.9161 11.4285 11.7152 11.0412 11.6271 10.622C12.3915 10.0241 12.9767 9.12741 13.2974 8.05918C14.1827 7.92514 14.4129 6.56475 14.0618 5.81982C15.674 -1.24514 3.36798 -1.2598 4.9419 5.80442C4.57244 6.54898 4.80233 7.92774 5.69793 8.05989C6.01433 9.12812 6.60377 10.0249 7.36819 10.6227C7.27676 11.0604 7.06318 11.4633 6.75217 11.7847C6.16766 11.8869 5.80785 11.973 5.80013 11.9814C3.40542 12.6406 1.28032 13.3814 1.57207 16.3293C1.4505 20.5516 17.5433 20.5556 17.4282 16.3294C17.5547 14.9993 17.1252 13.5707 15.8384 12.9642ZM9.50814 1.08065C12.2861 1.04239 13.9222 2.86951 13.562 5.33539C13.3977 5.25627 13.2004 5.25282 13.0237 5.29268C12.9537 5.08268 12.8396 4.74595 12.6435 4.19925C12.6186 4.15082 12.5779 4.107 12.5455 4.06276C10.0422 2.39715 8.99714 5.48557 6.74935 4.05367C6.73606 4.04528 6.72694 4.03757 6.71506 4.02847C6.60024 3.99919 6.47159 4.01864 6.39867 4.12229C6.16599 4.59083 6.04375 5.11014 5.96675 5.29272C5.79698 5.24926 5.61069 5.25286 5.45015 5.32701C5.08978 2.8632 6.73106 1.04317 9.50814 1.08065ZM6.18514 7.66716C6.04257 7.30653 5.80596 7.56299 5.65102 7.44458C5.2996 7.2057 5.21224 5.98432 5.66368 5.85618C5.8984 5.77896 6.10572 6.07806 6.32586 5.90658C6.38754 5.858 6.42876 5.78806 6.44138 5.71057C6.46238 5.61605 6.61149 5.18065 6.77458 4.73055C9.33658 5.90632 9.88765 3.22613 12.1396 4.48833C12.4364 5.21315 12.4429 5.59761 12.6687 5.90591C12.8881 6.07843 13.0969 5.77629 13.331 5.85548C13.5109 5.90587 13.681 6.24817 13.639 6.70951C13.604 7.09382 13.4591 7.33952 13.3443 7.44384C13.1775 7.55208 12.9243 7.30761 12.8102 7.66645C11.7892 11.8144 7.20201 11.8154 6.18514 7.66716ZM7.8813 10.965C8.37416 11.2448 8.93123 11.392 9.498 11.392C10.0648 11.392 10.6219 11.2448 11.1147 10.965C11.2388 11.3959 11.4626 11.7915 11.7678 12.12C11.6187 12.5897 10.5456 13.4787 9.49975 14.1276C8.4497 13.4787 7.37657 12.5876 7.23099 12.12C7.5349 11.791 7.75761 11.3954 7.8813 10.965ZM2.14879 16.3292C1.93478 13.9788 3.22329 13.3959 5.1981 12.7507C5.10712 13.1278 5.03701 13.5097 4.9881 13.8945C3.76353 14.2641 3.82973 15.3909 4.02207 16.4237C3.75332 16.7891 4.20758 17.2866 4.59541 17.0474C4.88453 16.8896 4.87343 16.444 4.58209 16.2956C4.47332 15.5387 4.26621 14.603 5.30272 14.449C6.28481 14.4056 6.30304 15.357 6.37766 16.0765C6.1258 16.2942 6.23939 16.7283 6.56043 16.8056C6.98277 16.9341 7.30217 16.3561 6.95379 16.0765C6.89029 15.105 6.73877 14.0214 5.56983 13.8645C5.63322 13.4252 5.72417 12.9903 5.84214 12.5624C6.02935 12.5132 6.11556 12.4849 6.72207 12.3741C7.0938 13.2456 8.64085 14.2712 9.21274 14.6212V18.9179C5.85064 18.7802 2.15157 18.0925 2.14879 16.3292ZM16.8493 16.3292C16.8484 18.089 13.1502 18.7811 9.78393 18.9179V14.6212C10.365 14.2621 11.933 13.2211 12.2837 12.3489C12.5673 12.4027 12.8414 12.473 13.1118 12.5449C13.2763 13.1463 13.3877 13.7609 13.445 14.3818C12.1063 14.8636 12.789 16.8665 14.1432 16.4305C15.1671 16.117 15.0699 14.5411 14.0219 14.3481C13.9709 13.806 13.8822 13.268 13.7566 12.7381C15.7415 13.379 17.071 13.9651 16.8493 16.3292ZM13.7951 14.8949C14.4528 14.9014 14.4544 15.8994 13.7946 15.9025C13.1344 15.8979 13.1388 14.9003 13.7965 14.8949H13.7951Z" fill="url(#paint0_linear_1_7881)"/>
</g>
<defs>
<linearGradient id="paint0_linear_1_7881" x1="12.6005" y1="34.6143" x2="12.6005" y2="-10.9118" gradientUnits="userSpaceOnUse">
<stop stop-color="#24A363"/>
<stop offset="1" stop-color="#4BDD48"/>
</linearGradient>
<clipPath id="clip0_1_7881">
<rect width="19" height="19" fill="white" transform="translate(0 0.5)"/>
</clipPath>
</defs>
</svg>
