<svg width="60" height="60" viewBox="0 0 60 60" fill="none" xmlns="http://www.w3.org/2000/svg">
<g clip-path="url(#clip0_1_135)">
<path d="M22.5 21.5625H19.6875V16.875C19.6875 15.3244 18.4256 14.0625 16.875 14.0625H9.375C7.82438 14.0625 6.5625 15.3244 6.5625 16.875V21.5625H3.75C2.19937 21.5625 0.9375 22.8244 0.9375 24.375V25.5741C0.939971 36.6184 3.892 47.4617 9.48844 56.9832C10.2441 58.2657 11.6372 59.0625 13.125 59.0625C14.6128 59.0625 16.0059 58.2657 16.7616 56.9832C22.358 47.4617 25.31 36.6184 25.3125 25.5741V24.375C25.3125 22.8244 24.0506 21.5625 22.5 21.5625ZM17.4928 51.6113L9.63188 53.3579C9.05918 52.2597 8.52049 51.1442 8.01656 50.0129L19.2825 47.5088C18.7368 48.8979 18.1399 50.2664 17.4928 51.6113ZM20.0606 45.4154L7.26844 48.2579C6.80801 47.1307 6.38188 45.9899 5.99062 44.8369L21.3028 41.4338C20.9352 42.775 20.5208 44.103 20.0606 45.4154ZM21.8231 39.3985L5.41406 43.0454C5.0629 41.8907 4.74619 40.7258 4.46438 39.5522L22.6069 35.52C22.3884 36.8211 22.127 38.1147 21.8231 39.3985ZM22.9069 33.5325L4.05844 37.7213C3.81553 36.539 3.60825 35.3498 3.43687 34.155L23.2903 29.7432C23.2021 31.01 23.0742 32.2737 22.9069 33.5325ZM3.19688 32.2875C3.00548 30.5934 2.88631 28.8918 2.83969 27.1875H23.4103C23.4047 27.3919 23.4 27.5954 23.3925 27.7997L3.19688 32.2875ZM8.4375 16.875C8.4375 16.3585 8.8575 15.9375 9.375 15.9375H16.875C17.3925 15.9375 17.8125 16.3585 17.8125 16.875V21.5625H15.9375V17.8125H14.0625V21.5625H12.1875V17.8125H10.3125V21.5625H8.4375V16.875ZM3.75 23.4375H22.5C23.0175 23.4375 23.4375 23.8585 23.4375 24.375V25.3125H2.8125V24.375C2.8125 23.8585 3.2325 23.4375 3.75 23.4375ZM15.1444 56.0325C14.7253 56.745 13.9519 57.1875 13.125 57.1875C12.2981 57.1875 11.5247 56.745 11.1056 56.0325C10.9191 55.7147 10.7428 55.3922 10.5619 55.0716L16.4006 53.7741C15.9984 54.536 15.5795 55.289 15.1444 56.0325ZM59.0625 12.33C59.0625 10.2207 58.4719 8.16098 57.3534 6.37223L56.0859 4.34629C55.4373 3.30038 54.5316 2.438 53.4552 1.8413C52.3788 1.2446 51.1676 0.933462 49.9369 0.93754H48.3806C47.3975 0.936412 46.4245 1.13558 45.5209 1.52291C44.6173 1.91023 43.8021 2.47758 43.125 3.19035C42.448 2.4777 41.633 1.91041 40.7295 1.52309C39.8261 1.13577 38.8533 0.936539 37.8703 0.93754H36.3131C35.0819 0.933438 33.8702 1.24464 32.7933 1.8415C31.7164 2.43835 30.8103 3.30099 30.1613 4.34723L28.8947 6.37223C27.8306 8.07579 27.2422 10.0333 27.1908 12.0412C27.1394 14.0492 27.6267 16.0342 28.6022 17.79L31.4034 22.8319C31.0999 23.2893 30.9378 23.8261 30.9375 24.375V25.5741C30.94 36.6184 33.892 47.4617 39.4884 56.9832C40.2441 58.2657 41.6372 59.0625 43.125 59.0625C44.6128 59.0625 46.0059 58.2657 46.7616 56.9832C52.358 47.4617 55.31 36.6184 55.3125 25.5741V24.375C55.3125 23.805 55.1391 23.2754 54.8466 22.831L57.6478 17.7891C58.5751 16.119 59.0619 14.2403 59.0625 12.33ZM47.4928 51.6113L39.6319 53.3579C39.059 52.2595 38.5203 51.1436 38.0166 50.0119L49.2825 47.5088C48.7369 48.8979 48.1399 50.2664 47.4928 51.6113ZM50.0616 45.4154L37.2684 48.2579C36.808 47.1307 36.3819 45.9899 35.9906 44.8369L51.3028 41.4338C50.9352 42.7749 50.5212 44.1029 50.0616 45.4154ZM51.8231 39.3985L35.4141 43.0444C35.0629 41.8897 34.7462 40.7248 34.4644 39.5513L52.6069 35.5191C52.3885 36.8205 52.1271 38.1144 51.8231 39.3985ZM52.9069 33.5325L34.0584 37.7213C33.8155 36.539 33.6083 35.3498 33.4369 34.155L53.2903 29.7432C53.2021 31.01 53.0742 32.2737 52.9069 33.5325ZM33.1969 32.2875C33.0056 30.5933 32.8861 28.8918 32.8387 27.1875H53.4094C53.4038 27.3919 53.3991 27.5954 53.3916 27.7997L33.1969 32.2875ZM53.4375 24.375V25.3125H32.8125V24.375C32.8125 23.8585 33.2325 23.4375 33.75 23.4375H52.5C53.0175 23.4375 53.4375 23.8585 53.4375 24.375ZM45.1444 56.0325C44.7253 56.745 43.9519 57.1875 43.125 57.1875C42.2981 57.1875 41.5247 56.745 41.1056 56.0325C40.9191 55.7147 40.7428 55.3922 40.5619 55.0716L46.4006 53.7741C45.9984 54.536 45.5795 55.289 45.1444 56.0325ZM56.0091 16.8779L53.3288 21.7013C53.0611 21.6134 52.7817 21.5666 52.5 21.5625H33.75C33.4594 21.5625 33.1847 21.6197 32.9203 21.7013L30.2409 16.8788C29.4277 15.416 29.0215 13.762 29.0645 12.089C29.1075 10.4159 29.5983 8.78498 30.4856 7.36598L31.7512 5.34098C32.2324 4.56522 32.9042 3.92558 33.7025 3.48298C34.5009 3.04039 35.3993 2.80958 36.3122 2.81254H37.8694C39.6722 2.81254 41.3447 3.70785 42.3441 5.20785L43.125 6.37785L43.905 5.20691C44.3955 4.46972 45.0608 3.86531 45.8415 3.44754C46.6223 3.02978 47.4942 2.81163 48.3797 2.81254H49.9359C50.8486 2.80955 51.7467 3.04025 52.545 3.48268C53.3432 3.92511 54.0148 4.56453 54.4959 5.34004L55.7634 7.36598C56.6945 8.85426 57.188 10.5745 57.1875 12.33C57.1875 13.9191 56.7797 15.4913 56.0091 16.8779Z" fill="#27A324" fill-opacity="0.5"/>
<path d="M35.35 6.83719L34.0244 8.16281C34.7041 8.84663 35.5127 9.38875 36.4035 9.75776C37.2942 10.1268 38.2493 10.3153 39.2135 10.3125H42.1872V8.4375H39.2135C38.4957 8.4395 37.7846 8.29909 37.1214 8.02439C36.4583 7.74969 35.8562 7.34617 35.35 6.83719ZM44.0135 8.28L43.541 8.595L44.5825 10.1541L45.055 9.83906C46.4235 8.92355 48.0333 8.43569 49.6797 8.4375H49.6863L49.6882 6.5625H49.6797C47.6557 6.5625 45.6963 7.15594 44.0135 8.28Z" fill="#27A324" fill-opacity="0.5"/>
</g>
<defs>
<clipPath id="clip0_1_135">
<rect width="60" height="60" fill="white"/>
</clipPath>
</defs>
</svg>
