<svg width="60" height="60" viewBox="0 0 60 60" fill="none" xmlns="http://www.w3.org/2000/svg">
<g clip-path="url(#clip0_1_151)">
<path d="M51.6996 37.1859V35.8018C51.6996 34.3384 50.5132 33.1517 49.0495 33.1517H47.2829C45.8219 33.1517 44.6368 34.334 44.6328 35.7949C42.8966 35.5668 41.0996 35.3893 39.3329 35.2567V34.0353C39.3329 32.5719 38.1467 31.3851 36.6833 31.3851H34.9168C33.4531 31.3851 32.2667 32.5719 32.2667 34.0352V34.9336C31.6485 34.9239 31.0601 34.9187 30.5001 34.9187C29.9401 34.9187 29.3517 34.9239 28.7335 34.9336V34.0352C28.7335 32.5719 27.5472 31.3851 26.0834 31.3851H24.3168C22.8535 31.3851 21.6672 32.5719 21.6672 34.0352V35.2567C19.9005 35.3893 18.1028 35.5668 16.367 35.795C16.3633 34.334 15.1778 33.1517 13.7173 33.1517H11.9508C10.487 33.1517 9.30062 34.3384 9.30062 35.8018V37.1858C6.13666 38.115 4.00078 39.3863 4.00078 41.1017V48.1684C4.00178 48.477 4.0839 48.78 4.23891 49.0469C4.39391 49.3138 4.61636 49.5352 4.88395 49.6891V50.818C4.88395 52.2816 6.07072 53.4681 7.53408 53.4681H8.58007C8.7621 53.9829 9.09873 54.4289 9.54392 54.7452C9.98911 55.0614 10.5211 55.2323 11.0672 55.2346H13.7173C14.1737 55.2318 14.6215 55.11 15.0164 54.8812C15.2541 55.2592 15.5837 55.5708 15.9743 55.787C16.365 56.0032 16.804 56.1169 17.2505 56.1177H20.7837C21.2402 56.1153 21.6882 55.9936 22.0832 55.7647C22.3209 56.1426 22.6503 56.4542 23.0409 56.6704C23.4314 56.8866 23.8704 57.0005 24.3168 57.0013H28.7335C29.3875 56.9989 30.0172 56.7533 30.5001 56.3122C30.983 56.7533 31.6127 56.9989 32.2667 57.0013H36.6833C37.1297 57.0004 37.5687 56.8866 37.9592 56.6703C38.3498 56.4541 38.6792 56.1426 38.9169 55.7647C39.312 55.9936 39.76 56.1153 40.2165 56.1177H43.7497C44.1962 56.1169 44.6352 56.0031 45.0258 55.7869C45.4165 55.5707 45.746 55.2592 45.9837 54.8812C46.3786 55.1101 46.8264 55.2319 47.2828 55.2346H49.9329C50.479 55.2323 51.011 55.0614 51.4562 54.7452C51.9015 54.429 52.2381 53.9829 52.4201 53.4681H53.4661C54.9295 53.4681 56.1158 52.2817 56.1158 50.818V49.6891C56.3835 49.5353 56.6061 49.3139 56.7611 49.047C56.9162 48.78 56.9983 48.477 56.9993 48.1684V41.1015C56.9993 39.3863 54.8637 38.115 51.6996 37.1859ZM46.3997 35.8018C46.3997 35.3142 46.7952 34.9187 47.2829 34.9187H49.0495C49.2837 34.9187 49.5084 35.0117 49.674 35.1773C49.8397 35.3428 49.9329 35.5675 49.9329 35.8017V36.7241C48.8271 36.4677 47.6363 36.2433 46.3997 36.0492V35.8018ZM34.0333 34.0352C34.0333 33.5476 34.4287 33.1517 34.9168 33.1517H36.6833C37.171 33.1517 37.5664 33.5475 37.5664 34.0352V35.1375C36.3501 35.0643 35.1639 35.0121 34.0333 34.977V34.0352ZM23.4337 34.0352C23.4337 33.5476 23.8291 33.1517 24.3168 33.1517H26.0834C26.3177 33.1517 26.5424 33.2448 26.7081 33.4105C26.8738 33.5761 26.9669 33.8008 26.9669 34.0352V34.9769C25.8363 35.0121 24.65 35.0651 23.4337 35.1374V34.0352ZM11.0672 35.8018C11.0672 35.3142 11.4626 34.9187 11.9508 34.9187H13.7173C14.2048 34.9187 14.6004 35.3142 14.6004 35.8017V36.0492C13.3639 36.2433 12.1731 36.4677 11.0672 36.7241V35.8018ZM30.5001 36.6853C46.5028 36.6853 55.2327 39.6002 55.2327 41.1015V46.337C54.8037 45.9476 54.2423 45.7366 53.663 45.7471C53.0946 45.7487 52.542 45.9346 52.0882 46.2768C51.776 45.726 51.3182 45.2719 50.7648 44.9644C50.2115 44.6568 49.5842 44.5076 48.9516 44.5332C48.3542 44.5346 47.7636 44.6607 47.2177 44.9034C46.6718 45.146 46.1824 45.4999 45.781 45.9424C45.4267 45.3642 44.9233 44.892 44.3235 44.5756C43.7237 44.2591 43.0498 44.11 42.3725 44.1439C41.6798 44.1437 40.9952 44.2937 40.366 44.5833C39.7367 44.873 39.1777 45.2955 38.7273 45.8218C38.3446 45.1591 37.7862 44.615 37.1138 44.2497C36.4414 43.8843 35.681 43.712 34.9168 43.7516C34.0417 43.7522 33.1803 43.9695 32.4096 44.3841C31.6389 44.7987 30.9829 45.3977 30.5001 46.1276C30.0173 45.3977 29.3612 44.7988 28.5906 44.3842C27.8199 43.9696 26.9585 43.7523 26.0834 43.7517C25.3184 43.7118 24.5572 43.8845 23.8843 44.2505C23.2113 44.6165 22.6527 45.1617 22.2704 45.8256C21.82 45.2991 21.2609 44.8765 20.6316 44.5868C20.0023 44.2972 19.3176 44.1473 18.6248 44.1475C17.9483 44.1137 17.2752 44.2625 16.676 44.5783C16.0768 44.8941 15.5735 45.3652 15.2191 45.9424C14.8176 45.501 14.3286 45.148 13.7833 44.906C13.2379 44.664 12.648 44.5383 12.0514 44.5369C11.4184 44.5108 10.7904 44.6597 10.2366 44.9672C9.68271 45.2748 9.2244 45.7292 8.91204 46.2804C8.45825 45.9379 7.9056 45.752 7.33709 45.7504C6.75832 45.7393 6.19705 45.949 5.76743 46.337V41.1015C5.76743 39.6002 14.4973 36.6853 30.5001 36.6853ZM6.65091 50.818V48.4622C6.65091 48.3042 6.68331 47.5136 7.3372 47.5136C8.01241 47.6237 8.48546 48.2399 8.41756 48.9208V51.7014H7.53397C7.41797 51.7014 7.30311 51.6786 7.19594 51.6342C7.08878 51.5897 6.99141 51.5247 6.9094 51.4426C6.82739 51.3606 6.76234 51.2632 6.71797 51.156C6.6736 51.0488 6.65088 50.934 6.65091 50.818ZM13.7173 53.4681H11.0672C10.8329 53.468 10.6083 53.3749 10.4427 53.2092C10.2771 53.0435 10.1842 52.8189 10.1842 52.5846V48.1684C10.1681 47.9193 10.2052 47.6697 10.2932 47.4362C10.3811 47.2026 10.5179 46.9905 10.6943 46.814C10.8708 46.6376 11.0828 46.5007 11.3163 46.4127C11.5498 46.3246 11.7994 46.2874 12.0485 46.3035C13.4573 46.3051 14.5992 47.4466 14.6004 48.8553V52.5846C14.6004 52.7006 14.5776 52.8155 14.5332 52.9226C14.4888 53.0298 14.4238 53.1272 14.3418 53.2092C14.2598 53.2913 14.1624 53.3564 14.0553 53.4008C13.9481 53.4452 13.8333 53.4681 13.7173 53.4681ZM20.7837 54.3512H17.2505C17.1345 54.3512 17.0196 54.3284 16.9125 54.284C16.8053 54.2396 16.7079 54.1746 16.6259 54.0926C16.5438 54.0106 16.4787 53.9132 16.4343 53.8061C16.3899 53.6989 16.367 53.5841 16.367 53.4681V48.1682C16.3524 47.8679 16.4009 47.5678 16.5092 47.2873C16.6175 47.0067 16.7833 46.752 16.9959 46.5393C17.2086 46.3267 17.4633 46.1609 17.7439 46.0526C18.0244 45.9443 18.3245 45.8959 18.6248 45.9104C20.3045 45.9125 21.6655 47.2739 21.6671 48.9536V53.4681C21.6671 53.9556 21.2716 54.3512 20.7837 54.3512ZM28.7335 55.2346H24.3168C24.0825 55.2346 23.8579 55.1414 23.6923 54.9757C23.5268 54.8101 23.4338 54.5854 23.4338 54.3512V48.1684C23.4167 47.8158 23.4735 47.4636 23.6006 47.1344C23.7276 46.8051 23.9222 46.5061 24.1717 46.2565C24.4212 46.0069 24.7202 45.8124 25.0495 45.6852C25.3787 45.5581 25.7309 45.5012 26.0834 45.5182C28.0347 45.5182 29.6166 47.1 29.6166 49.0514V54.3513C29.6166 54.4673 29.5938 54.5821 29.5494 54.6893C29.5051 54.7965 29.44 54.8938 29.358 54.9759C29.276 55.0579 29.1786 55.123 29.0715 55.1674C28.9643 55.2118 28.8494 55.2346 28.7335 55.2346ZM37.5664 54.3512C37.5664 54.5854 37.4735 54.8101 37.3079 54.9757C37.1423 55.1414 36.9177 55.2346 36.6834 55.2346H32.2667C32.0323 55.2346 31.8076 55.1415 31.642 54.9758C31.4763 54.8102 31.3832 54.5855 31.3832 54.3512V49.0513C31.3832 47.1001 32.9654 45.5182 34.9168 45.5182C35.2693 45.5013 35.6214 45.5582 35.9506 45.6854C36.2798 45.8126 36.5787 46.0072 36.8282 46.2567C37.0778 46.5063 37.2723 46.8053 37.3994 47.1345C37.5266 47.4637 37.5834 47.8159 37.5664 48.1684V54.3512ZM44.6328 53.4681C44.6328 53.9556 44.2374 54.3512 43.7497 54.3512H40.2165C40.1005 54.3512 39.9857 54.3284 39.8785 54.284C39.7713 54.2396 39.6739 54.1746 39.5919 54.0926C39.5099 54.0106 39.4448 53.9132 39.4004 53.8061C39.3559 53.6989 39.3331 53.5841 39.333 53.4681V48.9536C39.3346 47.2739 40.6957 45.9124 42.3753 45.9104C42.6757 45.8958 42.9758 45.9441 43.2564 46.0524C43.537 46.1607 43.7918 46.3265 44.0045 46.5392C44.2171 46.7518 44.3829 47.0066 44.4911 47.2872C44.5993 47.5678 44.6476 47.868 44.6328 48.1684V53.4681ZM50.816 52.5846C50.8161 52.8189 50.7231 53.0435 50.5575 53.2092C50.3919 53.3749 50.1673 53.468 49.933 53.4681H47.2828C47.1668 53.4681 47.0519 53.4452 46.9448 53.4008C46.8376 53.3564 46.7402 53.2913 46.6582 53.2093C46.5762 53.1272 46.5112 53.0298 46.4668 52.9227C46.4224 52.8155 46.3996 52.7006 46.3996 52.5846V48.8553C46.4009 47.4465 47.5427 46.3051 48.9515 46.3035C49.2006 46.2874 49.4502 46.3246 49.6837 46.4126C49.9173 46.5006 50.1294 46.6375 50.3058 46.814C50.4823 46.9905 50.619 47.2026 50.707 47.4361C50.795 47.6697 50.8322 47.9193 50.816 48.1684V52.5846ZM54.3492 50.818C54.3492 50.934 54.3264 51.0488 54.282 51.156C54.2377 51.2632 54.1726 51.3606 54.0906 51.4426C54.0086 51.5246 53.9113 51.5897 53.8041 51.6341C53.697 51.6785 53.5821 51.7014 53.4661 51.7014H52.5827V48.9208C52.5147 48.2399 52.9878 47.6237 53.663 47.5136C54.3169 47.5136 54.3493 48.3086 54.3493 48.4622L54.3492 50.818ZM56.6617 5.92827L56.9412 5.20327C57.1161 4.74761 56.8889 4.23615 56.4332 4.06101C55.9776 3.88597 55.466 4.11318 55.291 4.56884L55.0127 5.29426C52.6291 11.4169 46.7435 15.4592 40.1733 15.4858H20.8285C14.2579 15.46 8.37108 11.4179 5.98749 5.29426L5.70936 4.56884C5.53411 4.11318 5.02265 3.88597 4.56699 4.06101C4.11123 4.23615 3.88402 4.74761 4.05906 5.20327L4.33813 5.92827C6.98701 12.7314 13.5264 17.2225 20.827 17.2524H40.1713C47.4725 17.2233 54.0128 12.7318 56.6617 5.92827ZM25.2004 29.6185C25.6879 29.6185 26.0833 29.2231 26.0833 28.7355V22.0346L27.2257 23.1769C27.5723 23.5112 28.1234 23.5069 28.4637 23.166C28.6275 23.0023 28.7205 22.7808 28.7226 22.5492C28.7246 22.3176 28.6356 22.0945 28.4747 21.9279L25.8246 19.2778C25.817 19.2697 25.806 19.2672 25.7984 19.26C25.7228 19.1861 25.6348 19.1263 25.5383 19.0833C25.5315 19.0833 25.5226 19.0833 25.5157 19.0781C25.4263 19.0449 25.3324 19.0263 25.2372 19.0234C25.2076 19.0234 25.1785 19.0255 25.149 19.0286C25.0751 19.033 25.002 19.0472 24.9319 19.0711C24.9015 19.0797 24.872 19.0897 24.8432 19.1019C24.745 19.1442 24.6552 19.2041 24.5785 19.2786L21.9283 21.9286C21.7674 22.0952 21.6784 22.3183 21.6804 22.5499C21.6825 22.7815 21.7755 23.003 21.9393 23.1667C22.103 23.3306 22.3245 23.4235 22.5561 23.4256C22.7876 23.4276 23.0107 23.3386 23.1773 23.1777L24.3168 22.0346V28.7354C24.3168 29.2231 24.7122 29.6185 25.2004 29.6185ZM35.7998 29.6185C36.0341 29.6185 36.2588 29.5255 36.4244 29.36C36.5901 29.1944 36.6832 28.9698 36.6833 28.7355V22.0346L37.8252 23.1769C37.992 23.3366 38.2147 23.4246 38.4457 23.422C38.6766 23.4195 38.8973 23.3266 39.0606 23.1633C39.2239 23.0001 39.3168 22.7793 39.3193 22.5484C39.3218 22.3175 39.2338 22.0947 39.0742 21.9279L36.4245 19.2778C36.4165 19.2697 36.4059 19.2672 36.3978 19.26C36.3225 19.1862 36.2346 19.1263 36.1383 19.0833C36.1311 19.0833 36.1221 19.0833 36.1152 19.0781C36.0262 19.0449 35.932 19.0263 35.837 19.0234C35.8075 19.0234 35.778 19.0255 35.7485 19.0286C35.6745 19.033 35.6015 19.0473 35.5313 19.0711C35.5014 19.0797 35.4719 19.0897 35.4432 19.1019C35.3447 19.1441 35.2548 19.204 35.1779 19.2786L32.5283 21.9286C32.3681 22.0954 32.2796 22.3183 32.2819 22.5495C32.2842 22.7807 32.3771 23.0018 32.5406 23.1653C32.7041 23.3289 32.9252 23.4217 33.1564 23.4241C33.3877 23.4264 33.6106 23.3379 33.7773 23.1777L34.9168 22.0346V28.7354C34.9168 29.2231 35.3122 29.6185 35.7998 29.6185ZM48.1664 31.3851C48.6539 31.3851 49.0495 30.9897 49.0495 30.5021V23.8011L50.1917 24.9433C50.3583 25.1042 50.5814 25.1931 50.813 25.1911C51.0446 25.1891 51.2661 25.0962 51.4298 24.9325C51.5937 24.7688 51.6866 24.5472 51.6887 24.3157C51.6908 24.0841 51.6017 23.8609 51.4408 23.6943L48.7907 21.0442C48.7826 21.0361 48.772 21.0338 48.7644 21.0265C48.6888 20.9528 48.6007 20.893 48.5044 20.8498C48.4967 20.8498 48.4886 20.8498 48.4806 20.8445C48.3916 20.8117 48.2979 20.7932 48.2031 20.7899C48.1736 20.7899 48.1441 20.792 48.1151 20.7952C48.0407 20.7996 47.9672 20.8138 47.8966 20.8376C47.8677 20.8473 47.8393 20.8554 47.8085 20.8676C47.7102 20.9101 47.6205 20.9699 47.5437 21.0442L44.8937 23.6945C44.7328 23.861 44.6438 24.0841 44.6458 24.3157C44.6479 24.5473 44.7408 24.7688 44.9046 24.9325C45.2452 25.2734 45.7962 25.2779 46.1427 24.9434L47.283 23.8012V30.5021C47.283 30.9896 47.6784 31.385 48.1665 31.385L48.1664 31.3851ZM11.9508 31.3851C12.4383 31.3851 12.8337 30.9897 12.8337 30.5021V23.8011L13.9761 24.9433C14.3226 25.2777 14.8737 25.2733 15.2141 24.9325C15.3779 24.7688 15.4709 24.5472 15.473 24.3157C15.475 24.0841 15.386 23.8609 15.2251 23.6943L12.575 21.0443C12.5674 21.0362 12.5564 21.0339 12.5487 21.0266C12.4731 20.9529 12.3851 20.8931 12.2887 20.8499C12.2819 20.8499 12.273 20.8499 12.2649 20.8446C12.1761 20.8114 12.0823 20.7932 11.9875 20.7908C11.958 20.7903 11.9286 20.7918 11.8993 20.7953C11.825 20.7997 11.7516 20.8139 11.681 20.8377C11.5483 20.8761 11.4271 20.9465 11.328 21.0427L8.67789 23.6924C8.51821 23.8592 8.43022 24.0819 8.43275 24.3129C8.43528 24.5438 8.52813 24.7645 8.69143 24.9278C8.85472 25.0911 9.07547 25.184 9.30639 25.1865C9.53731 25.189 9.76004 25.101 9.92687 24.9414L11.0672 23.8012V30.5021C11.0672 30.9896 11.4626 31.385 11.9508 31.385V31.3851Z" fill="#27A324" fill-opacity="0.5"/>
</g>
<defs>
<clipPath id="clip0_1_151">
<rect width="53" height="53" fill="white" transform="translate(4 4)"/>
</clipPath>
</defs>
</svg>
