<svg width="60" height="60" viewBox="0 0 60 60" fill="none" xmlns="http://www.w3.org/2000/svg">
<g clip-path="url(#clip0_1_167)">
<mask id="path-1-outside-1_1_167" maskUnits="userSpaceOnUse" x="6.5166" y="3.57129" width="54" height="54" fill="black">
<rect fill="white" x="6.5166" y="3.57129" width="54" height="54"/>
<path d="M32.1338 34.664C32.0074 34.6641 31.8841 34.6256 31.7801 34.5538C31.6762 34.4819 31.5966 34.3801 31.5521 34.2618C31.5075 34.1436 31.5001 34.0145 31.5308 33.892C31.5615 33.7694 31.6289 33.6591 31.7239 33.5758L32.4021 32.9812C32.7099 32.7118 33.1056 32.5642 33.5146 32.5664C33.9237 32.5685 34.3178 32.7202 34.6227 32.9928L35.2807 33.5799C35.3991 33.6909 35.4693 33.8438 35.4764 34.0058C35.4836 34.1679 35.427 34.3264 35.3188 34.4473C35.2106 34.5682 35.0594 34.642 34.8975 34.6528C34.7356 34.6637 34.5759 34.6108 34.4526 34.5054L33.7971 33.9178C33.7185 33.8475 33.6168 33.8083 33.5113 33.8078C33.4058 33.8073 33.3038 33.8454 33.2244 33.9149L32.5462 34.5095C32.4324 34.6099 32.2856 34.6648 32.1338 34.664ZM33.5002 38.6038C33.3355 38.6038 33.1775 38.5383 33.061 38.4218C32.9446 38.3054 32.8791 38.1474 32.8791 37.9827V35.326C32.8791 35.1613 32.9446 35.0033 33.061 34.8869C33.1775 34.7704 33.3355 34.705 33.5002 34.705C33.6649 34.705 33.8229 34.7704 33.9394 34.8869C34.0559 35.0033 34.1213 35.1613 34.1213 35.326V37.9827C34.1213 38.1474 34.0559 38.3054 33.9394 38.4218C33.8229 38.5383 33.6649 38.6038 33.5002 38.6038ZM57.3461 6.422C53.7437 2.61552 42.6162 5.43984 36.4496 8.11427C35.5183 8.51643 34.5146 8.72388 33.5002 8.72388C32.4858 8.72388 31.4821 8.51643 30.5508 8.11427C24.3842 5.43984 13.2575 2.61552 9.65435 6.422C6.97578 9.25294 6.80022 14.3331 9.20758 18.5689C9.13263 20.566 9.40591 22.7584 9.66304 23.3721C10.1827 24.6234 13.0687 25.2329 14.845 25.2329C15.0189 25.2329 15.1829 25.2271 15.3324 25.2155C15.6772 25.196 16.017 25.1242 16.3402 25.0026C17.3754 26.0817 20.179 26.538 22.0543 26.538C22.3093 26.538 22.547 26.5293 22.7611 26.5131C23.261 26.4902 23.7533 26.3822 24.2169 26.1939C24.5777 26.6839 25.1138 27.0156 25.7134 27.1197C27.1376 27.3755 28.5821 27.5012 30.0291 27.4953C30.6709 27.4953 31.3028 27.4709 31.8999 27.4216C32.4873 27.3858 33.048 27.1635 33.5002 26.7868C33.9522 27.1639 34.5127 27.3869 35.1001 27.4232C35.6976 27.4725 36.3291 27.4965 36.9713 27.4965C38.4183 27.5026 39.8628 27.377 41.2871 27.1214C41.8868 27.0168 42.423 26.6845 42.7835 26.1939C43.2474 26.3823 43.74 26.4903 44.2402 26.5131C44.4542 26.5293 44.6919 26.538 44.947 26.538C46.8231 26.538 49.6259 26.0825 50.661 25.0026C50.9843 25.1242 51.3241 25.196 51.6689 25.2155C51.8183 25.2271 51.9819 25.2329 52.1562 25.2329C53.9325 25.2329 56.8186 24.6234 57.3382 23.3721C57.5937 22.7568 57.867 20.5643 57.7937 18.5689C60.2002 14.3331 60.0246 9.25294 57.3461 6.422ZM12.6687 23.7298C11.4 23.4313 10.8667 23.0392 10.8075 22.8963C10.4469 22.0268 10.1628 17.398 10.8903 16.1504C11.3814 15.3111 12.364 15.3976 12.764 15.4738C13.4778 15.6382 14.1328 15.9954 14.6576 16.5065C15.1823 17.0176 15.5567 17.663 15.7398 18.3723C15.7887 18.5825 15.8003 18.7998 15.7742 19.0141C15.5993 20.6285 15.6211 22.2581 15.8392 23.8673C15.4334 24.0201 14.1966 24.09 12.67 23.7306L12.6687 23.7298ZM19.9927 25.1277C18.0702 24.8159 17.2598 24.278 17.1692 24.0669C16.7514 23.0963 16.7866 17.8427 17.666 16.1732C17.9973 15.5467 19.008 15.2933 20.1848 15.543C21.7798 15.8813 23.4455 17.1044 23.6857 19.0898C23.6993 19.2161 23.7006 19.3434 23.6894 19.4699C23.5757 21.2313 23.583 22.9984 23.7114 24.7588C23.7188 24.859 23.7374 24.953 23.7528 25.0486C23.3623 25.261 21.9417 25.4444 19.9939 25.1285L19.9927 25.1277ZM32.663 25.8668C32.422 26.0759 32.1125 26.189 31.7934 26.1844C29.8389 26.3364 27.873 26.2411 25.9423 25.9007C25.6566 25.8475 25.3992 25.694 25.2166 25.4678C25.0339 25.2417 24.938 24.9578 24.9461 24.6672C24.8753 23.7149 24.6803 20.3991 25.137 17.7524C25.2194 17.1057 25.5391 16.5126 26.0342 16.0884C26.5292 15.6641 27.1642 15.4389 27.816 15.4564C28.8504 15.4457 29.8589 15.7803 30.6818 16.4073C31.5046 17.0343 32.0949 17.9178 32.3591 18.918C33.0543 21.8777 32.9731 25.1952 32.6659 25.8676L32.663 25.8668ZM42.0473 24.666C42.0553 24.9565 41.9594 25.2404 41.7768 25.4664C41.5941 25.6925 41.3368 25.8459 41.0511 25.8991C39.1203 26.2399 37.1542 26.3352 35.1995 26.1827C34.8804 26.1873 34.5709 26.0741 34.33 25.8647C34.0232 25.1927 33.942 21.8752 34.6331 18.9176C34.8926 17.936 35.466 17.0662 36.2659 16.4409C37.0658 15.8156 38.0483 15.4692 39.0636 15.4544H39.1741C39.8258 15.4368 40.4608 15.662 40.9559 16.0863C41.4509 16.5105 41.7707 17.1036 41.8531 17.7503C42.316 20.3999 42.121 23.7149 42.0502 24.6685L42.0473 24.666ZM49.8267 24.0648C49.736 24.2764 48.9261 24.8142 47.0036 25.126C45.0575 25.4424 43.6356 25.2581 43.2452 25.0465C43.3784 23.1883 43.3992 21.3237 43.3077 19.4629C43.2972 19.3388 43.2986 19.214 43.3118 19.0902C43.5508 17.1027 45.2165 15.8792 46.8131 15.5405C47.9916 15.292 49.0031 15.5442 49.3319 16.1707C50.2126 17.8435 50.2478 23.0971 49.8296 24.0673L49.8267 24.0648ZM56.1908 22.8971C56.1316 23.04 55.5983 23.4321 54.3276 23.7306C52.7997 24.0909 51.5637 24.0205 51.1554 23.8698C51.3735 22.2606 51.3953 20.6309 51.2204 19.0165C51.1943 18.8022 51.2059 18.585 51.2548 18.3747C51.4379 17.6655 51.8123 17.0201 52.3371 16.509C52.8618 15.9979 53.5168 15.6407 54.2307 15.4763C54.6298 15.4005 55.6132 15.3132 56.1043 16.1525C56.8364 17.3988 56.5523 22.0288 56.1908 22.8971ZM57.1784 15.5239C56.561 14.4681 55.3743 13.9919 54.0004 14.2544C52.6771 14.5388 51.5173 15.329 50.7683 16.4564C50.6852 16.1589 50.5737 15.8701 50.4354 15.5939C49.835 14.4523 48.3125 13.9542 46.5589 14.3273C45.064 14.6368 43.7461 15.511 42.8796 16.7678C42.6127 16.0129 42.1159 15.3607 41.4591 14.9028C40.8023 14.4449 40.0186 14.2044 39.218 14.2151C37.9417 14.1949 36.6936 14.5907 35.6621 15.3425C34.6306 16.0944 33.8717 17.1615 33.5002 18.3826C33.1306 17.1606 32.3724 16.0925 31.3406 15.3406C30.3087 14.5888 29.0597 14.1942 27.7832 14.2167C26.9827 14.2061 26.1989 14.4466 25.5421 14.9045C24.8853 15.3624 24.3886 16.0146 24.1217 16.7694C23.2551 15.5126 21.9372 14.6385 20.4423 14.3289C18.6884 13.9563 17.1663 14.4532 16.5659 15.5956C16.4271 15.8711 16.315 16.1594 16.2313 16.4564C15.4823 15.329 14.3225 14.5388 12.9991 14.2544C11.6269 13.9931 10.4386 14.4681 9.8208 15.5243C9.68602 15.7671 9.58198 16.0256 9.51108 16.2941C8.25854 12.9625 8.61505 9.32996 10.557 7.27621C13.2414 4.43822 22.7694 6.09365 30.0569 9.25377C31.1441 9.72331 32.3159 9.96553 33.5002 9.96553C34.6845 9.96553 35.8563 9.72331 36.9436 9.25377C44.2311 6.09365 53.7595 4.43864 56.4434 7.27621C58.387 9.32996 58.7419 12.9625 57.4893 16.2941C57.4184 16.0255 57.3134 15.7667 57.1784 15.5239ZM57.7133 43.4189C57.4072 42.9024 56.9682 42.4774 56.4421 42.1882C55.9159 41.8989 55.3219 41.756 54.7217 41.7742C54.0141 41.7955 53.3175 41.956 52.6718 42.2465C52.0262 42.537 51.4441 42.9518 50.9587 43.4673C50.3844 42.4235 49.1808 41.8252 47.6462 41.8252C46.2724 41.8374 44.9373 42.2822 43.8307 43.0963C43.5321 43.3196 43.2643 43.5812 43.034 43.8744C42.6088 43.2149 42.0199 42.6771 41.3247 42.3133C40.6295 41.9496 39.8518 41.7724 39.0677 41.7991C37.9447 41.8217 36.8457 42.1275 35.8724 42.6881C34.8991 43.2487 34.0832 44.046 33.5002 45.006C32.917 44.0462 32.1009 43.2492 31.1275 42.6888C30.1542 42.1284 29.0552 41.8228 27.9323 41.8003C27.1485 41.7736 26.3712 41.9506 25.6763 42.3142C24.9814 42.6777 24.3927 43.2153 23.9677 43.8744C23.7369 43.5806 23.4686 43.3184 23.1698 43.0943C22.0628 42.2799 20.7275 41.835 19.3533 41.8227C17.8213 41.8227 16.6172 42.4206 16.0408 43.4653C15.5557 42.9496 14.9737 42.5346 14.3281 42.244C13.6825 41.9534 12.9859 41.793 12.2783 41.7718C11.6778 41.7537 11.0834 41.897 10.5571 42.1867C10.0308 42.4764 9.59183 42.9019 9.28583 43.4189C8.12356 45.3981 8.62085 50.6948 9.08667 51.8177C9.85186 53.652 13.5672 54.0644 14.8086 54.0644C15.2709 54.0717 15.7324 54.0218 16.1825 53.9158C17.9944 55.3489 21.9711 55.3683 22.0183 55.3683C22.6964 55.3871 23.3738 55.3098 24.0302 55.1385C24.4612 55.5538 25.0053 55.8325 25.5941 55.9397C27.0528 56.2012 28.5322 56.3302 30.0142 56.3252C30.6875 56.3252 31.3392 56.2991 31.9512 56.2482C32.4953 56.2047 33.0237 56.0444 33.5002 55.7782C33.9767 56.0444 34.5048 56.2048 35.0488 56.2486C35.662 56.2996 36.3138 56.3256 36.987 56.3256C38.4668 56.3307 39.9439 56.2021 41.4005 55.9414C41.9932 55.8341 42.5407 55.5535 42.974 55.1352C43.0993 55.1725 43.2318 55.2055 43.3715 55.2342C43.9009 55.3313 44.4385 55.3772 44.9768 55.3712C46.2434 55.3712 49.2938 55.0855 50.8072 53.9133C51.2607 54.0215 51.726 54.0724 52.1922 54.0649C53.4344 54.0649 57.149 53.6508 57.9133 51.8202C58.3796 50.6952 58.8769 45.3985 57.7133 43.4189ZM56.7664 51.3436C56.224 52.6438 50.7666 53.414 50.4892 52.2587C50.4652 52.3486 50.4361 52.4371 50.4022 52.5237C49.8847 53.7162 45.6281 54.416 43.6199 54.0185C43.0526 53.9025 42.6634 53.7038 42.5889 53.4057V53.385C42.5116 53.7237 42.3353 54.0317 42.0824 54.2699C41.8295 54.5081 41.5114 54.6656 41.1686 54.7224C39.1834 55.0718 37.162 55.1692 35.1523 55.0122C34.7093 54.975 33.9805 54.7969 33.7694 54.3332C33.6244 54.0185 33.376 54.0185 33.2311 54.3332C33.0199 54.7969 32.2911 54.975 31.8481 55.0122C29.8385 55.1692 27.817 55.0718 25.8318 54.7224C25.489 54.6656 25.171 54.5081 24.918 54.2699C24.6651 54.0317 24.4888 53.7237 24.4115 53.385V53.4057C24.0596 54.7679 17.2607 54.0516 16.5982 52.5237C16.5643 52.4371 16.5352 52.3486 16.5112 52.2587C16.2338 53.414 10.7765 52.6438 10.234 51.3436C9.84068 50.3954 9.48044 45.5426 10.3583 44.0479C11.5425 42.0231 15.1614 43.1411 16.209 45.9898C16.222 46.0294 16.248 46.0635 16.2827 46.0866C16.3174 46.1097 16.3589 46.1204 16.4005 46.1171C16.442 46.1137 16.4813 46.0965 16.5119 46.0681C16.5425 46.0398 16.5627 46.002 16.5692 45.9608C16.6599 45.3152 16.844 44.6861 17.1158 44.0934C17.8321 42.7311 20.5773 42.7187 22.4282 44.0934C23.2853 44.7311 23.7201 45.8615 24.0886 46.9422C24.1006 46.9799 24.1254 47.0123 24.1588 47.0337C24.1922 47.0551 24.2321 47.0641 24.2714 47.0592C24.3107 47.0542 24.3471 47.0357 24.3742 47.0068C24.4013 46.9778 24.4175 46.9403 24.4198 46.9007C24.4488 46.495 24.4861 46.1016 24.5275 45.8573C25.2976 41.4061 31.9392 42.5779 32.9661 46.9877C33.053 47.3521 33.1276 47.7289 33.1938 48.1057C33.2058 48.1783 33.2432 48.2443 33.2993 48.2919C33.3554 48.3395 33.4266 48.3657 33.5002 48.3657C33.5738 48.3657 33.645 48.3395 33.7011 48.2919C33.7573 48.2443 33.7946 48.1783 33.8066 48.1057C33.8729 47.7289 33.9474 47.3521 34.0344 46.9877C35.0612 42.5779 41.7028 41.4061 42.4729 45.8573C42.4936 45.9732 42.5102 46.1265 42.5309 46.2962V46.3418C42.5516 46.5157 42.5682 46.7061 42.5806 46.9007C42.5829 46.9403 42.5991 46.9778 42.6262 47.0068C42.6533 47.0357 42.6897 47.0542 42.729 47.0592C42.7684 47.0641 42.8082 47.0551 42.8416 47.0337C42.875 47.0123 42.8998 46.9799 42.9119 46.9422C43.0071 46.6689 43.1023 46.3914 43.21 46.1223C43.4693 45.3338 43.9406 44.6319 44.5722 44.0934C46.4231 42.7187 49.1683 42.7311 49.8847 44.0934C50.1564 44.6861 50.3405 45.3152 50.4312 45.9608C50.4378 46.002 50.4579 46.0398 50.4885 46.0681C50.5191 46.0965 50.5584 46.1137 50.5999 46.1171C50.6415 46.1204 50.683 46.1097 50.7177 46.0866C50.7525 46.0635 50.7784 46.0294 50.7915 45.9898C51.839 43.1411 55.4579 42.0231 56.6422 44.0479C57.52 45.541 57.1597 50.3938 56.7664 51.342V51.3436Z"/>
</mask>
<path d="M32.1338 34.664C32.0074 34.6641 31.8841 34.6256 31.7801 34.5538C31.6762 34.4819 31.5966 34.3801 31.5521 34.2618C31.5075 34.1436 31.5001 34.0145 31.5308 33.892C31.5615 33.7694 31.6289 33.6591 31.7239 33.5758L32.4021 32.9812C32.7099 32.7118 33.1056 32.5642 33.5146 32.5664C33.9237 32.5685 34.3178 32.7202 34.6227 32.9928L35.2807 33.5799C35.3991 33.6909 35.4693 33.8438 35.4764 34.0058C35.4836 34.1679 35.427 34.3264 35.3188 34.4473C35.2106 34.5682 35.0594 34.642 34.8975 34.6528C34.7356 34.6637 34.5759 34.6108 34.4526 34.5054L33.7971 33.9178C33.7185 33.8475 33.6168 33.8083 33.5113 33.8078C33.4058 33.8073 33.3038 33.8454 33.2244 33.9149L32.5462 34.5095C32.4324 34.6099 32.2856 34.6648 32.1338 34.664ZM33.5002 38.6038C33.3355 38.6038 33.1775 38.5383 33.061 38.4218C32.9446 38.3054 32.8791 38.1474 32.8791 37.9827V35.326C32.8791 35.1613 32.9446 35.0033 33.061 34.8869C33.1775 34.7704 33.3355 34.705 33.5002 34.705C33.6649 34.705 33.8229 34.7704 33.9394 34.8869C34.0559 35.0033 34.1213 35.1613 34.1213 35.326V37.9827C34.1213 38.1474 34.0559 38.3054 33.9394 38.4218C33.8229 38.5383 33.6649 38.6038 33.5002 38.6038ZM57.3461 6.422C53.7437 2.61552 42.6162 5.43984 36.4496 8.11427C35.5183 8.51643 34.5146 8.72388 33.5002 8.72388C32.4858 8.72388 31.4821 8.51643 30.5508 8.11427C24.3842 5.43984 13.2575 2.61552 9.65435 6.422C6.97578 9.25294 6.80022 14.3331 9.20758 18.5689C9.13263 20.566 9.40591 22.7584 9.66304 23.3721C10.1827 24.6234 13.0687 25.2329 14.845 25.2329C15.0189 25.2329 15.1829 25.2271 15.3324 25.2155C15.6772 25.196 16.017 25.1242 16.3402 25.0026C17.3754 26.0817 20.179 26.538 22.0543 26.538C22.3093 26.538 22.547 26.5293 22.7611 26.5131C23.261 26.4902 23.7533 26.3822 24.2169 26.1939C24.5777 26.6839 25.1138 27.0156 25.7134 27.1197C27.1376 27.3755 28.5821 27.5012 30.0291 27.4953C30.6709 27.4953 31.3028 27.4709 31.8999 27.4216C32.4873 27.3858 33.048 27.1635 33.5002 26.7868C33.9522 27.1639 34.5127 27.3869 35.1001 27.4232C35.6976 27.4725 36.3291 27.4965 36.9713 27.4965C38.4183 27.5026 39.8628 27.377 41.2871 27.1214C41.8868 27.0168 42.423 26.6845 42.7835 26.1939C43.2474 26.3823 43.74 26.4903 44.2402 26.5131C44.4542 26.5293 44.6919 26.538 44.947 26.538C46.8231 26.538 49.6259 26.0825 50.661 25.0026C50.9843 25.1242 51.3241 25.196 51.6689 25.2155C51.8183 25.2271 51.9819 25.2329 52.1562 25.2329C53.9325 25.2329 56.8186 24.6234 57.3382 23.3721C57.5937 22.7568 57.867 20.5643 57.7937 18.5689C60.2002 14.3331 60.0246 9.25294 57.3461 6.422ZM12.6687 23.7298C11.4 23.4313 10.8667 23.0392 10.8075 22.8963C10.4469 22.0268 10.1628 17.398 10.8903 16.1504C11.3814 15.3111 12.364 15.3976 12.764 15.4738C13.4778 15.6382 14.1328 15.9954 14.6576 16.5065C15.1823 17.0176 15.5567 17.663 15.7398 18.3723C15.7887 18.5825 15.8003 18.7998 15.7742 19.0141C15.5993 20.6285 15.6211 22.2581 15.8392 23.8673C15.4334 24.0201 14.1966 24.09 12.67 23.7306L12.6687 23.7298ZM19.9927 25.1277C18.0702 24.8159 17.2598 24.278 17.1692 24.0669C16.7514 23.0963 16.7866 17.8427 17.666 16.1732C17.9973 15.5467 19.008 15.2933 20.1848 15.543C21.7798 15.8813 23.4455 17.1044 23.6857 19.0898C23.6993 19.2161 23.7006 19.3434 23.6894 19.4699C23.5757 21.2313 23.583 22.9984 23.7114 24.7588C23.7188 24.859 23.7374 24.953 23.7528 25.0486C23.3623 25.261 21.9417 25.4444 19.9939 25.1285L19.9927 25.1277ZM32.663 25.8668C32.422 26.0759 32.1125 26.189 31.7934 26.1844C29.8389 26.3364 27.873 26.2411 25.9423 25.9007C25.6566 25.8475 25.3992 25.694 25.2166 25.4678C25.0339 25.2417 24.938 24.9578 24.9461 24.6672C24.8753 23.7149 24.6803 20.3991 25.137 17.7524C25.2194 17.1057 25.5391 16.5126 26.0342 16.0884C26.5292 15.6641 27.1642 15.4389 27.816 15.4564C28.8504 15.4457 29.8589 15.7803 30.6818 16.4073C31.5046 17.0343 32.0949 17.9178 32.3591 18.918C33.0543 21.8777 32.9731 25.1952 32.6659 25.8676L32.663 25.8668ZM42.0473 24.666C42.0553 24.9565 41.9594 25.2404 41.7768 25.4664C41.5941 25.6925 41.3368 25.8459 41.0511 25.8991C39.1203 26.2399 37.1542 26.3352 35.1995 26.1827C34.8804 26.1873 34.5709 26.0741 34.33 25.8647C34.0232 25.1927 33.942 21.8752 34.6331 18.9176C34.8926 17.936 35.466 17.0662 36.2659 16.4409C37.0658 15.8156 38.0483 15.4692 39.0636 15.4544H39.1741C39.8258 15.4368 40.4608 15.662 40.9559 16.0863C41.4509 16.5105 41.7707 17.1036 41.8531 17.7503C42.316 20.3999 42.121 23.7149 42.0502 24.6685L42.0473 24.666ZM49.8267 24.0648C49.736 24.2764 48.9261 24.8142 47.0036 25.126C45.0575 25.4424 43.6356 25.2581 43.2452 25.0465C43.3784 23.1883 43.3992 21.3237 43.3077 19.4629C43.2972 19.3388 43.2986 19.214 43.3118 19.0902C43.5508 17.1027 45.2165 15.8792 46.8131 15.5405C47.9916 15.292 49.0031 15.5442 49.3319 16.1707C50.2126 17.8435 50.2478 23.0971 49.8296 24.0673L49.8267 24.0648ZM56.1908 22.8971C56.1316 23.04 55.5983 23.4321 54.3276 23.7306C52.7997 24.0909 51.5637 24.0205 51.1554 23.8698C51.3735 22.2606 51.3953 20.6309 51.2204 19.0165C51.1943 18.8022 51.2059 18.585 51.2548 18.3747C51.4379 17.6655 51.8123 17.0201 52.3371 16.509C52.8618 15.9979 53.5168 15.6407 54.2307 15.4763C54.6298 15.4005 55.6132 15.3132 56.1043 16.1525C56.8364 17.3988 56.5523 22.0288 56.1908 22.8971ZM57.1784 15.5239C56.561 14.4681 55.3743 13.9919 54.0004 14.2544C52.6771 14.5388 51.5173 15.329 50.7683 16.4564C50.6852 16.1589 50.5737 15.8701 50.4354 15.5939C49.835 14.4523 48.3125 13.9542 46.5589 14.3273C45.064 14.6368 43.7461 15.511 42.8796 16.7678C42.6127 16.0129 42.1159 15.3607 41.4591 14.9028C40.8023 14.4449 40.0186 14.2044 39.218 14.2151C37.9417 14.1949 36.6936 14.5907 35.6621 15.3425C34.6306 16.0944 33.8717 17.1615 33.5002 18.3826C33.1306 17.1606 32.3724 16.0925 31.3406 15.3406C30.3087 14.5888 29.0597 14.1942 27.7832 14.2167C26.9827 14.2061 26.1989 14.4466 25.5421 14.9045C24.8853 15.3624 24.3886 16.0146 24.1217 16.7694C23.2551 15.5126 21.9372 14.6385 20.4423 14.3289C18.6884 13.9563 17.1663 14.4532 16.5659 15.5956C16.4271 15.8711 16.315 16.1594 16.2313 16.4564C15.4823 15.329 14.3225 14.5388 12.9991 14.2544C11.6269 13.9931 10.4386 14.4681 9.8208 15.5243C9.68602 15.7671 9.58198 16.0256 9.51108 16.2941C8.25854 12.9625 8.61505 9.32996 10.557 7.27621C13.2414 4.43822 22.7694 6.09365 30.0569 9.25377C31.1441 9.72331 32.3159 9.96553 33.5002 9.96553C34.6845 9.96553 35.8563 9.72331 36.9436 9.25377C44.2311 6.09365 53.7595 4.43864 56.4434 7.27621C58.387 9.32996 58.7419 12.9625 57.4893 16.2941C57.4184 16.0255 57.3134 15.7667 57.1784 15.5239ZM57.7133 43.4189C57.4072 42.9024 56.9682 42.4774 56.4421 42.1882C55.9159 41.8989 55.3219 41.756 54.7217 41.7742C54.0141 41.7955 53.3175 41.956 52.6718 42.2465C52.0262 42.537 51.4441 42.9518 50.9587 43.4673C50.3844 42.4235 49.1808 41.8252 47.6462 41.8252C46.2724 41.8374 44.9373 42.2822 43.8307 43.0963C43.5321 43.3196 43.2643 43.5812 43.034 43.8744C42.6088 43.2149 42.0199 42.6771 41.3247 42.3133C40.6295 41.9496 39.8518 41.7724 39.0677 41.7991C37.9447 41.8217 36.8457 42.1275 35.8724 42.6881C34.8991 43.2487 34.0832 44.046 33.5002 45.006C32.917 44.0462 32.1009 43.2492 31.1275 42.6888C30.1542 42.1284 29.0552 41.8228 27.9323 41.8003C27.1485 41.7736 26.3712 41.9506 25.6763 42.3142C24.9814 42.6777 24.3927 43.2153 23.9677 43.8744C23.7369 43.5806 23.4686 43.3184 23.1698 43.0943C22.0628 42.2799 20.7275 41.835 19.3533 41.8227C17.8213 41.8227 16.6172 42.4206 16.0408 43.4653C15.5557 42.9496 14.9737 42.5346 14.3281 42.244C13.6825 41.9534 12.9859 41.793 12.2783 41.7718C11.6778 41.7537 11.0834 41.897 10.5571 42.1867C10.0308 42.4764 9.59183 42.9019 9.28583 43.4189C8.12356 45.3981 8.62085 50.6948 9.08667 51.8177C9.85186 53.652 13.5672 54.0644 14.8086 54.0644C15.2709 54.0717 15.7324 54.0218 16.1825 53.9158C17.9944 55.3489 21.9711 55.3683 22.0183 55.3683C22.6964 55.3871 23.3738 55.3098 24.0302 55.1385C24.4612 55.5538 25.0053 55.8325 25.5941 55.9397C27.0528 56.2012 28.5322 56.3302 30.0142 56.3252C30.6875 56.3252 31.3392 56.2991 31.9512 56.2482C32.4953 56.2047 33.0237 56.0444 33.5002 55.7782C33.9767 56.0444 34.5048 56.2048 35.0488 56.2486C35.662 56.2996 36.3138 56.3256 36.987 56.3256C38.4668 56.3307 39.9439 56.2021 41.4005 55.9414C41.9932 55.8341 42.5407 55.5535 42.974 55.1352C43.0993 55.1725 43.2318 55.2055 43.3715 55.2342C43.9009 55.3313 44.4385 55.3772 44.9768 55.3712C46.2434 55.3712 49.2938 55.0855 50.8072 53.9133C51.2607 54.0215 51.726 54.0724 52.1922 54.0649C53.4344 54.0649 57.149 53.6508 57.9133 51.8202C58.3796 50.6952 58.8769 45.3985 57.7133 43.4189ZM56.7664 51.3436C56.224 52.6438 50.7666 53.414 50.4892 52.2587C50.4652 52.3486 50.4361 52.4371 50.4022 52.5237C49.8847 53.7162 45.6281 54.416 43.6199 54.0185C43.0526 53.9025 42.6634 53.7038 42.5889 53.4057V53.385C42.5116 53.7237 42.3353 54.0317 42.0824 54.2699C41.8295 54.5081 41.5114 54.6656 41.1686 54.7224C39.1834 55.0718 37.162 55.1692 35.1523 55.0122C34.7093 54.975 33.9805 54.7969 33.7694 54.3332C33.6244 54.0185 33.376 54.0185 33.2311 54.3332C33.0199 54.7969 32.2911 54.975 31.8481 55.0122C29.8385 55.1692 27.817 55.0718 25.8318 54.7224C25.489 54.6656 25.171 54.5081 24.918 54.2699C24.6651 54.0317 24.4888 53.7237 24.4115 53.385V53.4057C24.0596 54.7679 17.2607 54.0516 16.5982 52.5237C16.5643 52.4371 16.5352 52.3486 16.5112 52.2587C16.2338 53.414 10.7765 52.6438 10.234 51.3436C9.84068 50.3954 9.48044 45.5426 10.3583 44.0479C11.5425 42.0231 15.1614 43.1411 16.209 45.9898C16.222 46.0294 16.248 46.0635 16.2827 46.0866C16.3174 46.1097 16.3589 46.1204 16.4005 46.1171C16.442 46.1137 16.4813 46.0965 16.5119 46.0681C16.5425 46.0398 16.5627 46.002 16.5692 45.9608C16.6599 45.3152 16.844 44.6861 17.1158 44.0934C17.8321 42.7311 20.5773 42.7187 22.4282 44.0934C23.2853 44.7311 23.7201 45.8615 24.0886 46.9422C24.1006 46.9799 24.1254 47.0123 24.1588 47.0337C24.1922 47.0551 24.2321 47.0641 24.2714 47.0592C24.3107 47.0542 24.3471 47.0357 24.3742 47.0068C24.4013 46.9778 24.4175 46.9403 24.4198 46.9007C24.4488 46.495 24.4861 46.1016 24.5275 45.8573C25.2976 41.4061 31.9392 42.5779 32.9661 46.9877C33.053 47.3521 33.1276 47.7289 33.1938 48.1057C33.2058 48.1783 33.2432 48.2443 33.2993 48.2919C33.3554 48.3395 33.4266 48.3657 33.5002 48.3657C33.5738 48.3657 33.645 48.3395 33.7011 48.2919C33.7573 48.2443 33.7946 48.1783 33.8066 48.1057C33.8729 47.7289 33.9474 47.3521 34.0344 46.9877C35.0612 42.5779 41.7028 41.4061 42.4729 45.8573C42.4936 45.9732 42.5102 46.1265 42.5309 46.2962V46.3418C42.5516 46.5157 42.5682 46.7061 42.5806 46.9007C42.5829 46.9403 42.5991 46.9778 42.6262 47.0068C42.6533 47.0357 42.6897 47.0542 42.729 47.0592C42.7684 47.0641 42.8082 47.0551 42.8416 47.0337C42.875 47.0123 42.8998 46.9799 42.9119 46.9422C43.0071 46.6689 43.1023 46.3914 43.21 46.1223C43.4693 45.3338 43.9406 44.6319 44.5722 44.0934C46.4231 42.7187 49.1683 42.7311 49.8847 44.0934C50.1564 44.6861 50.3405 45.3152 50.4312 45.9608C50.4378 46.002 50.4579 46.0398 50.4885 46.0681C50.5191 46.0965 50.5584 46.1137 50.5999 46.1171C50.6415 46.1204 50.683 46.1097 50.7177 46.0866C50.7525 46.0635 50.7784 46.0294 50.7915 45.9898C51.839 43.1411 55.4579 42.0231 56.6422 44.0479C57.52 45.541 57.1597 50.3938 56.7664 51.342V51.3436Z" fill="#27A324" fill-opacity="0.5"/>
<path d="M32.1338 34.664C32.0074 34.6641 31.8841 34.6256 31.7801 34.5538C31.6762 34.4819 31.5966 34.3801 31.5521 34.2618C31.5075 34.1436 31.5001 34.0145 31.5308 33.892C31.5615 33.7694 31.6289 33.6591 31.7239 33.5758L32.4021 32.9812C32.7099 32.7118 33.1056 32.5642 33.5146 32.5664C33.9237 32.5685 34.3178 32.7202 34.6227 32.9928L35.2807 33.5799C35.3991 33.6909 35.4693 33.8438 35.4764 34.0058C35.4836 34.1679 35.427 34.3264 35.3188 34.4473C35.2106 34.5682 35.0594 34.642 34.8975 34.6528C34.7356 34.6637 34.5759 34.6108 34.4526 34.5054L33.7971 33.9178C33.7185 33.8475 33.6168 33.8083 33.5113 33.8078C33.4058 33.8073 33.3038 33.8454 33.2244 33.9149L32.5462 34.5095C32.4324 34.6099 32.2856 34.6648 32.1338 34.664ZM33.5002 38.6038C33.3355 38.6038 33.1775 38.5383 33.061 38.4218C32.9446 38.3054 32.8791 38.1474 32.8791 37.9827V35.326C32.8791 35.1613 32.9446 35.0033 33.061 34.8869C33.1775 34.7704 33.3355 34.705 33.5002 34.705C33.6649 34.705 33.8229 34.7704 33.9394 34.8869C34.0559 35.0033 34.1213 35.1613 34.1213 35.326V37.9827C34.1213 38.1474 34.0559 38.3054 33.9394 38.4218C33.8229 38.5383 33.6649 38.6038 33.5002 38.6038ZM57.3461 6.422C53.7437 2.61552 42.6162 5.43984 36.4496 8.11427C35.5183 8.51643 34.5146 8.72388 33.5002 8.72388C32.4858 8.72388 31.4821 8.51643 30.5508 8.11427C24.3842 5.43984 13.2575 2.61552 9.65435 6.422C6.97578 9.25294 6.80022 14.3331 9.20758 18.5689C9.13263 20.566 9.40591 22.7584 9.66304 23.3721C10.1827 24.6234 13.0687 25.2329 14.845 25.2329C15.0189 25.2329 15.1829 25.2271 15.3324 25.2155C15.6772 25.196 16.017 25.1242 16.3402 25.0026C17.3754 26.0817 20.179 26.538 22.0543 26.538C22.3093 26.538 22.547 26.5293 22.7611 26.5131C23.261 26.4902 23.7533 26.3822 24.2169 26.1939C24.5777 26.6839 25.1138 27.0156 25.7134 27.1197C27.1376 27.3755 28.5821 27.5012 30.0291 27.4953C30.6709 27.4953 31.3028 27.4709 31.8999 27.4216C32.4873 27.3858 33.048 27.1635 33.5002 26.7868C33.9522 27.1639 34.5127 27.3869 35.1001 27.4232C35.6976 27.4725 36.3291 27.4965 36.9713 27.4965C38.4183 27.5026 39.8628 27.377 41.2871 27.1214C41.8868 27.0168 42.423 26.6845 42.7835 26.1939C43.2474 26.3823 43.74 26.4903 44.2402 26.5131C44.4542 26.5293 44.6919 26.538 44.947 26.538C46.8231 26.538 49.6259 26.0825 50.661 25.0026C50.9843 25.1242 51.3241 25.196 51.6689 25.2155C51.8183 25.2271 51.9819 25.2329 52.1562 25.2329C53.9325 25.2329 56.8186 24.6234 57.3382 23.3721C57.5937 22.7568 57.867 20.5643 57.7937 18.5689C60.2002 14.3331 60.0246 9.25294 57.3461 6.422ZM12.6687 23.7298C11.4 23.4313 10.8667 23.0392 10.8075 22.8963C10.4469 22.0268 10.1628 17.398 10.8903 16.1504C11.3814 15.3111 12.364 15.3976 12.764 15.4738C13.4778 15.6382 14.1328 15.9954 14.6576 16.5065C15.1823 17.0176 15.5567 17.663 15.7398 18.3723C15.7887 18.5825 15.8003 18.7998 15.7742 19.0141C15.5993 20.6285 15.6211 22.2581 15.8392 23.8673C15.4334 24.0201 14.1966 24.09 12.67 23.7306L12.6687 23.7298ZM19.9927 25.1277C18.0702 24.8159 17.2598 24.278 17.1692 24.0669C16.7514 23.0963 16.7866 17.8427 17.666 16.1732C17.9973 15.5467 19.008 15.2933 20.1848 15.543C21.7798 15.8813 23.4455 17.1044 23.6857 19.0898C23.6993 19.2161 23.7006 19.3434 23.6894 19.4699C23.5757 21.2313 23.583 22.9984 23.7114 24.7588C23.7188 24.859 23.7374 24.953 23.7528 25.0486C23.3623 25.261 21.9417 25.4444 19.9939 25.1285L19.9927 25.1277ZM32.663 25.8668C32.422 26.0759 32.1125 26.189 31.7934 26.1844C29.8389 26.3364 27.873 26.2411 25.9423 25.9007C25.6566 25.8475 25.3992 25.694 25.2166 25.4678C25.0339 25.2417 24.938 24.9578 24.9461 24.6672C24.8753 23.7149 24.6803 20.3991 25.137 17.7524C25.2194 17.1057 25.5391 16.5126 26.0342 16.0884C26.5292 15.6641 27.1642 15.4389 27.816 15.4564C28.8504 15.4457 29.8589 15.7803 30.6818 16.4073C31.5046 17.0343 32.0949 17.9178 32.3591 18.918C33.0543 21.8777 32.9731 25.1952 32.6659 25.8676L32.663 25.8668ZM42.0473 24.666C42.0553 24.9565 41.9594 25.2404 41.7768 25.4664C41.5941 25.6925 41.3368 25.8459 41.0511 25.8991C39.1203 26.2399 37.1542 26.3352 35.1995 26.1827C34.8804 26.1873 34.5709 26.0741 34.33 25.8647C34.0232 25.1927 33.942 21.8752 34.6331 18.9176C34.8926 17.936 35.466 17.0662 36.2659 16.4409C37.0658 15.8156 38.0483 15.4692 39.0636 15.4544H39.1741C39.8258 15.4368 40.4608 15.662 40.9559 16.0863C41.4509 16.5105 41.7707 17.1036 41.8531 17.7503C42.316 20.3999 42.121 23.7149 42.0502 24.6685L42.0473 24.666ZM49.8267 24.0648C49.736 24.2764 48.9261 24.8142 47.0036 25.126C45.0575 25.4424 43.6356 25.2581 43.2452 25.0465C43.3784 23.1883 43.3992 21.3237 43.3077 19.4629C43.2972 19.3388 43.2986 19.214 43.3118 19.0902C43.5508 17.1027 45.2165 15.8792 46.8131 15.5405C47.9916 15.292 49.0031 15.5442 49.3319 16.1707C50.2126 17.8435 50.2478 23.0971 49.8296 24.0673L49.8267 24.0648ZM56.1908 22.8971C56.1316 23.04 55.5983 23.4321 54.3276 23.7306C52.7997 24.0909 51.5637 24.0205 51.1554 23.8698C51.3735 22.2606 51.3953 20.6309 51.2204 19.0165C51.1943 18.8022 51.2059 18.585 51.2548 18.3747C51.4379 17.6655 51.8123 17.0201 52.3371 16.509C52.8618 15.9979 53.5168 15.6407 54.2307 15.4763C54.6298 15.4005 55.6132 15.3132 56.1043 16.1525C56.8364 17.3988 56.5523 22.0288 56.1908 22.8971ZM57.1784 15.5239C56.561 14.4681 55.3743 13.9919 54.0004 14.2544C52.6771 14.5388 51.5173 15.329 50.7683 16.4564C50.6852 16.1589 50.5737 15.8701 50.4354 15.5939C49.835 14.4523 48.3125 13.9542 46.5589 14.3273C45.064 14.6368 43.7461 15.511 42.8796 16.7678C42.6127 16.0129 42.1159 15.3607 41.4591 14.9028C40.8023 14.4449 40.0186 14.2044 39.218 14.2151C37.9417 14.1949 36.6936 14.5907 35.6621 15.3425C34.6306 16.0944 33.8717 17.1615 33.5002 18.3826C33.1306 17.1606 32.3724 16.0925 31.3406 15.3406C30.3087 14.5888 29.0597 14.1942 27.7832 14.2167C26.9827 14.2061 26.1989 14.4466 25.5421 14.9045C24.8853 15.3624 24.3886 16.0146 24.1217 16.7694C23.2551 15.5126 21.9372 14.6385 20.4423 14.3289C18.6884 13.9563 17.1663 14.4532 16.5659 15.5956C16.4271 15.8711 16.315 16.1594 16.2313 16.4564C15.4823 15.329 14.3225 14.5388 12.9991 14.2544C11.6269 13.9931 10.4386 14.4681 9.8208 15.5243C9.68602 15.7671 9.58198 16.0256 9.51108 16.2941C8.25854 12.9625 8.61505 9.32996 10.557 7.27621C13.2414 4.43822 22.7694 6.09365 30.0569 9.25377C31.1441 9.72331 32.3159 9.96553 33.5002 9.96553C34.6845 9.96553 35.8563 9.72331 36.9436 9.25377C44.2311 6.09365 53.7595 4.43864 56.4434 7.27621C58.387 9.32996 58.7419 12.9625 57.4893 16.2941C57.4184 16.0255 57.3134 15.7667 57.1784 15.5239ZM57.7133 43.4189C57.4072 42.9024 56.9682 42.4774 56.4421 42.1882C55.9159 41.8989 55.3219 41.756 54.7217 41.7742C54.0141 41.7955 53.3175 41.956 52.6718 42.2465C52.0262 42.537 51.4441 42.9518 50.9587 43.4673C50.3844 42.4235 49.1808 41.8252 47.6462 41.8252C46.2724 41.8374 44.9373 42.2822 43.8307 43.0963C43.5321 43.3196 43.2643 43.5812 43.034 43.8744C42.6088 43.2149 42.0199 42.6771 41.3247 42.3133C40.6295 41.9496 39.8518 41.7724 39.0677 41.7991C37.9447 41.8217 36.8457 42.1275 35.8724 42.6881C34.8991 43.2487 34.0832 44.046 33.5002 45.006C32.917 44.0462 32.1009 43.2492 31.1275 42.6888C30.1542 42.1284 29.0552 41.8228 27.9323 41.8003C27.1485 41.7736 26.3712 41.9506 25.6763 42.3142C24.9814 42.6777 24.3927 43.2153 23.9677 43.8744C23.7369 43.5806 23.4686 43.3184 23.1698 43.0943C22.0628 42.2799 20.7275 41.835 19.3533 41.8227C17.8213 41.8227 16.6172 42.4206 16.0408 43.4653C15.5557 42.9496 14.9737 42.5346 14.3281 42.244C13.6825 41.9534 12.9859 41.793 12.2783 41.7718C11.6778 41.7537 11.0834 41.897 10.5571 42.1867C10.0308 42.4764 9.59183 42.9019 9.28583 43.4189C8.12356 45.3981 8.62085 50.6948 9.08667 51.8177C9.85186 53.652 13.5672 54.0644 14.8086 54.0644C15.2709 54.0717 15.7324 54.0218 16.1825 53.9158C17.9944 55.3489 21.9711 55.3683 22.0183 55.3683C22.6964 55.3871 23.3738 55.3098 24.0302 55.1385C24.4612 55.5538 25.0053 55.8325 25.5941 55.9397C27.0528 56.2012 28.5322 56.3302 30.0142 56.3252C30.6875 56.3252 31.3392 56.2991 31.9512 56.2482C32.4953 56.2047 33.0237 56.0444 33.5002 55.7782C33.9767 56.0444 34.5048 56.2048 35.0488 56.2486C35.662 56.2996 36.3138 56.3256 36.987 56.3256C38.4668 56.3307 39.9439 56.2021 41.4005 55.9414C41.9932 55.8341 42.5407 55.5535 42.974 55.1352C43.0993 55.1725 43.2318 55.2055 43.3715 55.2342C43.9009 55.3313 44.4385 55.3772 44.9768 55.3712C46.2434 55.3712 49.2938 55.0855 50.8072 53.9133C51.2607 54.0215 51.726 54.0724 52.1922 54.0649C53.4344 54.0649 57.149 53.6508 57.9133 51.8202C58.3796 50.6952 58.8769 45.3985 57.7133 43.4189ZM56.7664 51.3436C56.224 52.6438 50.7666 53.414 50.4892 52.2587C50.4652 52.3486 50.4361 52.4371 50.4022 52.5237C49.8847 53.7162 45.6281 54.416 43.6199 54.0185C43.0526 53.9025 42.6634 53.7038 42.5889 53.4057V53.385C42.5116 53.7237 42.3353 54.0317 42.0824 54.2699C41.8295 54.5081 41.5114 54.6656 41.1686 54.7224C39.1834 55.0718 37.162 55.1692 35.1523 55.0122C34.7093 54.975 33.9805 54.7969 33.7694 54.3332C33.6244 54.0185 33.376 54.0185 33.2311 54.3332C33.0199 54.7969 32.2911 54.975 31.8481 55.0122C29.8385 55.1692 27.817 55.0718 25.8318 54.7224C25.489 54.6656 25.171 54.5081 24.918 54.2699C24.6651 54.0317 24.4888 53.7237 24.4115 53.385V53.4057C24.0596 54.7679 17.2607 54.0516 16.5982 52.5237C16.5643 52.4371 16.5352 52.3486 16.5112 52.2587C16.2338 53.414 10.7765 52.6438 10.234 51.3436C9.84068 50.3954 9.48044 45.5426 10.3583 44.0479C11.5425 42.0231 15.1614 43.1411 16.209 45.9898C16.222 46.0294 16.248 46.0635 16.2827 46.0866C16.3174 46.1097 16.3589 46.1204 16.4005 46.1171C16.442 46.1137 16.4813 46.0965 16.5119 46.0681C16.5425 46.0398 16.5627 46.002 16.5692 45.9608C16.6599 45.3152 16.844 44.6861 17.1158 44.0934C17.8321 42.7311 20.5773 42.7187 22.4282 44.0934C23.2853 44.7311 23.7201 45.8615 24.0886 46.9422C24.1006 46.9799 24.1254 47.0123 24.1588 47.0337C24.1922 47.0551 24.2321 47.0641 24.2714 47.0592C24.3107 47.0542 24.3471 47.0357 24.3742 47.0068C24.4013 46.9778 24.4175 46.9403 24.4198 46.9007C24.4488 46.495 24.4861 46.1016 24.5275 45.8573C25.2976 41.4061 31.9392 42.5779 32.9661 46.9877C33.053 47.3521 33.1276 47.7289 33.1938 48.1057C33.2058 48.1783 33.2432 48.2443 33.2993 48.2919C33.3554 48.3395 33.4266 48.3657 33.5002 48.3657C33.5738 48.3657 33.645 48.3395 33.7011 48.2919C33.7573 48.2443 33.7946 48.1783 33.8066 48.1057C33.8729 47.7289 33.9474 47.3521 34.0344 46.9877C35.0612 42.5779 41.7028 41.4061 42.4729 45.8573C42.4936 45.9732 42.5102 46.1265 42.5309 46.2962V46.3418C42.5516 46.5157 42.5682 46.7061 42.5806 46.9007C42.5829 46.9403 42.5991 46.9778 42.6262 47.0068C42.6533 47.0357 42.6897 47.0542 42.729 47.0592C42.7684 47.0641 42.8082 47.0551 42.8416 47.0337C42.875 47.0123 42.8998 46.9799 42.9119 46.9422C43.0071 46.6689 43.1023 46.3914 43.21 46.1223C43.4693 45.3338 43.9406 44.6319 44.5722 44.0934C46.4231 42.7187 49.1683 42.7311 49.8847 44.0934C50.1564 44.6861 50.3405 45.3152 50.4312 45.9608C50.4378 46.002 50.4579 46.0398 50.4885 46.0681C50.5191 46.0965 50.5584 46.1137 50.5999 46.1171C50.6415 46.1204 50.683 46.1097 50.7177 46.0866C50.7525 46.0635 50.7784 46.0294 50.7915 45.9898C51.839 43.1411 55.4579 42.0231 56.6422 44.0479C57.52 45.541 57.1597 50.3938 56.7664 51.342V51.3436Z" stroke="#27A324" stroke-opacity="0.5" mask="url(#path-1-outside-1_1_167)"/>
</g>
<defs>
<clipPath id="clip0_1_167">
<rect width="53" height="53" fill="white" transform="translate(7 4)"/>
</clipPath>
</defs>
</svg>
