<svg width="60" height="60" viewBox="0 0 60 60" fill="none" xmlns="http://www.w3.org/2000/svg">
<g clip-path="url(#clip0_1_183)">
<path d="M28.8333 12.6867C24.33 12.6867 20.6667 9.02337 20.6667 4.52003C20.6667 3.9717 20.7203 3.45137 20.83 2.92637C20.8639 2.76392 20.9321 2.61058 21.0299 2.47658C21.1278 2.34258 21.2532 2.231 21.3976 2.14929C21.542 2.06758 21.7022 2.01762 21.8675 2.00274C22.0328 1.98787 22.1993 2.00842 22.356 2.06303C23.3523 2.41303 24.2833 2.80737 25.2003 3.26703C27.648 4.47803 30.021 4.4757 32.4687 3.2647C33.3833 2.80737 34.312 2.41303 35.3083 2.06537C35.4647 2.01027 35.631 1.98947 35.7961 2.00436C35.9611 2.01926 36.1211 2.06951 36.265 2.1517C36.559 2.31503 36.7667 2.5997 36.8343 2.9287C36.9463 3.45137 37 3.9717 37 4.52003C37 9.02337 33.3367 12.6867 28.8333 12.6867ZM23.007 4.8187C23.1633 7.89637 25.716 10.3534 28.8333 10.3534C31.9507 10.3534 34.5033 7.89637 34.6597 4.8187C34.27 4.98437 33.8897 5.1617 33.5093 5.35303C30.4083 6.89303 27.263 6.8907 24.162 5.35537C23.7822 5.16558 23.397 4.98662 23.007 4.8187ZM38.05 58C36.9358 57.9937 35.8583 57.6004 35.002 56.8875C34.1456 56.1746 33.5636 55.1863 33.3553 54.0917L31.372 43.349C31.1457 42.103 30.0793 41.2 28.8333 41.2C27.5873 41.2 26.521 42.103 26.2947 43.3444L24.309 54.0824C24.1032 55.1785 23.5224 56.1689 22.6663 56.8837C21.8101 57.5985 20.732 57.9932 19.6167 58C18.4322 57.9992 17.2907 57.5562 16.4158 56.7577C15.5409 55.9592 14.9957 54.8628 14.887 53.6834L14.1193 46.3614C13.8243 43.715 13.2766 41.103 12.4837 38.561L10.9717 33.7824C9.66645 29.6929 9.00137 25.4261 9 21.1334C9 17.0174 12.318 13.6667 16.3967 13.6667C17.5937 13.6667 18.681 13.7857 19.7683 14.019C20.0226 14.0747 20.2511 14.2134 20.418 14.4132C20.5848 14.613 20.6805 14.8626 20.69 15.1227C20.8323 19.5397 24.4093 23 28.8333 23C33.2573 23 36.8343 19.5397 36.9767 15.1227C36.9862 14.8626 37.0819 14.613 37.2487 14.4132C37.4155 14.2134 37.6441 14.0747 37.8983 14.019C38.988 13.7857 40.073 13.6667 41.13 13.6667C43.2673 13.6667 45.1317 14.446 46.5153 15.86C47.9013 17.2764 48.6667 19.15 48.6667 21.1334C48.6667 25.4127 48.004 29.671 46.6973 33.7824L45.183 38.5634C44.3905 41.1069 43.8436 43.7205 43.5497 46.3684L42.782 53.688C42.6711 54.8667 42.1248 55.9616 41.2497 56.759C40.3747 57.5564 39.2338 57.9989 38.05 58ZM28.8333 38.8667C29.9876 38.8697 31.104 39.2781 31.9877 40.0207C32.8714 40.7632 33.4662 41.7926 33.668 42.929L35.649 53.66C35.8753 54.8174 36.8833 55.6667 38.05 55.6667C39.296 55.6667 40.3343 54.7147 40.4603 53.45L41.228 46.1164C41.543 43.2954 42.124 40.521 42.9547 37.8634L44.4713 33.0777C45.7057 29.1927 46.3333 25.1747 46.3333 21.1334C46.3333 19.7824 45.792 18.457 44.847 17.4934C44.3816 17.017 43.825 16.6392 43.2105 16.3827C42.5959 16.1261 41.936 15.996 41.27 16C40.5513 16 39.8863 16.049 39.2377 16.147C38.603 21.369 34.2023 25.3334 28.8333 25.3334C23.4643 25.3334 19.0637 21.369 18.429 16.147C17.8029 16.0502 17.1703 16.0011 16.5367 16C13.606 16 11.3333 18.303 11.3333 21.1334C11.3333 25.1747 11.961 29.1927 13.193 33.0777L14.7073 37.861C15.5403 40.521 16.1213 43.2954 16.4363 46.1094L17.204 53.4454C17.3323 54.7147 18.3707 55.6667 19.6167 55.6667C20.7833 55.6667 21.7937 54.8174 22.0177 53.6484L24.001 42.9244C24.2029 41.7888 24.7975 40.7602 25.6808 40.0185C26.5641 39.2768 27.6799 38.8691 28.8333 38.8667Z" fill="#27A324" fill-opacity="0.5"/>
</g>
<defs>
<clipPath id="clip0_1_183">
<rect width="56" height="56" fill="white" transform="translate(2 2)"/>
</clipPath>
</defs>
</svg>
