<svg width="60" height="60" viewBox="0 0 60 60" fill="none" xmlns="http://www.w3.org/2000/svg">
<mask id="path-1-outside-1_1_199" maskUnits="userSpaceOnUse" x="28.8555" y="4.58691" width="26" height="48" fill="black">
<rect fill="white" x="28.8555" y="4.58691" width="26" height="48"/>
<path d="M30.5 52.0558C30.3291 52.0558 30.1651 51.9879 30.0442 51.867C29.9234 51.7462 29.8555 51.5822 29.8555 51.4113V49.6925C29.8555 49.5216 29.9234 49.3577 30.0442 49.2368C30.1651 49.1159 30.3291 49.048 30.5 49.048C30.6709 49.048 30.8349 49.1159 30.9558 49.2368C31.0766 49.3577 31.1445 49.5216 31.1445 49.6925V51.4113C31.1445 51.5822 31.0766 51.7462 30.9558 51.867C30.8349 51.9879 30.6709 52.0558 30.5 52.0558ZM30.5 48.6183C30.3291 48.6183 30.1651 48.5504 30.0442 48.4295C29.9234 48.3087 29.8555 48.1447 29.8555 47.9738V46.255C29.8555 46.0841 29.9234 45.9202 30.0442 45.7993C30.1651 45.6784 30.3291 45.6105 30.5 45.6105C30.6709 45.6105 30.8349 45.6784 30.9558 45.7993C31.0766 45.9202 31.1445 46.0841 31.1445 46.255V47.9738C31.1445 48.1447 31.0766 48.3087 30.9558 48.4295C30.8349 48.5504 30.6709 48.6183 30.5 48.6183ZM30.5 45.1808C30.3291 45.1808 30.1651 45.1129 30.0442 44.992C29.9234 44.8712 29.8555 44.7072 29.8555 44.5363V42.8175C29.8555 42.6466 29.9234 42.4827 30.0442 42.3618C30.1651 42.2409 30.3291 42.173 30.5 42.173C30.6709 42.173 30.8349 42.2409 30.9558 42.3618C31.0766 42.4827 31.1445 42.6466 31.1445 42.8175V44.5363C31.1445 44.7072 31.0766 44.8712 30.9558 44.992C30.8349 45.1129 30.6709 45.1808 30.5 45.1808ZM30.5 41.7433C30.3291 41.7433 30.1651 41.6754 30.0442 41.5545C29.9234 41.4337 29.8555 41.2697 29.8555 41.0988V39.38C29.8555 39.2091 29.9234 39.0452 30.0442 38.9243C30.1651 38.8034 30.3291 38.7355 30.5 38.7355C30.6709 38.7355 30.8349 38.8034 30.9558 38.9243C31.0766 39.0452 31.1445 39.2091 31.1445 39.38V41.0988C31.1445 41.2697 31.0766 41.4337 30.9558 41.5545C30.8349 41.6754 30.6709 41.7433 30.5 41.7433ZM30.5 38.3058C30.3291 38.3058 30.1651 38.2379 30.0442 38.117C29.9234 37.9962 29.8555 37.8322 29.8555 37.6613V35.9425C29.8555 35.7716 29.9234 35.6077 30.0442 35.4868C30.1651 35.3659 30.3291 35.298 30.5 35.298C30.6709 35.298 30.8349 35.3659 30.9558 35.4868C31.0766 35.6077 31.1445 35.7716 31.1445 35.9425V37.6613C31.1445 37.8322 31.0766 37.9962 30.9558 38.117C30.8349 38.2379 30.6709 38.3058 30.5 38.3058ZM30.5 34.8683C30.3291 34.8683 30.1651 34.8004 30.0442 34.6795C29.9234 34.5587 29.8555 34.3947 29.8555 34.2238V32.505C29.8555 32.3341 29.9234 32.1702 30.0442 32.0493C30.1651 31.9284 30.3291 31.8605 30.5 31.8605C30.6709 31.8605 30.8349 31.9284 30.9558 32.0493C31.0766 32.1702 31.1445 32.3341 31.1445 32.505V34.2238C31.1445 34.3947 31.0766 34.5587 30.9558 34.6795C30.8349 34.8004 30.6709 34.8683 30.5 34.8683ZM30.5 31.4308C30.3291 31.4308 30.1651 31.3629 30.0442 31.242C29.9234 31.1212 29.8555 30.9572 29.8555 30.7863V29.0675C29.8555 28.8966 29.9234 28.7327 30.0442 28.6118C30.1651 28.4909 30.3291 28.423 30.5 28.423C30.6709 28.423 30.8349 28.4909 30.9558 28.6118C31.0766 28.7327 31.1445 28.8966 31.1445 29.0675V30.7863C31.1445 30.9572 31.0766 31.1212 30.9558 31.242C30.8349 31.3629 30.6709 31.4308 30.5 31.4308ZM30.5 27.9933C30.3291 27.9933 30.1651 27.9254 30.0442 27.8045C29.9234 27.6837 29.8555 27.5197 29.8555 27.3488V25.63C29.8555 25.4591 29.9234 25.2952 30.0442 25.1743C30.1651 25.0534 30.3291 24.9855 30.5 24.9855C30.6709 24.9855 30.8349 25.0534 30.9558 25.1743C31.0766 25.2952 31.1445 25.4591 31.1445 25.63V27.3488C31.1445 27.5197 31.0766 27.6837 30.9558 27.8045C30.8349 27.9254 30.6709 27.9933 30.5 27.9933ZM30.5 24.5558C30.3291 24.5558 30.1651 24.4879 30.0442 24.367C29.9234 24.2462 29.8555 24.0822 29.8555 23.9113V22.1925C29.8555 22.0216 29.9234 21.8577 30.0442 21.7368C30.1651 21.6159 30.3291 21.548 30.5 21.548C30.6709 21.548 30.8349 21.6159 30.9558 21.7368C31.0766 21.8577 31.1445 22.0216 31.1445 22.1925V23.9113C31.1445 24.0822 31.0766 24.2462 30.9558 24.367C30.8349 24.4879 30.6709 24.5558 30.5 24.5558ZM30.5 21.1183C30.3291 21.1183 30.1651 21.0504 30.0442 20.9295C29.9234 20.8087 29.8555 20.6447 29.8555 20.4738V18.755C29.8555 18.5841 29.9234 18.4202 30.0442 18.2993C30.1651 18.1784 30.3291 18.1105 30.5 18.1105C30.6709 18.1105 30.8349 18.1784 30.9558 18.2993C31.0766 18.4202 31.1445 18.5841 31.1445 18.755V20.4738C31.1445 20.6447 31.0766 20.8087 30.9558 20.9295C30.8349 21.0504 30.6709 21.1183 30.5 21.1183ZM30.5 17.6808C30.3291 17.6808 30.1651 17.6129 30.0442 17.492C29.9234 17.3712 29.8555 17.2072 29.8555 17.0363V15.3175C29.8555 15.1466 29.9234 14.9827 30.0442 14.8618C30.1651 14.7409 30.3291 14.673 30.5 14.673C30.6709 14.673 30.8349 14.7409 30.9558 14.8618C31.0766 14.9827 31.1445 15.1466 31.1445 15.3175V17.0363C31.1445 17.2072 31.0766 17.3712 30.9558 17.492C30.8349 17.6129 30.6709 17.6808 30.5 17.6808ZM30.5 14.2433C30.3291 14.2433 30.1651 14.1754 30.0442 14.0545C29.9234 13.9337 29.8555 13.7697 29.8555 13.5988V11.88C29.8555 11.7091 29.9234 11.5452 30.0442 11.4243C30.1651 11.3034 30.3291 11.2355 30.5 11.2355C30.6709 11.2355 30.8349 11.3034 30.9558 11.4243C31.0766 11.5452 31.1445 11.7091 31.1445 11.88V13.5988C31.1445 13.7697 31.0766 13.9337 30.9558 14.0545C30.8349 14.1754 30.6709 14.2433 30.5 14.2433ZM46.3164 8.50699L45.2224 7.90843C44.9153 7.7412 44.663 7.48891 44.4958 7.18183L43.8972 6.08784C43.8141 5.93619 43.6918 5.80968 43.543 5.72155C43.3943 5.63342 43.2245 5.58691 43.0516 5.58691C42.8787 5.58691 42.7089 5.63342 42.5602 5.72155C42.4114 5.80968 42.2891 5.93619 42.206 6.08784L41.6074 7.18226C41.44 7.48916 41.1877 7.74139 40.8808 7.90886L39.7855 8.50741C39.634 8.59053 39.5076 8.71286 39.4195 8.86159C39.3315 9.01032 39.285 9.17998 39.285 9.35282C39.285 9.52567 39.3315 9.69533 39.4195 9.84406C39.5076 9.99279 39.634 10.1151 39.7855 10.1982L40.88 10.7968C41.1869 10.9643 41.4391 11.2165 41.6066 11.5234L42.2051 12.6182C42.2883 12.7699 42.4106 12.8964 42.5595 12.9845C42.7083 13.0726 42.878 13.1191 43.051 13.1191C43.2239 13.1191 43.3937 13.0726 43.5425 12.9845C43.6913 12.8964 43.8137 12.7699 43.8968 12.6182L44.4949 11.5234C44.6625 11.2167 44.9147 10.9646 45.2215 10.7972L46.3155 10.1991C46.4673 10.116 46.5939 9.9937 46.6821 9.84488C46.7703 9.69606 46.8168 9.52625 46.8168 9.35325C46.8168 9.18026 46.7703 9.01045 46.6821 8.86163C46.5939 8.71281 46.4673 8.59046 46.3155 8.50741L46.3164 8.50699ZM44.6036 9.66714C44.0804 9.95275 43.6502 10.3828 43.3644 10.9059L43.0516 11.4787L42.7384 10.9059C42.4531 10.3823 42.0232 9.95182 41.5 9.66585L40.9272 9.35261L41.5 9.0398C42.0232 8.75407 42.4532 8.3239 42.7388 7.80058L43.052 7.22781L43.3648 7.80015C43.6504 8.3237 44.0806 8.75404 44.6041 9.0398L45.1764 9.35261L44.6036 9.66714ZM53.0053 13.3642L52.1287 12.8846C51.9044 12.7621 51.72 12.5776 51.5977 12.3531L51.1181 11.477C51.0406 11.3352 50.9264 11.2168 50.7874 11.1344C50.6484 11.0519 50.4898 11.0084 50.3281 11.0084C50.1665 11.0084 50.0079 11.0519 49.8689 11.1344C49.7299 11.2168 49.6157 11.3352 49.5382 11.477L49.0591 12.3527C48.9365 12.5772 48.752 12.7619 48.5275 12.8846L47.6514 13.3637C47.5102 13.4417 47.3924 13.5561 47.3104 13.6951C47.2284 13.834 47.1851 13.9924 47.1851 14.1537C47.1851 14.3151 47.2284 14.4734 47.3104 14.6124C47.3924 14.7513 47.5102 14.8657 47.6514 14.9437L48.528 15.4232C48.7523 15.5457 48.9366 15.73 49.0591 15.9543L49.5386 16.8305C49.6166 16.9717 49.731 17.0895 49.8699 17.1715C50.0089 17.2535 50.1672 17.2967 50.3286 17.2967C50.4899 17.2967 50.6483 17.2535 50.7872 17.1715C50.9262 17.0895 51.0406 16.9717 51.1186 16.8305L51.5981 15.9539C51.7203 15.7294 51.9047 15.545 52.1292 15.4228L53.0053 14.9433C53.1472 14.8658 53.2655 14.7517 53.348 14.6127C53.4305 14.4737 53.474 14.3151 53.474 14.1535C53.474 13.9919 53.4305 13.8333 53.348 13.6943C53.2655 13.5554 53.1472 13.4416 53.0053 13.3642ZM51.51 14.2923C51.0694 14.5329 50.7071 14.895 50.4663 15.3356L50.3284 15.5887L50.1896 15.3351C49.9488 14.8948 49.5867 14.5329 49.1463 14.2923L48.8932 14.1539L49.1463 14.0156C49.5867 13.7745 49.9489 13.4123 50.19 12.9719L50.3284 12.7188L50.4663 12.9714C50.7068 13.4124 51.0692 13.7748 51.51 14.0156L51.7631 14.1535L51.51 14.2923Z"/>
</mask>
<path d="M30.5 52.0558C30.3291 52.0558 30.1651 51.9879 30.0442 51.867C29.9234 51.7462 29.8555 51.5822 29.8555 51.4113V49.6925C29.8555 49.5216 29.9234 49.3577 30.0442 49.2368C30.1651 49.1159 30.3291 49.048 30.5 49.048C30.6709 49.048 30.8349 49.1159 30.9558 49.2368C31.0766 49.3577 31.1445 49.5216 31.1445 49.6925V51.4113C31.1445 51.5822 31.0766 51.7462 30.9558 51.867C30.8349 51.9879 30.6709 52.0558 30.5 52.0558ZM30.5 48.6183C30.3291 48.6183 30.1651 48.5504 30.0442 48.4295C29.9234 48.3087 29.8555 48.1447 29.8555 47.9738V46.255C29.8555 46.0841 29.9234 45.9202 30.0442 45.7993C30.1651 45.6784 30.3291 45.6105 30.5 45.6105C30.6709 45.6105 30.8349 45.6784 30.9558 45.7993C31.0766 45.9202 31.1445 46.0841 31.1445 46.255V47.9738C31.1445 48.1447 31.0766 48.3087 30.9558 48.4295C30.8349 48.5504 30.6709 48.6183 30.5 48.6183ZM30.5 45.1808C30.3291 45.1808 30.1651 45.1129 30.0442 44.992C29.9234 44.8712 29.8555 44.7072 29.8555 44.5363V42.8175C29.8555 42.6466 29.9234 42.4827 30.0442 42.3618C30.1651 42.2409 30.3291 42.173 30.5 42.173C30.6709 42.173 30.8349 42.2409 30.9558 42.3618C31.0766 42.4827 31.1445 42.6466 31.1445 42.8175V44.5363C31.1445 44.7072 31.0766 44.8712 30.9558 44.992C30.8349 45.1129 30.6709 45.1808 30.5 45.1808ZM30.5 41.7433C30.3291 41.7433 30.1651 41.6754 30.0442 41.5545C29.9234 41.4337 29.8555 41.2697 29.8555 41.0988V39.38C29.8555 39.2091 29.9234 39.0452 30.0442 38.9243C30.1651 38.8034 30.3291 38.7355 30.5 38.7355C30.6709 38.7355 30.8349 38.8034 30.9558 38.9243C31.0766 39.0452 31.1445 39.2091 31.1445 39.38V41.0988C31.1445 41.2697 31.0766 41.4337 30.9558 41.5545C30.8349 41.6754 30.6709 41.7433 30.5 41.7433ZM30.5 38.3058C30.3291 38.3058 30.1651 38.2379 30.0442 38.117C29.9234 37.9962 29.8555 37.8322 29.8555 37.6613V35.9425C29.8555 35.7716 29.9234 35.6077 30.0442 35.4868C30.1651 35.3659 30.3291 35.298 30.5 35.298C30.6709 35.298 30.8349 35.3659 30.9558 35.4868C31.0766 35.6077 31.1445 35.7716 31.1445 35.9425V37.6613C31.1445 37.8322 31.0766 37.9962 30.9558 38.117C30.8349 38.2379 30.6709 38.3058 30.5 38.3058ZM30.5 34.8683C30.3291 34.8683 30.1651 34.8004 30.0442 34.6795C29.9234 34.5587 29.8555 34.3947 29.8555 34.2238V32.505C29.8555 32.3341 29.9234 32.1702 30.0442 32.0493C30.1651 31.9284 30.3291 31.8605 30.5 31.8605C30.6709 31.8605 30.8349 31.9284 30.9558 32.0493C31.0766 32.1702 31.1445 32.3341 31.1445 32.505V34.2238C31.1445 34.3947 31.0766 34.5587 30.9558 34.6795C30.8349 34.8004 30.6709 34.8683 30.5 34.8683ZM30.5 31.4308C30.3291 31.4308 30.1651 31.3629 30.0442 31.242C29.9234 31.1212 29.8555 30.9572 29.8555 30.7863V29.0675C29.8555 28.8966 29.9234 28.7327 30.0442 28.6118C30.1651 28.4909 30.3291 28.423 30.5 28.423C30.6709 28.423 30.8349 28.4909 30.9558 28.6118C31.0766 28.7327 31.1445 28.8966 31.1445 29.0675V30.7863C31.1445 30.9572 31.0766 31.1212 30.9558 31.242C30.8349 31.3629 30.6709 31.4308 30.5 31.4308ZM30.5 27.9933C30.3291 27.9933 30.1651 27.9254 30.0442 27.8045C29.9234 27.6837 29.8555 27.5197 29.8555 27.3488V25.63C29.8555 25.4591 29.9234 25.2952 30.0442 25.1743C30.1651 25.0534 30.3291 24.9855 30.5 24.9855C30.6709 24.9855 30.8349 25.0534 30.9558 25.1743C31.0766 25.2952 31.1445 25.4591 31.1445 25.63V27.3488C31.1445 27.5197 31.0766 27.6837 30.9558 27.8045C30.8349 27.9254 30.6709 27.9933 30.5 27.9933ZM30.5 24.5558C30.3291 24.5558 30.1651 24.4879 30.0442 24.367C29.9234 24.2462 29.8555 24.0822 29.8555 23.9113V22.1925C29.8555 22.0216 29.9234 21.8577 30.0442 21.7368C30.1651 21.6159 30.3291 21.548 30.5 21.548C30.6709 21.548 30.8349 21.6159 30.9558 21.7368C31.0766 21.8577 31.1445 22.0216 31.1445 22.1925V23.9113C31.1445 24.0822 31.0766 24.2462 30.9558 24.367C30.8349 24.4879 30.6709 24.5558 30.5 24.5558ZM30.5 21.1183C30.3291 21.1183 30.1651 21.0504 30.0442 20.9295C29.9234 20.8087 29.8555 20.6447 29.8555 20.4738V18.755C29.8555 18.5841 29.9234 18.4202 30.0442 18.2993C30.1651 18.1784 30.3291 18.1105 30.5 18.1105C30.6709 18.1105 30.8349 18.1784 30.9558 18.2993C31.0766 18.4202 31.1445 18.5841 31.1445 18.755V20.4738C31.1445 20.6447 31.0766 20.8087 30.9558 20.9295C30.8349 21.0504 30.6709 21.1183 30.5 21.1183ZM30.5 17.6808C30.3291 17.6808 30.1651 17.6129 30.0442 17.492C29.9234 17.3712 29.8555 17.2072 29.8555 17.0363V15.3175C29.8555 15.1466 29.9234 14.9827 30.0442 14.8618C30.1651 14.7409 30.3291 14.673 30.5 14.673C30.6709 14.673 30.8349 14.7409 30.9558 14.8618C31.0766 14.9827 31.1445 15.1466 31.1445 15.3175V17.0363C31.1445 17.2072 31.0766 17.3712 30.9558 17.492C30.8349 17.6129 30.6709 17.6808 30.5 17.6808ZM30.5 14.2433C30.3291 14.2433 30.1651 14.1754 30.0442 14.0545C29.9234 13.9337 29.8555 13.7697 29.8555 13.5988V11.88C29.8555 11.7091 29.9234 11.5452 30.0442 11.4243C30.1651 11.3034 30.3291 11.2355 30.5 11.2355C30.6709 11.2355 30.8349 11.3034 30.9558 11.4243C31.0766 11.5452 31.1445 11.7091 31.1445 11.88V13.5988C31.1445 13.7697 31.0766 13.9337 30.9558 14.0545C30.8349 14.1754 30.6709 14.2433 30.5 14.2433ZM46.3164 8.50699L45.2224 7.90843C44.9153 7.7412 44.663 7.48891 44.4958 7.18183L43.8972 6.08784C43.8141 5.93619 43.6918 5.80968 43.543 5.72155C43.3943 5.63342 43.2245 5.58691 43.0516 5.58691C42.8787 5.58691 42.7089 5.63342 42.5602 5.72155C42.4114 5.80968 42.2891 5.93619 42.206 6.08784L41.6074 7.18226C41.44 7.48916 41.1877 7.74139 40.8808 7.90886L39.7855 8.50741C39.634 8.59053 39.5076 8.71286 39.4195 8.86159C39.3315 9.01032 39.285 9.17998 39.285 9.35282C39.285 9.52567 39.3315 9.69533 39.4195 9.84406C39.5076 9.99279 39.634 10.1151 39.7855 10.1982L40.88 10.7968C41.1869 10.9643 41.4391 11.2165 41.6066 11.5234L42.2051 12.6182C42.2883 12.7699 42.4106 12.8964 42.5595 12.9845C42.7083 13.0726 42.878 13.1191 43.051 13.1191C43.2239 13.1191 43.3937 13.0726 43.5425 12.9845C43.6913 12.8964 43.8137 12.7699 43.8968 12.6182L44.4949 11.5234C44.6625 11.2167 44.9147 10.9646 45.2215 10.7972L46.3155 10.1991C46.4673 10.116 46.5939 9.9937 46.6821 9.84488C46.7703 9.69606 46.8168 9.52625 46.8168 9.35325C46.8168 9.18026 46.7703 9.01045 46.6821 8.86163C46.5939 8.71281 46.4673 8.59046 46.3155 8.50741L46.3164 8.50699ZM44.6036 9.66714C44.0804 9.95275 43.6502 10.3828 43.3644 10.9059L43.0516 11.4787L42.7384 10.9059C42.4531 10.3823 42.0232 9.95182 41.5 9.66585L40.9272 9.35261L41.5 9.0398C42.0232 8.75407 42.4532 8.3239 42.7388 7.80058L43.052 7.22781L43.3648 7.80015C43.6504 8.3237 44.0806 8.75404 44.6041 9.0398L45.1764 9.35261L44.6036 9.66714ZM53.0053 13.3642L52.1287 12.8846C51.9044 12.7621 51.72 12.5776 51.5977 12.3531L51.1181 11.477C51.0406 11.3352 50.9264 11.2168 50.7874 11.1344C50.6484 11.0519 50.4898 11.0084 50.3281 11.0084C50.1665 11.0084 50.0079 11.0519 49.8689 11.1344C49.7299 11.2168 49.6157 11.3352 49.5382 11.477L49.0591 12.3527C48.9365 12.5772 48.752 12.7619 48.5275 12.8846L47.6514 13.3637C47.5102 13.4417 47.3924 13.5561 47.3104 13.6951C47.2284 13.834 47.1851 13.9924 47.1851 14.1537C47.1851 14.3151 47.2284 14.4734 47.3104 14.6124C47.3924 14.7513 47.5102 14.8657 47.6514 14.9437L48.528 15.4232C48.7523 15.5457 48.9366 15.73 49.0591 15.9543L49.5386 16.8305C49.6166 16.9717 49.731 17.0895 49.8699 17.1715C50.0089 17.2535 50.1672 17.2967 50.3286 17.2967C50.4899 17.2967 50.6483 17.2535 50.7872 17.1715C50.9262 17.0895 51.0406 16.9717 51.1186 16.8305L51.5981 15.9539C51.7203 15.7294 51.9047 15.545 52.1292 15.4228L53.0053 14.9433C53.1472 14.8658 53.2655 14.7517 53.348 14.6127C53.4305 14.4737 53.474 14.3151 53.474 14.1535C53.474 13.9919 53.4305 13.8333 53.348 13.6943C53.2655 13.5554 53.1472 13.4416 53.0053 13.3642ZM51.51 14.2923C51.0694 14.5329 50.7071 14.895 50.4663 15.3356L50.3284 15.5887L50.1896 15.3351C49.9488 14.8948 49.5867 14.5329 49.1463 14.2923L48.8932 14.1539L49.1463 14.0156C49.5867 13.7745 49.9489 13.4123 50.19 12.9719L50.3284 12.7188L50.4663 12.9714C50.7068 13.4124 51.0692 13.7748 51.51 14.0156L51.7631 14.1535L51.51 14.2923Z" fill="#27A324" fill-opacity="0.5"/>
<path d="M30.5 52.0558C30.3291 52.0558 30.1651 51.9879 30.0442 51.867C29.9234 51.7462 29.8555 51.5822 29.8555 51.4113V49.6925C29.8555 49.5216 29.9234 49.3577 30.0442 49.2368C30.1651 49.1159 30.3291 49.048 30.5 49.048C30.6709 49.048 30.8349 49.1159 30.9558 49.2368C31.0766 49.3577 31.1445 49.5216 31.1445 49.6925V51.4113C31.1445 51.5822 31.0766 51.7462 30.9558 51.867C30.8349 51.9879 30.6709 52.0558 30.5 52.0558ZM30.5 48.6183C30.3291 48.6183 30.1651 48.5504 30.0442 48.4295C29.9234 48.3087 29.8555 48.1447 29.8555 47.9738V46.255C29.8555 46.0841 29.9234 45.9202 30.0442 45.7993C30.1651 45.6784 30.3291 45.6105 30.5 45.6105C30.6709 45.6105 30.8349 45.6784 30.9558 45.7993C31.0766 45.9202 31.1445 46.0841 31.1445 46.255V47.9738C31.1445 48.1447 31.0766 48.3087 30.9558 48.4295C30.8349 48.5504 30.6709 48.6183 30.5 48.6183ZM30.5 45.1808C30.3291 45.1808 30.1651 45.1129 30.0442 44.992C29.9234 44.8712 29.8555 44.7072 29.8555 44.5363V42.8175C29.8555 42.6466 29.9234 42.4827 30.0442 42.3618C30.1651 42.2409 30.3291 42.173 30.5 42.173C30.6709 42.173 30.8349 42.2409 30.9558 42.3618C31.0766 42.4827 31.1445 42.6466 31.1445 42.8175V44.5363C31.1445 44.7072 31.0766 44.8712 30.9558 44.992C30.8349 45.1129 30.6709 45.1808 30.5 45.1808ZM30.5 41.7433C30.3291 41.7433 30.1651 41.6754 30.0442 41.5545C29.9234 41.4337 29.8555 41.2697 29.8555 41.0988V39.38C29.8555 39.2091 29.9234 39.0452 30.0442 38.9243C30.1651 38.8034 30.3291 38.7355 30.5 38.7355C30.6709 38.7355 30.8349 38.8034 30.9558 38.9243C31.0766 39.0452 31.1445 39.2091 31.1445 39.38V41.0988C31.1445 41.2697 31.0766 41.4337 30.9558 41.5545C30.8349 41.6754 30.6709 41.7433 30.5 41.7433ZM30.5 38.3058C30.3291 38.3058 30.1651 38.2379 30.0442 38.117C29.9234 37.9962 29.8555 37.8322 29.8555 37.6613V35.9425C29.8555 35.7716 29.9234 35.6077 30.0442 35.4868C30.1651 35.3659 30.3291 35.298 30.5 35.298C30.6709 35.298 30.8349 35.3659 30.9558 35.4868C31.0766 35.6077 31.1445 35.7716 31.1445 35.9425V37.6613C31.1445 37.8322 31.0766 37.9962 30.9558 38.117C30.8349 38.2379 30.6709 38.3058 30.5 38.3058ZM30.5 34.8683C30.3291 34.8683 30.1651 34.8004 30.0442 34.6795C29.9234 34.5587 29.8555 34.3947 29.8555 34.2238V32.505C29.8555 32.3341 29.9234 32.1702 30.0442 32.0493C30.1651 31.9284 30.3291 31.8605 30.5 31.8605C30.6709 31.8605 30.8349 31.9284 30.9558 32.0493C31.0766 32.1702 31.1445 32.3341 31.1445 32.505V34.2238C31.1445 34.3947 31.0766 34.5587 30.9558 34.6795C30.8349 34.8004 30.6709 34.8683 30.5 34.8683ZM30.5 31.4308C30.3291 31.4308 30.1651 31.3629 30.0442 31.242C29.9234 31.1212 29.8555 30.9572 29.8555 30.7863V29.0675C29.8555 28.8966 29.9234 28.7327 30.0442 28.6118C30.1651 28.4909 30.3291 28.423 30.5 28.423C30.6709 28.423 30.8349 28.4909 30.9558 28.6118C31.0766 28.7327 31.1445 28.8966 31.1445 29.0675V30.7863C31.1445 30.9572 31.0766 31.1212 30.9558 31.242C30.8349 31.3629 30.6709 31.4308 30.5 31.4308ZM30.5 27.9933C30.3291 27.9933 30.1651 27.9254 30.0442 27.8045C29.9234 27.6837 29.8555 27.5197 29.8555 27.3488V25.63C29.8555 25.4591 29.9234 25.2952 30.0442 25.1743C30.1651 25.0534 30.3291 24.9855 30.5 24.9855C30.6709 24.9855 30.8349 25.0534 30.9558 25.1743C31.0766 25.2952 31.1445 25.4591 31.1445 25.63V27.3488C31.1445 27.5197 31.0766 27.6837 30.9558 27.8045C30.8349 27.9254 30.6709 27.9933 30.5 27.9933ZM30.5 24.5558C30.3291 24.5558 30.1651 24.4879 30.0442 24.367C29.9234 24.2462 29.8555 24.0822 29.8555 23.9113V22.1925C29.8555 22.0216 29.9234 21.8577 30.0442 21.7368C30.1651 21.6159 30.3291 21.548 30.5 21.548C30.6709 21.548 30.8349 21.6159 30.9558 21.7368C31.0766 21.8577 31.1445 22.0216 31.1445 22.1925V23.9113C31.1445 24.0822 31.0766 24.2462 30.9558 24.367C30.8349 24.4879 30.6709 24.5558 30.5 24.5558ZM30.5 21.1183C30.3291 21.1183 30.1651 21.0504 30.0442 20.9295C29.9234 20.8087 29.8555 20.6447 29.8555 20.4738V18.755C29.8555 18.5841 29.9234 18.4202 30.0442 18.2993C30.1651 18.1784 30.3291 18.1105 30.5 18.1105C30.6709 18.1105 30.8349 18.1784 30.9558 18.2993C31.0766 18.4202 31.1445 18.5841 31.1445 18.755V20.4738C31.1445 20.6447 31.0766 20.8087 30.9558 20.9295C30.8349 21.0504 30.6709 21.1183 30.5 21.1183ZM30.5 17.6808C30.3291 17.6808 30.1651 17.6129 30.0442 17.492C29.9234 17.3712 29.8555 17.2072 29.8555 17.0363V15.3175C29.8555 15.1466 29.9234 14.9827 30.0442 14.8618C30.1651 14.7409 30.3291 14.673 30.5 14.673C30.6709 14.673 30.8349 14.7409 30.9558 14.8618C31.0766 14.9827 31.1445 15.1466 31.1445 15.3175V17.0363C31.1445 17.2072 31.0766 17.3712 30.9558 17.492C30.8349 17.6129 30.6709 17.6808 30.5 17.6808ZM30.5 14.2433C30.3291 14.2433 30.1651 14.1754 30.0442 14.0545C29.9234 13.9337 29.8555 13.7697 29.8555 13.5988V11.88C29.8555 11.7091 29.9234 11.5452 30.0442 11.4243C30.1651 11.3034 30.3291 11.2355 30.5 11.2355C30.6709 11.2355 30.8349 11.3034 30.9558 11.4243C31.0766 11.5452 31.1445 11.7091 31.1445 11.88V13.5988C31.1445 13.7697 31.0766 13.9337 30.9558 14.0545C30.8349 14.1754 30.6709 14.2433 30.5 14.2433ZM46.3164 8.50699L45.2224 7.90843C44.9153 7.7412 44.663 7.48891 44.4958 7.18183L43.8972 6.08784C43.8141 5.93619 43.6918 5.80968 43.543 5.72155C43.3943 5.63342 43.2245 5.58691 43.0516 5.58691C42.8787 5.58691 42.7089 5.63342 42.5602 5.72155C42.4114 5.80968 42.2891 5.93619 42.206 6.08784L41.6074 7.18226C41.44 7.48916 41.1877 7.74139 40.8808 7.90886L39.7855 8.50741C39.634 8.59053 39.5076 8.71286 39.4195 8.86159C39.3315 9.01032 39.285 9.17998 39.285 9.35282C39.285 9.52567 39.3315 9.69533 39.4195 9.84406C39.5076 9.99279 39.634 10.1151 39.7855 10.1982L40.88 10.7968C41.1869 10.9643 41.4391 11.2165 41.6066 11.5234L42.2051 12.6182C42.2883 12.7699 42.4106 12.8964 42.5595 12.9845C42.7083 13.0726 42.878 13.1191 43.051 13.1191C43.2239 13.1191 43.3937 13.0726 43.5425 12.9845C43.6913 12.8964 43.8137 12.7699 43.8968 12.6182L44.4949 11.5234C44.6625 11.2167 44.9147 10.9646 45.2215 10.7972L46.3155 10.1991C46.4673 10.116 46.5939 9.9937 46.6821 9.84488C46.7703 9.69606 46.8168 9.52625 46.8168 9.35325C46.8168 9.18026 46.7703 9.01045 46.6821 8.86163C46.5939 8.71281 46.4673 8.59046 46.3155 8.50741L46.3164 8.50699ZM44.6036 9.66714C44.0804 9.95275 43.6502 10.3828 43.3644 10.9059L43.0516 11.4787L42.7384 10.9059C42.4531 10.3823 42.0232 9.95182 41.5 9.66585L40.9272 9.35261L41.5 9.0398C42.0232 8.75407 42.4532 8.3239 42.7388 7.80058L43.052 7.22781L43.3648 7.80015C43.6504 8.3237 44.0806 8.75404 44.6041 9.0398L45.1764 9.35261L44.6036 9.66714ZM53.0053 13.3642L52.1287 12.8846C51.9044 12.7621 51.72 12.5776 51.5977 12.3531L51.1181 11.477C51.0406 11.3352 50.9264 11.2168 50.7874 11.1344C50.6484 11.0519 50.4898 11.0084 50.3281 11.0084C50.1665 11.0084 50.0079 11.0519 49.8689 11.1344C49.7299 11.2168 49.6157 11.3352 49.5382 11.477L49.0591 12.3527C48.9365 12.5772 48.752 12.7619 48.5275 12.8846L47.6514 13.3637C47.5102 13.4417 47.3924 13.5561 47.3104 13.6951C47.2284 13.834 47.1851 13.9924 47.1851 14.1537C47.1851 14.3151 47.2284 14.4734 47.3104 14.6124C47.3924 14.7513 47.5102 14.8657 47.6514 14.9437L48.528 15.4232C48.7523 15.5457 48.9366 15.73 49.0591 15.9543L49.5386 16.8305C49.6166 16.9717 49.731 17.0895 49.8699 17.1715C50.0089 17.2535 50.1672 17.2967 50.3286 17.2967C50.4899 17.2967 50.6483 17.2535 50.7872 17.1715C50.9262 17.0895 51.0406 16.9717 51.1186 16.8305L51.5981 15.9539C51.7203 15.7294 51.9047 15.545 52.1292 15.4228L53.0053 14.9433C53.1472 14.8658 53.2655 14.7517 53.348 14.6127C53.4305 14.4737 53.474 14.3151 53.474 14.1535C53.474 13.9919 53.4305 13.8333 53.348 13.6943C53.2655 13.5554 53.1472 13.4416 53.0053 13.3642ZM51.51 14.2923C51.0694 14.5329 50.7071 14.895 50.4663 15.3356L50.3284 15.5887L50.1896 15.3351C49.9488 14.8948 49.5867 14.5329 49.1463 14.2923L48.8932 14.1539L49.1463 14.0156C49.5867 13.7745 49.9489 13.4123 50.19 12.9719L50.3284 12.7188L50.4663 12.9714C50.7068 13.4124 51.0692 13.7748 51.51 14.0156L51.7631 14.1535L51.51 14.2923Z" stroke="#27A324" stroke-opacity="0.5" mask="url(#path-1-outside-1_1_199)"/>
<mask id="path-2-outside-2_1_199" maskUnits="userSpaceOnUse" x="2.53613" y="17.6045" width="56" height="26" fill="black">
<rect fill="white" x="2.53613" y="17.6045" width="56" height="26"/>
<path d="M55.246 20.525C51.5077 16.5749 39.9603 19.5058 33.5609 22.2812C32.5945 22.6985 31.5529 22.9138 30.5003 22.9138C29.4476 22.9138 28.406 22.6985 27.4396 22.2812C21.0403 19.5058 9.49369 16.5749 5.75455 20.525C2.9749 23.4628 2.79271 28.7346 5.29092 33.1304C5.21314 35.2027 5.49674 37.4779 5.76357 38.1147C6.30283 39.4132 9.29775 40.0457 11.1411 40.0457C11.3216 40.0457 11.4917 40.0397 11.6469 40.0277C12.0046 40.0075 12.3573 39.933 12.6927 39.8068C13.7669 40.9266 16.6763 41.4001 18.6224 41.4001C18.8871 41.4001 19.1337 41.3911 19.3559 41.3743C19.875 41.3508 20.3862 41.2388 20.8675 41.043C21.2419 41.5515 21.7983 41.8957 22.4204 42.0038C23.8984 42.2692 25.3974 42.3997 26.899 42.3936C27.5651 42.3936 28.2208 42.3682 28.8404 42.3171C29.4497 42.2798 30.0312 42.049 30.5003 41.6584C30.9693 42.0497 31.5509 42.281 32.1606 42.3188C32.7806 42.3699 33.4359 42.3948 34.1023 42.3948C35.6039 42.4011 37.103 42.2708 38.581 42.0055C39.2031 41.8974 39.7594 41.5532 40.1338 41.0448C40.6152 41.2405 41.1264 41.3525 41.6455 41.3761C41.8676 41.3928 42.1143 41.4018 42.379 41.4018C44.3259 41.4018 47.2344 40.9292 48.3087 39.8086C48.6441 39.9347 48.9967 40.0092 49.3545 40.0294C49.5096 40.0414 49.6794 40.0475 49.8603 40.0475C51.7036 40.0475 54.6985 39.415 55.2378 38.1164C55.5029 37.4779 55.7865 35.2027 55.7104 33.1321C58.2078 28.7346 58.0256 23.4628 55.246 20.525ZM8.88267 38.486C7.56611 38.1762 7.01267 37.7693 6.95123 37.621C6.57697 36.7187 6.28221 31.9152 7.03717 30.6205C7.54678 29.7496 8.56643 29.8394 8.9815 29.9184C9.72229 30.089 10.402 30.4597 10.9466 30.9901C11.4911 31.5205 11.8796 32.1902 12.0697 32.9263C12.122 33.1446 12.1355 33.3705 12.1096 33.5936C11.9282 35.2689 11.9508 36.9601 12.1771 38.6299C11.7517 38.7872 10.4682 38.8598 8.88396 38.4868L8.88267 38.486ZM16.483 39.9366C14.4879 39.613 13.647 39.0549 13.5529 38.8357C13.1194 37.8286 13.1559 32.3767 14.0686 30.6442C14.4123 29.9941 15.4612 29.7311 16.6824 29.9902C18.3375 30.3412 20.0662 31.6105 20.3154 33.6713C20.3295 33.8024 20.3308 33.9345 20.3192 34.0658C20.2012 35.8935 20.2088 37.7271 20.342 39.5537C20.3497 39.6577 20.3691 39.7553 20.385 39.8545C19.9798 40.075 18.5055 40.2653 16.4843 39.9375L16.483 39.9366ZM29.6314 40.7036C29.3814 40.9206 29.0602 41.038 28.7291 41.0332C26.7008 41.1909 24.6607 41.092 22.6572 40.7388C22.3606 40.6837 22.0935 40.5244 21.9039 40.2897C21.7144 40.055 21.6149 39.7603 21.6233 39.4588C21.5499 38.4705 21.3475 35.0296 21.8214 32.283C21.9069 31.6119 22.2388 30.9964 22.7525 30.5562C23.2662 30.1159 23.9252 29.8822 24.6015 29.9004C25.675 29.8893 26.7215 30.2365 27.5754 30.8871C28.4294 31.5378 29.0419 32.4546 29.316 33.4926C30.0375 36.564 29.9533 40.0066 29.6344 40.7045L29.6314 40.7036ZM39.3699 39.4575C39.3782 39.759 39.2787 40.0535 39.0891 40.2881C38.8996 40.5227 38.6325 40.6819 38.336 40.7371C36.3324 41.0907 34.2921 41.1896 32.2637 41.0314C31.9326 41.0362 31.6113 40.9187 31.3613 40.7014C31.0429 40.0041 30.9587 36.5614 31.6759 33.4921C31.9452 32.4735 32.5402 31.5709 33.3703 30.922C34.2004 30.2731 35.22 29.9136 36.2735 29.8982H36.3883C37.0646 29.88 37.7236 30.1137 38.2373 30.554C38.751 30.9943 39.0828 31.6097 39.1683 32.2809C39.6487 35.0304 39.4463 38.4705 39.3729 39.4601L39.3699 39.4575ZM47.4458 38.8357C47.3517 39.0553 46.5113 39.6135 44.5162 39.937C42.4967 40.2653 41.0212 40.0741 40.616 39.8545C40.7542 37.9262 40.7758 35.9912 40.6808 34.0602C40.67 33.9314 40.6714 33.802 40.6851 33.6735C40.9331 31.611 42.6617 30.3412 44.3186 29.9898C45.5415 29.732 46.5912 29.9936 46.9324 30.6437C47.8433 32.3775 47.8798 37.8294 47.4458 38.8357ZM54.0471 37.6219C53.9857 37.7701 53.4322 38.177 52.1135 38.4868C50.528 38.8607 49.2454 38.7876 48.8217 38.6312C49.0487 36.961 49.0719 35.2694 48.8909 33.5936C48.8637 33.3712 48.8758 33.1458 48.9265 32.9275C49.1166 32.1915 49.5051 31.5218 50.0496 30.9914C50.5942 30.461 51.2739 30.0903 52.0147 29.9197C52.4289 29.8411 53.4494 29.7504 53.959 30.6214C54.717 31.9178 54.4222 36.7208 54.0471 37.6219ZM55.0719 29.9704C54.4313 28.8747 53.1998 28.3806 51.7741 28.653C50.4008 28.9481 49.1972 29.7681 48.4199 30.9381C48.333 30.6299 48.2168 30.3308 48.0728 30.0448C47.4497 28.8601 45.8697 28.3432 44.05 28.7304C42.4987 29.0516 41.1311 29.9587 40.2318 31.2629C39.9547 30.4797 39.4392 29.8029 38.7577 29.3278C38.0761 28.8526 37.2628 28.603 36.4321 28.6139C35.1082 28.5933 33.8135 29.0039 32.7434 29.7837C31.6734 30.5636 30.886 31.6704 30.5003 32.937C30.1167 31.6688 29.3299 30.5605 28.2591 29.7802C27.1884 29 25.8922 28.5905 24.5676 28.6139C23.7368 28.603 22.9235 28.8526 22.242 29.3278C21.5604 29.8029 21.0449 30.4797 20.7678 31.2629C19.8685 29.9587 18.5009 29.0516 16.9496 28.7304C15.1295 28.3436 13.5499 28.8593 12.9269 30.0448C12.7829 30.3308 12.6666 30.6299 12.5797 30.9381C11.8026 29.7678 10.599 28.9475 9.22557 28.6521C7.80158 28.381 6.56838 28.8739 5.92728 29.97C5.78742 30.2219 5.67945 30.4902 5.60588 30.7688C4.30607 27.3124 4.67603 23.5427 6.69127 21.4115C9.47693 18.4664 19.3645 20.1843 26.927 23.4637C28.0552 23.9509 29.2713 24.2023 30.5003 24.2023C31.7292 24.2023 32.9453 23.9509 34.0735 23.4637C41.636 20.1843 51.524 18.4668 54.3092 21.4115C56.3262 23.5427 56.6944 27.3124 55.3946 30.7696C55.321 30.4909 55.2129 30.2224 55.0728 29.9704H55.0719Z"/>
</mask>
<path d="M55.246 20.525C51.5077 16.5749 39.9603 19.5058 33.5609 22.2812C32.5945 22.6985 31.5529 22.9138 30.5003 22.9138C29.4476 22.9138 28.406 22.6985 27.4396 22.2812C21.0403 19.5058 9.49369 16.5749 5.75455 20.525C2.9749 23.4628 2.79271 28.7346 5.29092 33.1304C5.21314 35.2027 5.49674 37.4779 5.76357 38.1147C6.30283 39.4132 9.29775 40.0457 11.1411 40.0457C11.3216 40.0457 11.4917 40.0397 11.6469 40.0277C12.0046 40.0075 12.3573 39.933 12.6927 39.8068C13.7669 40.9266 16.6763 41.4001 18.6224 41.4001C18.8871 41.4001 19.1337 41.3911 19.3559 41.3743C19.875 41.3508 20.3862 41.2388 20.8675 41.043C21.2419 41.5515 21.7983 41.8957 22.4204 42.0038C23.8984 42.2692 25.3974 42.3997 26.899 42.3936C27.5651 42.3936 28.2208 42.3682 28.8404 42.3171C29.4497 42.2798 30.0312 42.049 30.5003 41.6584C30.9693 42.0497 31.5509 42.281 32.1606 42.3188C32.7806 42.3699 33.4359 42.3948 34.1023 42.3948C35.6039 42.4011 37.103 42.2708 38.581 42.0055C39.2031 41.8974 39.7594 41.5532 40.1338 41.0448C40.6152 41.2405 41.1264 41.3525 41.6455 41.3761C41.8676 41.3928 42.1143 41.4018 42.379 41.4018C44.3259 41.4018 47.2344 40.9292 48.3087 39.8086C48.6441 39.9347 48.9967 40.0092 49.3545 40.0294C49.5096 40.0414 49.6794 40.0475 49.8603 40.0475C51.7036 40.0475 54.6985 39.415 55.2378 38.1164C55.5029 37.4779 55.7865 35.2027 55.7104 33.1321C58.2078 28.7346 58.0256 23.4628 55.246 20.525ZM8.88267 38.486C7.56611 38.1762 7.01267 37.7693 6.95123 37.621C6.57697 36.7187 6.28221 31.9152 7.03717 30.6205C7.54678 29.7496 8.56643 29.8394 8.9815 29.9184C9.72229 30.089 10.402 30.4597 10.9466 30.9901C11.4911 31.5205 11.8796 32.1902 12.0697 32.9263C12.122 33.1446 12.1355 33.3705 12.1096 33.5936C11.9282 35.2689 11.9508 36.9601 12.1771 38.6299C11.7517 38.7872 10.4682 38.8598 8.88396 38.4868L8.88267 38.486ZM16.483 39.9366C14.4879 39.613 13.647 39.0549 13.5529 38.8357C13.1194 37.8286 13.1559 32.3767 14.0686 30.6442C14.4123 29.9941 15.4612 29.7311 16.6824 29.9902C18.3375 30.3412 20.0662 31.6105 20.3154 33.6713C20.3295 33.8024 20.3308 33.9345 20.3192 34.0658C20.2012 35.8935 20.2088 37.7271 20.342 39.5537C20.3497 39.6577 20.3691 39.7553 20.385 39.8545C19.9798 40.075 18.5055 40.2653 16.4843 39.9375L16.483 39.9366ZM29.6314 40.7036C29.3814 40.9206 29.0602 41.038 28.7291 41.0332C26.7008 41.1909 24.6607 41.092 22.6572 40.7388C22.3606 40.6837 22.0935 40.5244 21.9039 40.2897C21.7144 40.055 21.6149 39.7603 21.6233 39.4588C21.5499 38.4705 21.3475 35.0296 21.8214 32.283C21.9069 31.6119 22.2388 30.9964 22.7525 30.5562C23.2662 30.1159 23.9252 29.8822 24.6015 29.9004C25.675 29.8893 26.7215 30.2365 27.5754 30.8871C28.4294 31.5378 29.0419 32.4546 29.316 33.4926C30.0375 36.564 29.9533 40.0066 29.6344 40.7045L29.6314 40.7036ZM39.3699 39.4575C39.3782 39.759 39.2787 40.0535 39.0891 40.2881C38.8996 40.5227 38.6325 40.6819 38.336 40.7371C36.3324 41.0907 34.2921 41.1896 32.2637 41.0314C31.9326 41.0362 31.6113 40.9187 31.3613 40.7014C31.0429 40.0041 30.9587 36.5614 31.6759 33.4921C31.9452 32.4735 32.5402 31.5709 33.3703 30.922C34.2004 30.2731 35.22 29.9136 36.2735 29.8982H36.3883C37.0646 29.88 37.7236 30.1137 38.2373 30.554C38.751 30.9943 39.0828 31.6097 39.1683 32.2809C39.6487 35.0304 39.4463 38.4705 39.3729 39.4601L39.3699 39.4575ZM47.4458 38.8357C47.3517 39.0553 46.5113 39.6135 44.5162 39.937C42.4967 40.2653 41.0212 40.0741 40.616 39.8545C40.7542 37.9262 40.7758 35.9912 40.6808 34.0602C40.67 33.9314 40.6714 33.802 40.6851 33.6735C40.9331 31.611 42.6617 30.3412 44.3186 29.9898C45.5415 29.732 46.5912 29.9936 46.9324 30.6437C47.8433 32.3775 47.8798 37.8294 47.4458 38.8357ZM54.0471 37.6219C53.9857 37.7701 53.4322 38.177 52.1135 38.4868C50.528 38.8607 49.2454 38.7876 48.8217 38.6312C49.0487 36.961 49.0719 35.2694 48.8909 33.5936C48.8637 33.3712 48.8758 33.1458 48.9265 32.9275C49.1166 32.1915 49.5051 31.5218 50.0496 30.9914C50.5942 30.461 51.2739 30.0903 52.0147 29.9197C52.4289 29.8411 53.4494 29.7504 53.959 30.6214C54.717 31.9178 54.4222 36.7208 54.0471 37.6219ZM55.0719 29.9704C54.4313 28.8747 53.1998 28.3806 51.7741 28.653C50.4008 28.9481 49.1972 29.7681 48.4199 30.9381C48.333 30.6299 48.2168 30.3308 48.0728 30.0448C47.4497 28.8601 45.8697 28.3432 44.05 28.7304C42.4987 29.0516 41.1311 29.9587 40.2318 31.2629C39.9547 30.4797 39.4392 29.8029 38.7577 29.3278C38.0761 28.8526 37.2628 28.603 36.4321 28.6139C35.1082 28.5933 33.8135 29.0039 32.7434 29.7837C31.6734 30.5636 30.886 31.6704 30.5003 32.937C30.1167 31.6688 29.3299 30.5605 28.2591 29.7802C27.1884 29 25.8922 28.5905 24.5676 28.6139C23.7368 28.603 22.9235 28.8526 22.242 29.3278C21.5604 29.8029 21.0449 30.4797 20.7678 31.2629C19.8685 29.9587 18.5009 29.0516 16.9496 28.7304C15.1295 28.3436 13.5499 28.8593 12.9269 30.0448C12.7829 30.3308 12.6666 30.6299 12.5797 30.9381C11.8026 29.7678 10.599 28.9475 9.22557 28.6521C7.80158 28.381 6.56838 28.8739 5.92728 29.97C5.78742 30.2219 5.67945 30.4902 5.60588 30.7688C4.30607 27.3124 4.67603 23.5427 6.69127 21.4115C9.47693 18.4664 19.3645 20.1843 26.927 23.4637C28.0552 23.9509 29.2713 24.2023 30.5003 24.2023C31.7292 24.2023 32.9453 23.9509 34.0735 23.4637C41.636 20.1843 51.524 18.4668 54.3092 21.4115C56.3262 23.5427 56.6944 27.3124 55.3946 30.7696C55.321 30.4909 55.2129 30.2224 55.0728 29.9704H55.0719Z" fill="#27A324" fill-opacity="0.5"/>
<path d="M55.246 20.525C51.5077 16.5749 39.9603 19.5058 33.5609 22.2812C32.5945 22.6985 31.5529 22.9138 30.5003 22.9138C29.4476 22.9138 28.406 22.6985 27.4396 22.2812C21.0403 19.5058 9.49369 16.5749 5.75455 20.525C2.9749 23.4628 2.79271 28.7346 5.29092 33.1304C5.21314 35.2027 5.49674 37.4779 5.76357 38.1147C6.30283 39.4132 9.29775 40.0457 11.1411 40.0457C11.3216 40.0457 11.4917 40.0397 11.6469 40.0277C12.0046 40.0075 12.3573 39.933 12.6927 39.8068C13.7669 40.9266 16.6763 41.4001 18.6224 41.4001C18.8871 41.4001 19.1337 41.3911 19.3559 41.3743C19.875 41.3508 20.3862 41.2388 20.8675 41.043C21.2419 41.5515 21.7983 41.8957 22.4204 42.0038C23.8984 42.2692 25.3974 42.3997 26.899 42.3936C27.5651 42.3936 28.2208 42.3682 28.8404 42.3171C29.4497 42.2798 30.0312 42.049 30.5003 41.6584C30.9693 42.0497 31.5509 42.281 32.1606 42.3188C32.7806 42.3699 33.4359 42.3948 34.1023 42.3948C35.6039 42.4011 37.103 42.2708 38.581 42.0055C39.2031 41.8974 39.7594 41.5532 40.1338 41.0448C40.6152 41.2405 41.1264 41.3525 41.6455 41.3761C41.8676 41.3928 42.1143 41.4018 42.379 41.4018C44.3259 41.4018 47.2344 40.9292 48.3087 39.8086C48.6441 39.9347 48.9967 40.0092 49.3545 40.0294C49.5096 40.0414 49.6794 40.0475 49.8603 40.0475C51.7036 40.0475 54.6985 39.415 55.2378 38.1164C55.5029 37.4779 55.7865 35.2027 55.7104 33.1321C58.2078 28.7346 58.0256 23.4628 55.246 20.525ZM8.88267 38.486C7.56611 38.1762 7.01267 37.7693 6.95123 37.621C6.57697 36.7187 6.28221 31.9152 7.03717 30.6205C7.54678 29.7496 8.56643 29.8394 8.9815 29.9184C9.72229 30.089 10.402 30.4597 10.9466 30.9901C11.4911 31.5205 11.8796 32.1902 12.0697 32.9263C12.122 33.1446 12.1355 33.3705 12.1096 33.5936C11.9282 35.2689 11.9508 36.9601 12.1771 38.6299C11.7517 38.7872 10.4682 38.8598 8.88396 38.4868L8.88267 38.486ZM16.483 39.9366C14.4879 39.613 13.647 39.0549 13.5529 38.8357C13.1194 37.8286 13.1559 32.3767 14.0686 30.6442C14.4123 29.9941 15.4612 29.7311 16.6824 29.9902C18.3375 30.3412 20.0662 31.6105 20.3154 33.6713C20.3295 33.8024 20.3308 33.9345 20.3192 34.0658C20.2012 35.8935 20.2088 37.7271 20.342 39.5537C20.3497 39.6577 20.3691 39.7553 20.385 39.8545C19.9798 40.075 18.5055 40.2653 16.4843 39.9375L16.483 39.9366ZM29.6314 40.7036C29.3814 40.9206 29.0602 41.038 28.7291 41.0332C26.7008 41.1909 24.6607 41.092 22.6572 40.7388C22.3606 40.6837 22.0935 40.5244 21.9039 40.2897C21.7144 40.055 21.6149 39.7603 21.6233 39.4588C21.5499 38.4705 21.3475 35.0296 21.8214 32.283C21.9069 31.6119 22.2388 30.9964 22.7525 30.5562C23.2662 30.1159 23.9252 29.8822 24.6015 29.9004C25.675 29.8893 26.7215 30.2365 27.5754 30.8871C28.4294 31.5378 29.0419 32.4546 29.316 33.4926C30.0375 36.564 29.9533 40.0066 29.6344 40.7045L29.6314 40.7036ZM39.3699 39.4575C39.3782 39.759 39.2787 40.0535 39.0891 40.2881C38.8996 40.5227 38.6325 40.6819 38.336 40.7371C36.3324 41.0907 34.2921 41.1896 32.2637 41.0314C31.9326 41.0362 31.6113 40.9187 31.3613 40.7014C31.0429 40.0041 30.9587 36.5614 31.6759 33.4921C31.9452 32.4735 32.5402 31.5709 33.3703 30.922C34.2004 30.2731 35.22 29.9136 36.2735 29.8982H36.3883C37.0646 29.88 37.7236 30.1137 38.2373 30.554C38.751 30.9943 39.0828 31.6097 39.1683 32.2809C39.6487 35.0304 39.4463 38.4705 39.3729 39.4601L39.3699 39.4575ZM47.4458 38.8357C47.3517 39.0553 46.5113 39.6135 44.5162 39.937C42.4967 40.2653 41.0212 40.0741 40.616 39.8545C40.7542 37.9262 40.7758 35.9912 40.6808 34.0602C40.67 33.9314 40.6714 33.802 40.6851 33.6735C40.9331 31.611 42.6617 30.3412 44.3186 29.9898C45.5415 29.732 46.5912 29.9936 46.9324 30.6437C47.8433 32.3775 47.8798 37.8294 47.4458 38.8357ZM54.0471 37.6219C53.9857 37.7701 53.4322 38.177 52.1135 38.4868C50.528 38.8607 49.2454 38.7876 48.8217 38.6312C49.0487 36.961 49.0719 35.2694 48.8909 33.5936C48.8637 33.3712 48.8758 33.1458 48.9265 32.9275C49.1166 32.1915 49.5051 31.5218 50.0496 30.9914C50.5942 30.461 51.2739 30.0903 52.0147 29.9197C52.4289 29.8411 53.4494 29.7504 53.959 30.6214C54.717 31.9178 54.4222 36.7208 54.0471 37.6219ZM55.0719 29.9704C54.4313 28.8747 53.1998 28.3806 51.7741 28.653C50.4008 28.9481 49.1972 29.7681 48.4199 30.9381C48.333 30.6299 48.2168 30.3308 48.0728 30.0448C47.4497 28.8601 45.8697 28.3432 44.05 28.7304C42.4987 29.0516 41.1311 29.9587 40.2318 31.2629C39.9547 30.4797 39.4392 29.8029 38.7577 29.3278C38.0761 28.8526 37.2628 28.603 36.4321 28.6139C35.1082 28.5933 33.8135 29.0039 32.7434 29.7837C31.6734 30.5636 30.886 31.6704 30.5003 32.937C30.1167 31.6688 29.3299 30.5605 28.2591 29.7802C27.1884 29 25.8922 28.5905 24.5676 28.6139C23.7368 28.603 22.9235 28.8526 22.242 29.3278C21.5604 29.8029 21.0449 30.4797 20.7678 31.2629C19.8685 29.9587 18.5009 29.0516 16.9496 28.7304C15.1295 28.3436 13.5499 28.8593 12.9269 30.0448C12.7829 30.3308 12.6666 30.6299 12.5797 30.9381C11.8026 29.7678 10.599 28.9475 9.22557 28.6521C7.80158 28.381 6.56838 28.8739 5.92728 29.97C5.78742 30.2219 5.67945 30.4902 5.60588 30.7688C4.30607 27.3124 4.67603 23.5427 6.69127 21.4115C9.47693 18.4664 19.3645 20.1843 26.927 23.4637C28.0552 23.9509 29.2713 24.2023 30.5003 24.2023C31.7292 24.2023 32.9453 23.9509 34.0735 23.4637C41.636 20.1843 51.524 18.4668 54.3092 21.4115C56.3262 23.5427 56.6944 27.3124 55.3946 30.7696C55.321 30.4909 55.2129 30.2224 55.0728 29.9704H55.0719Z" stroke="#27A324" stroke-opacity="0.5" mask="url(#path-2-outside-2_1_199)"/>
</svg>
