<svg width="60" height="60" viewBox="0 0 60 60" fill="none" xmlns="http://www.w3.org/2000/svg">
<path d="M56.9623 8H4.03785C3.76259 8 3.49861 8.10934 3.30398 8.30398C3.10934 8.49861 3 8.76259 3 9.03785V51.9141C3 52.1894 3.10934 52.4534 3.30398 52.648C3.49861 52.8426 3.76259 52.952 4.03785 52.952H56.9622C57.2374 52.952 57.5014 52.8426 57.696 52.648C57.8907 52.4534 58 52.1894 58 51.9141V9.03785C58 8.76259 57.8907 8.49861 57.696 8.30398C57.5014 8.10934 57.2374 8 56.9622 8H56.9623ZM55.9244 10.0757V18.0107C54.8352 17.9572 53.7519 18.1998 52.7895 18.7128C52.3077 18.9614 51.7734 19.0911 51.2313 19.0911C50.6892 19.0911 50.1549 18.9614 49.6731 18.7128C48.7298 18.2025 47.6655 17.9581 46.5941 18.0057C45.5226 18.0533 44.4842 18.3912 43.5899 18.9831C42.4554 19.7431 41.5209 20.7655 40.8656 21.9634C40.2102 20.7655 39.2758 19.7432 38.1413 18.9831C37.247 18.3912 36.2086 18.0534 35.1372 18.0058C34.0658 17.9582 33.0016 18.2026 32.0583 18.7129C31.5765 18.9615 31.0422 19.0912 30.5001 19.0912C29.9579 19.0912 29.4237 18.9615 28.9419 18.7129C27.9986 18.2026 26.9343 17.9582 25.8629 18.0058C24.7915 18.0534 23.7531 18.3912 22.8588 18.9831C21.7243 19.7431 20.7898 20.7655 20.1344 21.9634C19.4791 20.7655 18.5447 19.7432 17.4102 18.9831C16.5159 18.3912 15.4775 18.0534 14.4061 18.0058C13.3347 17.9582 12.2705 18.2026 11.3272 18.7129C10.8454 18.9615 10.3111 19.0912 9.76896 19.0912C9.22682 19.0912 8.69255 18.9615 8.21077 18.7129C7.2484 18.2 6.16505 17.9573 5.07582 18.0107V10.0758L55.9244 10.0757ZM55.9244 40.6048C55.7108 40.4401 55.554 40.2127 55.476 39.9545L53.9672 34.9952C53.7887 34.4085 53.4265 33.8948 52.9338 33.5297C52.4412 33.1647 51.8443 32.9676 51.2311 32.9676C50.618 32.9676 50.021 33.1647 49.5284 33.5298C49.0358 33.8949 48.6736 34.4087 48.4952 34.9953L46.9866 39.9544C46.9025 40.2311 46.7281 40.4717 46.4913 40.6379C46.2546 40.8041 45.969 40.8863 45.6802 40.8715C45.3913 40.8566 45.1157 40.7456 44.8972 40.5559C44.6788 40.3663 44.53 40.1091 44.4747 39.8252L42.024 27.2522C41.7817 26.0142 41.9109 24.7322 42.3954 23.5675C42.8798 22.4027 43.6979 21.4073 44.7467 20.7063C45.3294 20.3241 46.005 20.1073 46.7013 20.0791C47.3977 20.0509 48.0886 20.2124 48.7003 20.5464C49.4816 20.9539 50.3499 21.1667 51.2311 21.1667C52.1124 21.1667 52.9806 20.9539 53.762 20.5464C54.4248 20.1924 55.1748 20.0343 55.9242 20.0908L55.9244 40.6048ZM39.7071 27.2524L37.2567 39.8252C37.2014 40.1091 37.0527 40.3663 36.8342 40.556C36.6158 40.7456 36.3402 40.8567 36.0513 40.8716C35.7624 40.8864 35.4768 40.8042 35.2401 40.6381C35.0033 40.4719 34.8289 40.2312 34.7447 39.9545L33.2361 34.9952C33.0576 34.4085 32.6954 33.8948 32.2027 33.5297C31.7101 33.1647 31.1132 32.9676 30.5 32.9676C29.8869 32.9676 29.2899 33.1647 28.7973 33.5298C28.3047 33.8949 27.9425 34.4087 27.764 34.9953L26.2554 39.9544C26.1712 40.2311 25.9969 40.4717 25.7601 40.6379C25.5234 40.8041 25.2378 40.8863 24.9489 40.8715C24.66 40.8566 24.3844 40.7456 24.166 40.5559C23.9475 40.3663 23.7988 40.1091 23.7434 39.8252L21.2929 27.2522C21.0506 26.0142 21.1798 24.7322 21.6643 23.5675C22.1488 22.4027 22.9669 21.4073 24.0157 20.7063C24.5984 20.3241 25.274 20.1073 25.9703 20.0791C26.6666 20.051 27.3575 20.2125 27.9691 20.5464C28.7505 20.9539 29.6188 21.1667 30.5001 21.1667C31.3813 21.1667 32.2496 20.9539 33.031 20.5464C33.6426 20.2124 34.3335 20.0509 35.0298 20.0791C35.7262 20.1073 36.4017 20.3241 36.9844 20.7063C38.0333 21.4073 38.8514 22.4028 39.3358 23.5676C39.8203 24.7324 39.9495 26.0144 39.7071 27.2524ZM5.07569 20.0908C5.82509 20.0343 6.57507 20.1924 7.23792 20.5465C8.01931 20.954 8.88756 21.1668 9.76883 21.1668C10.6501 21.1668 11.5184 20.954 12.2997 20.5465C12.9114 20.2125 13.6023 20.051 14.2987 20.0792C14.995 20.1073 15.6706 20.3242 16.2533 20.7065C17.3021 21.4074 18.1202 22.4029 18.6046 23.5677C19.0891 24.7324 19.2182 26.0145 18.9758 27.2524L16.5255 39.825C16.4702 40.109 16.3214 40.3662 16.103 40.5559C15.8846 40.7455 15.609 40.8566 15.3201 40.8715C15.0312 40.8864 14.7456 40.8042 14.5089 40.638C14.2721 40.4719 14.0977 40.2312 14.0135 39.9545L12.5047 34.9952C12.3263 34.4085 11.964 33.8948 11.4714 33.5297C10.9787 33.1647 10.3818 32.9676 9.76865 32.9676C9.1555 32.9676 8.55858 33.1647 8.06596 33.5298C7.57333 33.8949 7.2111 34.4087 7.03268 34.9953L5.5243 39.9544C5.44631 40.2127 5.2895 40.4401 5.07582 40.6048L5.07569 20.0908ZM5.07569 50.8763V42.8557C5.64725 42.7199 6.17304 42.4361 6.60031 42.0329C7.02757 41.6297 7.34128 41.1213 7.50996 40.5585L9.0186 35.5994C9.06756 35.4386 9.1669 35.2978 9.30198 35.1977C9.43706 35.0976 9.60072 35.0436 9.76883 35.0436C9.93695 35.0436 10.1006 35.0976 10.2357 35.1977C10.3708 35.2978 10.4701 35.4386 10.5191 35.5994L12.0278 40.5585C12.2469 41.2785 12.7005 41.9044 13.3165 42.3367C13.9324 42.769 14.6753 42.9829 15.4268 42.9442C16.1783 42.9055 16.8953 42.6165 17.4636 42.1232C18.0319 41.63 18.4189 40.9608 18.5629 40.2221L20.1346 32.1586L21.7061 40.2223C21.8501 40.9609 22.237 41.6302 22.8053 42.1236C23.3737 42.6169 24.0907 42.9059 24.8423 42.9446C25.5938 42.9833 26.3367 42.7694 26.9527 42.337C27.5687 41.9047 28.0223 41.2786 28.2413 40.5587L29.75 35.5997C29.7989 35.4389 29.8982 35.298 30.0333 35.1979C30.1684 35.0978 30.332 35.0438 30.5002 35.0438C30.6683 35.0438 30.8319 35.0978 30.967 35.1979C31.1021 35.2979 31.2015 35.4387 31.2504 35.5996L32.7592 40.5587C32.9783 41.2786 33.4319 41.9045 34.0478 42.3369C34.6638 42.7692 35.4067 42.983 36.1582 42.9443C36.9097 42.9056 37.6267 42.6167 38.195 42.1234C38.7633 41.6301 39.1503 40.9609 39.2943 40.2223L40.8658 32.1586L42.4374 40.2224C42.5813 40.9611 42.9683 41.6303 43.5366 42.1237C44.1049 42.617 44.822 42.906 45.5735 42.9446C46.3251 42.9833 47.068 42.7694 47.684 42.3371C48.2999 41.9047 48.7535 41.2787 48.9726 40.5587L50.4812 35.5997C50.5301 35.4389 50.6295 35.298 50.7645 35.1979C50.8996 35.0978 51.0633 35.0438 51.2314 35.0438C51.3995 35.0438 51.5632 35.0978 51.6982 35.1979C51.8333 35.2979 51.9327 35.4387 51.9817 35.5996L53.4903 40.5587C53.659 41.1214 53.9727 41.6298 54.3999 42.033C54.8271 42.4362 55.3529 42.72 55.9244 42.8558V50.8764L5.07569 50.8763Z" fill="#27A324" fill-opacity="0.5"/>
</svg>
