<svg width="57" height="57" viewBox="0 0 57 57" fill="none" xmlns="http://www.w3.org/2000/svg">
<path d="M26.5098 29.3931C26.8796 29.9415 27.6445 30.2887 28.4822 30.2887C29.3495 30.2887 30.1358 29.9167 30.4894 29.3389" stroke="#91CF8F" stroke-width="2" stroke-miterlimit="2.6131" stroke-linecap="round" stroke-linejoin="round"/>
<path d="M36.5293 26.7199L36.53 26.7197M20.4707 26.7199L20.4714 26.7197" stroke="#91CF8F" stroke-width="2" stroke-miterlimit="2.6131" stroke-linecap="round" stroke-linejoin="round"/>
<path d="M18.1364 38.1855C15.1012 40.9876 13.1924 44.9941 13.1924 49.4252V55.8867H43.8075V49.4252C43.8075 44.994 41.8987 40.9876 38.8634 38.1855M19.5937 55.8868V48.2902M37.4062 48.2902V55.3301M19.0371 50.8769H13.749M43.2509 50.8769H37.9627" stroke="#91CF8F" stroke-width="2" stroke-miterlimit="2.6131" stroke-linecap="round" stroke-linejoin="round"/>
<path d="M10.4092 21.4307V24.7705C10.4092 33.7201 18.5087 40.9754 28.4999 40.9754C38.4911 40.9754 46.5907 33.7201 46.5907 24.7705L46.5906 21.4307" stroke="#91CF8F" stroke-width="2" stroke-miterlimit="2.6131" stroke-linecap="round" stroke-linejoin="round"/>
<path d="M32.8973 41.0971V41.2085C32.8973 43.627 30.9185 45.6058 28.4999 45.6058H28.4998C26.0813 45.6058 24.1023 43.627 24.1023 41.2085V41.0971M45.8216 29.5179H48.6699C51.0569 29.5179 52.9919 27.5829 52.9919 25.1959C52.9919 22.8089 51.0569 20.8739 48.6699 20.8739H45.7912C40.2866 20.8739 35.783 18.3691 35.783 15.3076C35.783 18.3691 31.2792 20.8739 25.7747 20.8739H8.32978C5.9428 20.8739 4.00781 22.8089 4.00781 25.1959C4.00781 27.5829 5.9428 29.5179 8.32978 29.5179H11.1782M49.7833 20.6179V18.8756C49.7833 9.10639 41.7898 1.11328 32.021 1.11328H24.9788C20.5667 1.11328 16.517 2.74423 13.4021 5.43257M7.94581 13.852C7.46143 15.4825 7.21577 17.1746 7.2165 18.8756V20.6179M25.7167 50.6361H31.2831" stroke="#91CF8F" stroke-width="2" stroke-miterlimit="22.9256" stroke-linecap="round" stroke-linejoin="round"/>
<path d="M10.0498 9.28223H10.0501" stroke="#91CF8F" stroke-width="2" stroke-miterlimit="22.9256" stroke-linecap="round" stroke-linejoin="round"/>
</svg>
