<svg width="17" height="19" viewBox="0 0 17 19" fill="none" xmlns="http://www.w3.org/2000/svg">
<path d="M13.7183 2.3537C12.2005 0.835888 10.1825 0 8.03603 0C5.88955 0 3.87147 0.835888 2.3537 2.3537C0.835888 3.87154 0 5.88955 0 8.03599C0 12.3782 4.1057 15.9899 6.31144 17.9302C6.61797 18.1998 6.88267 18.4327 7.09356 18.6297C7.35778 18.8765 7.69692 18.9999 8.03599 18.9999C8.37513 18.9999 8.7142 18.8765 8.97845 18.6297C9.18935 18.4326 9.45405 18.1998 9.76057 17.9302C11.9663 15.9899 16.072 12.3782 16.072 8.03599C16.072 5.88955 15.2361 3.87154 13.7183 2.3537ZM9.02543 17.0946C8.71219 17.3701 8.4417 17.6081 8.21868 17.8164C8.11622 17.912 7.95576 17.912 7.85326 17.8164C7.63027 17.608 7.35975 17.3701 7.0465 17.0945C4.97284 15.2704 1.11291 11.8749 1.11291 8.03603C1.11291 4.21866 4.21855 1.11302 8.03595 1.11302C11.8533 1.11302 14.959 4.21866 14.959 8.03603C14.959 11.8749 11.0991 15.2704 9.02543 17.0946Z" fill="url(#paint0_linear_1_7904)"/>
<path d="M8.0365 4.19141C6.08377 4.19141 4.49512 5.78002 4.49512 7.73275C4.49512 9.68548 6.08377 11.2741 8.0365 11.2741C9.98923 11.2741 11.5778 9.68548 11.5778 7.73275C11.5778 5.78002 9.98923 4.19141 8.0365 4.19141ZM8.0365 10.1611C6.69748 10.1611 5.6081 9.07169 5.6081 7.73271C5.6081 6.39373 6.69748 5.30435 8.0365 5.30435C9.37551 5.30435 10.4649 6.39373 10.4649 7.73271C10.4649 9.07169 9.37551 10.1611 8.0365 10.1611Z" fill="url(#paint1_linear_1_7904)"/>
<defs>
<linearGradient id="paint0_linear_1_7904" x1="11.172" y1="34.1295" x2="11.172" y2="-11.4351" gradientUnits="userSpaceOnUse">
<stop stop-color="#24A363"/>
<stop offset="1" stop-color="#4BDD48"/>
</linearGradient>
<linearGradient id="paint1_linear_1_7904" x1="9.41847" y1="16.914" x2="9.41848" y2="-0.0713222" gradientUnits="userSpaceOnUse">
<stop stop-color="#24A363"/>
<stop offset="1" stop-color="#4BDD48"/>
</linearGradient>
</defs>
</svg>
