<svg width="26" height="26" viewBox="0 0 26 26" fill="none" xmlns="http://www.w3.org/2000/svg">
<rect width="26" height="26" rx="6" fill="white"/>
<g clip-path="url(#clip0_1_249)">
<path d="M6.29225 8.60192C8.2137 10.2292 11.5852 13.092 12.5762 13.9846C12.7092 14.1051 12.8519 14.1664 13 14.1664C13.1478 14.1664 13.2903 14.1057 13.423 13.9858C14.4148 13.0923 17.7863 10.2292 19.7078 8.60192C19.8274 8.5008 19.8456 8.32307 19.7488 8.19945C19.5249 7.91379 19.1911 7.75 18.8333 7.75H7.16668C6.80894 7.75 6.4751 7.91379 6.25123 8.19948C6.15438 8.32307 6.17262 8.5008 6.29225 8.60192ZM19.8308 9.48376C19.7804 9.46024 19.7243 9.45171 19.6691 9.45919C19.614 9.46666 19.5621 9.48983 19.5198 9.52592C18.2614 10.5926 16.6034 12.002 15.353 13.0775C15.3205 13.1054 15.2946 13.1401 15.2771 13.1792C15.2595 13.2183 15.2509 13.2608 15.2516 13.3036C15.2524 13.3465 15.2625 13.3886 15.2814 13.4271C15.3004 13.4655 15.3275 13.4993 15.361 13.5261C16.5228 14.4566 18.2737 15.7366 19.538 16.6464C19.5876 16.6822 19.6472 16.7014 19.7084 16.7014C19.7539 16.7014 19.7995 16.6908 19.8414 16.6692C19.8891 16.6447 19.9292 16.6075 19.9572 16.5618C19.9852 16.516 20 16.4633 20 16.4097V9.74836C20 9.69271 19.9841 9.63822 19.9541 9.59133C19.9241 9.54444 19.8813 9.50711 19.8308 9.48376ZM6.462 16.6464C7.72665 15.7366 9.4778 14.4566 10.6393 13.5261C10.6728 13.4993 10.7 13.4655 10.7189 13.4271C10.7378 13.3886 10.748 13.3465 10.7487 13.3036C10.7495 13.2608 10.7408 13.2183 10.7233 13.1792C10.7057 13.1401 10.6798 13.1054 10.6473 13.0775C9.39689 12.002 7.7386 10.5926 6.48024 9.52592C6.4378 9.48999 6.38597 9.46694 6.33087 9.45947C6.27577 9.452 6.21968 9.46043 6.1692 9.48376C6.11868 9.50711 6.0759 9.54443 6.04591 9.59132C6.01593 9.63821 6 9.69271 6 9.74836L6 16.4097C6 16.5191 6.06125 16.6194 6.15865 16.6692C6.19977 16.6904 6.2454 16.7015 6.29168 16.7014C6.35282 16.7014 6.41243 16.6822 6.462 16.6464Z" fill="url(#paint0_linear_1_249)"/>
<path d="M19.6421 17.4397C18.4211 16.5661 16.1717 14.9375 14.829 13.8477C14.7197 13.7586 14.5613 13.7614 14.4536 13.8543C14.1902 14.0841 13.9697 14.2778 13.8133 14.4185C13.3331 14.852 12.6666 14.852 12.1852 14.4179C12.0294 14.2775 11.809 14.0832 11.5455 13.8542C11.4387 13.7608 11.28 13.758 11.1704 13.8477C9.83222 14.9337 7.58035 16.5644 6.35729 17.4397C6.32364 17.4638 6.2955 17.4949 6.27473 17.5307C6.25396 17.5666 6.24104 17.6064 6.23682 17.6476C6.23267 17.6888 6.23736 17.7305 6.25057 17.7698C6.26378 17.8091 6.28521 17.8451 6.31343 17.8755C6.53421 18.1133 6.84524 18.2498 7.16626 18.2498H18.8329C19.1539 18.2498 19.4647 18.1133 19.686 17.8755C19.7142 17.8452 19.7356 17.8092 19.7488 17.7699C19.762 17.7307 19.7667 17.6891 19.7626 17.6479C19.7584 17.6067 19.7455 17.5668 19.7247 17.5309C19.7039 17.495 19.6758 17.4639 19.6421 17.4397Z" fill="url(#paint1_linear_1_249)"/>
</g>
<defs>
<linearGradient id="paint0_linear_1_249" x1="15.7317" y1="23.8293" x2="15.7317" y2="2.36259" gradientUnits="userSpaceOnUse">
<stop stop-color="#24A363"/>
<stop offset="1" stop-color="#4BDD48"/>
</linearGradient>
<linearGradient id="paint1_linear_1_249" x1="15.6395" y1="21.8073" x2="15.6395" y2="11.0934" gradientUnits="userSpaceOnUse">
<stop stop-color="#24A363"/>
<stop offset="1" stop-color="#4BDD48"/>
</linearGradient>
<clipPath id="clip0_1_249">
<rect width="14" height="14" fill="white" transform="translate(6 6)"/>
</clipPath>
</defs>
</svg>
