<svg width="24" height="24" viewBox="0 0 24 24" fill="none" xmlns="http://www.w3.org/2000/svg">
<g clip-path="url(#clip0_102_3161)">
<path d="M11.1621 12.3754C11.3178 12.6063 11.6399 12.7525 11.9926 12.7525C12.3578 12.7525 12.6889 12.5958 12.8377 12.3525" stroke="#5E6D6D" stroke-opacity="0.5" stroke-miterlimit="2.6131" stroke-linecap="round" stroke-linejoin="round"/>
<path d="M15.3807 11.2502L15.381 11.25M8.61914 11.2502L8.61942 11.25" stroke="#5E6D6D" stroke-opacity="0.5" stroke-miterlimit="2.6131" stroke-linecap="round" stroke-linejoin="round"/>
<path d="M7.6364 16.0781C6.3584 17.2579 5.55469 18.9449 5.55469 20.8106V23.5312H18.4453V20.8106C18.4453 18.9448 17.6415 17.2579 16.3636 16.0781M8.24999 23.5313V20.3327M15.75 20.3327V23.2969M8.01562 21.4219H5.78906M18.2109 21.4219H15.9843" stroke="#5E6D6D" stroke-opacity="0.5" stroke-miterlimit="2.6131" stroke-linecap="round" stroke-linejoin="round"/>
<path d="M4.38281 9.02344V10.4297C4.38281 14.1979 7.79314 17.2528 12 17.2528C16.2068 17.2528 19.6171 14.1979 19.6171 10.4297L19.6171 9.02344" stroke="#5E6D6D" stroke-opacity="0.5" stroke-miterlimit="2.6131" stroke-linecap="round" stroke-linejoin="round"/>
<path d="M13.8515 17.304V17.3509C13.8515 18.3693 13.0183 19.2025 12 19.2025H11.9999C10.9816 19.2025 10.1484 18.3693 10.1484 17.3509V17.304M19.2933 12.4286H20.4926C21.4976 12.4286 22.3124 11.6138 22.3124 10.6088C22.3124 9.60376 21.4976 8.78903 20.4926 8.78903H19.2805C16.9628 8.78903 15.0665 7.73435 15.0665 6.44529C15.0665 7.73435 13.1702 8.78903 10.8525 8.78903H3.50727C2.50223 8.78903 1.6875 9.60376 1.6875 10.6088C1.6875 11.6138 2.50223 12.4286 3.50727 12.4286H4.70661M20.9614 8.68122V7.94763C20.9614 3.83427 17.5957 0.46875 13.4825 0.46875H10.5174C8.65966 0.46875 6.95454 1.15547 5.64298 2.2874M3.3456 5.8324C3.14165 6.51895 3.03822 7.23142 3.03853 7.94763V8.68122M10.8281 21.3205H13.1718" stroke="#5E6D6D" stroke-opacity="0.5" stroke-miterlimit="22.9256" stroke-linecap="round" stroke-linejoin="round"/>
<path d="M4.23145 3.9082H4.23177" stroke="#5E6D6D" stroke-opacity="0.5" stroke-miterlimit="22.9256" stroke-linecap="round" stroke-linejoin="round"/>
</g>
<defs>
<clipPath id="clip0_102_3161">
<rect width="24" height="24" fill="white"/>
</clipPath>
</defs>
</svg>
