<svg width="24" height="24" viewBox="0 0 24 24" fill="none" xmlns="http://www.w3.org/2000/svg">
<path d="M9.53831 9.25405H8.68549V7.83268C8.68549 7.36249 8.30286 6.97986 7.83267 6.97986H5.55847C5.08828 6.97986 4.70565 7.36249 4.70565 7.83268V9.25405H3.85282C3.38263 9.25405 3 9.63668 3 10.1069V10.4705C3.00075 13.8194 3.89588 17.1074 5.59287 19.9945C5.82199 20.3834 6.24442 20.625 6.69557 20.625C7.14671 20.625 7.56914 20.3834 7.79827 19.9945C9.49526 17.1074 10.3904 13.8194 10.3911 10.4705V10.1069C10.3911 9.63668 10.0085 9.25405 9.53831 9.25405ZM8.02 18.3656L5.63636 18.8952C5.46271 18.5622 5.29936 18.224 5.14656 17.8809L8.56268 17.1216C8.39723 17.5429 8.21621 17.9578 8.02 18.3656ZM8.79863 16.4868L4.91971 17.3488C4.78009 17.007 4.65088 16.6611 4.53224 16.3114L9.17529 15.2795C9.06381 15.6862 8.93818 16.0889 8.79863 16.4868ZM9.33307 14.6624L4.35741 15.7682C4.25093 15.4181 4.1549 15.0648 4.06944 14.709L9.57072 13.4863C9.50448 13.8809 9.42521 14.2731 9.33307 14.6624ZM9.66169 12.8837L3.94635 14.1538C3.87269 13.7953 3.80984 13.4347 3.75788 13.0724L9.77796 11.7346C9.7512 12.1188 9.71242 12.502 9.66169 12.8837ZM3.6851 12.5062C3.62706 11.9924 3.59093 11.4765 3.57679 10.9597H9.81434C9.81264 11.0217 9.81122 11.0834 9.80894 11.1453L3.6851 12.5062ZM5.2742 7.83268C5.2742 7.67604 5.40155 7.5484 5.55847 7.5484H7.83267C7.98959 7.5484 8.11694 7.67604 8.11694 7.83268V9.25405H7.54839V8.11695H6.97984V9.25405H6.41129V8.11695H5.84274V9.25405H5.2742V7.83268ZM3.85282 9.8226H9.53831C9.69523 9.8226 9.82259 9.95024 9.82259 10.1069V10.3911H3.56855V10.1069C3.56855 9.95024 3.6959 9.8226 3.85282 9.8226ZM7.3079 19.7063C7.18082 19.9223 6.9463 20.0565 6.69557 20.0565C6.44484 20.0565 6.21031 19.9223 6.08324 19.7063C6.02667 19.6099 5.97323 19.5121 5.91836 19.4149L7.68882 19.0214C7.56686 19.2525 7.43985 19.4808 7.3079 19.7063ZM20.625 6.45452C20.625 5.8149 20.4459 5.19035 20.1068 4.64795L19.7224 4.03363C19.5258 3.71649 19.2511 3.45499 18.9247 3.27405C18.5984 3.09312 18.2311 2.99878 17.8579 3.00001H17.386C17.0879 2.99967 16.7928 3.06006 16.5189 3.17751C16.2449 3.29496 15.9977 3.46699 15.7924 3.68312C15.5871 3.46703 15.3399 3.29501 15.066 3.17757C14.792 3.06012 14.497 2.99971 14.199 3.00001H13.7268C13.3535 2.99877 12.986 3.09313 12.6595 3.27412C12.333 3.4551 12.0582 3.71667 11.8614 4.03392L11.4773 4.64795C11.1547 5.16452 10.9763 5.75808 10.9607 6.36694C10.9451 6.9758 11.0929 7.57772 11.3887 8.11013L12.2381 9.63896C12.146 9.77766 12.0969 9.94041 12.0968 10.1069V10.4705C12.0975 13.8194 12.9927 17.1074 14.6897 19.9945C14.9188 20.3834 15.3412 20.625 15.7924 20.625C16.2435 20.625 16.6659 20.3834 16.8951 19.9945C18.592 17.1074 19.4872 13.8194 19.4879 10.4705V10.1069C19.4879 9.93404 19.4353 9.77342 19.3466 9.63867L20.196 8.10985C20.4772 7.60342 20.6248 7.03376 20.625 6.45452ZM17.1168 18.3656L14.7331 18.8952C14.5594 18.5622 14.3961 18.2238 14.2433 17.8806L17.6595 17.1216C17.494 17.5429 17.313 17.9578 17.1168 18.3656ZM17.8957 16.4868L14.0165 17.3488C13.8769 17.007 13.7477 16.6611 13.629 16.3114L18.2721 15.2795C18.1606 15.6862 18.0351 16.0889 17.8957 16.4868ZM18.4299 14.6624L13.4542 15.7679C13.3477 15.4178 13.2517 15.0646 13.1662 14.7087L18.6675 13.486C18.6013 13.8807 18.522 14.273 18.4299 14.6624ZM18.7585 12.8837L13.0431 14.1538C12.9695 13.7953 12.9066 13.4347 12.8547 13.0724L18.8747 11.7346C18.848 12.1188 18.8092 12.502 18.7585 12.8837ZM12.7819 12.5062C12.7239 11.9924 12.6877 11.4765 12.6733 10.9597H18.9108C18.9091 11.0217 18.9077 11.0834 18.9054 11.1453L12.7819 12.5062ZM18.9194 10.1069V10.3911H12.6653V10.1069C12.6653 9.95024 12.7927 9.8226 12.9496 9.8226H18.6351C18.792 9.8226 18.9194 9.95024 18.9194 10.1069ZM16.4047 19.7063C16.2776 19.9223 16.0431 20.0565 15.7924 20.0565C15.5416 20.0565 15.3071 19.9223 15.18 19.7063C15.1235 19.6099 15.07 19.5121 15.0151 19.4149L16.7856 19.0214C16.6636 19.2525 16.5366 19.4808 16.4047 19.7063ZM19.6991 7.83353L18.8864 9.29612C18.8052 9.26948 18.7205 9.25529 18.6351 9.25405H12.9496C12.8615 9.25405 12.7782 9.27139 12.698 9.29612L11.8856 7.83382C11.639 7.39027 11.5158 6.88873 11.5288 6.38142C11.5419 5.8741 11.6907 5.37956 11.9598 4.94928L12.3435 4.33525C12.4894 4.10002 12.6931 3.90606 12.9352 3.77186C13.1773 3.63765 13.4497 3.56766 13.7265 3.56856H14.1987C14.7454 3.56856 15.2525 3.84004 15.5556 4.29488L15.7924 4.64966L16.0289 4.2946C16.1776 4.07106 16.3793 3.88779 16.6161 3.76111C16.8528 3.63443 17.1172 3.56829 17.3857 3.56856H17.8576C18.1343 3.56765 18.4067 3.63761 18.6487 3.77177C18.8908 3.90592 19.0944 4.09981 19.2403 4.33497L19.6247 4.94928C19.907 5.40057 20.0566 5.92219 20.0565 6.45452C20.0565 6.93636 19.9328 7.41309 19.6991 7.83353Z" fill="url(#paint0_linear_1_1664)"/>
<path d="M13.4352 4.78935L13.0332 5.19131C13.2393 5.39866 13.4845 5.56305 13.7546 5.67494C14.0247 5.78683 14.3143 5.84401 14.6067 5.84315H15.5084V5.2746H14.6067C14.389 5.27521 14.1734 5.23263 13.9723 5.14934C13.7712 5.06604 13.5886 4.94368 13.4352 4.78935ZM16.0621 5.22685L15.9189 5.32236L16.2347 5.79511L16.378 5.69959C16.7929 5.42199 17.2811 5.27405 17.7803 5.2746H17.7823L17.7829 4.70605H17.7803C17.1666 4.70605 16.5724 4.886 16.0621 5.22685Z" fill="url(#paint1_linear_1_1664)"/>
<defs>
<linearGradient id="paint0_linear_1_1664" x1="15.2515" y1="34.6598" x2="15.2515" y2="-7.60766" gradientUnits="userSpaceOnUse">
<stop stop-color="#24A363"/>
<stop offset="1" stop-color="#4BDD48"/>
</linearGradient>
<linearGradient id="paint1_linear_1_1664" x1="16.3348" y1="6.74864" x2="16.3348" y2="4.02168" gradientUnits="userSpaceOnUse">
<stop stop-color="#24A363"/>
<stop offset="1" stop-color="#4BDD48"/>
</linearGradient>
</defs>
</svg>
