<svg width="24" height="24" viewBox="0 0 24 24" fill="none" xmlns="http://www.w3.org/2000/svg">
<g clip-path="url(#clip0_1_1670)">
<path d="M19.2999 13.6449V13.2009C19.2999 12.7315 18.9193 12.3509 18.4498 12.3509H17.8832C17.4146 12.3509 17.0345 12.7301 17.0332 13.1987C16.4763 13.1256 15.8999 13.0686 15.3332 13.0261V12.6343C15.3332 12.1649 14.9527 11.7843 14.4833 11.7843H13.9167C13.4472 11.7843 13.0667 12.1649 13.0667 12.6343V12.9225C12.8684 12.9193 12.6797 12.9177 12.5 12.9177C12.3204 12.9177 12.1317 12.9193 11.9334 12.9225V12.6343C11.9334 12.1649 11.5529 11.7843 11.0834 11.7843H10.5167C10.0474 11.7843 9.66683 12.1649 9.66683 12.6343V13.0261C9.10017 13.0686 8.52354 13.1256 7.96678 13.1987C7.96558 12.7301 7.58532 12.3509 7.11687 12.3509H6.55024C6.08073 12.3509 5.7002 12.7315 5.7002 13.2009V13.6448C4.68534 13.9429 4.00025 14.3507 4.00025 14.9009V17.1676C4.00057 17.2666 4.02691 17.3637 4.07663 17.4493C4.12635 17.535 4.1977 17.606 4.28353 17.6553V18.0174C4.28353 18.4869 4.66419 18.8675 5.13357 18.8675H5.46908C5.52747 19.0326 5.63544 19.1757 5.77824 19.2771C5.92103 19.3785 6.09168 19.4334 6.26683 19.4341H7.11687C7.26326 19.4332 7.40688 19.3941 7.53356 19.3207C7.60981 19.442 7.71552 19.5419 7.84082 19.6113C7.96613 19.6806 8.10695 19.7171 8.25016 19.7173H9.38345C9.52987 19.7166 9.67357 19.6775 9.80027 19.6041C9.8765 19.7253 9.98218 19.8253 10.1074 19.8946C10.2327 19.964 10.3735 20.0005 10.5167 20.0008H11.9334C12.1432 20 12.3451 19.9212 12.5 19.7797C12.6549 19.9212 12.8569 20 13.0667 20.0008H14.4833C14.6265 20.0005 14.7673 19.964 14.8926 19.8946C15.0178 19.8253 15.1235 19.7253 15.1998 19.6041C15.3265 19.6775 15.4702 19.7166 15.6166 19.7173H16.7499C16.8931 19.7171 17.0339 19.6806 17.1592 19.6113C17.2845 19.5419 17.3902 19.442 17.4665 19.3207C17.5931 19.3941 17.7368 19.4332 17.8832 19.4341H18.7332C18.9084 19.4334 19.079 19.3785 19.2218 19.2771C19.3646 19.1757 19.4726 19.0326 19.531 18.8675H19.8665C20.3359 18.8675 20.7164 18.4869 20.7164 18.0174V17.6553C20.8023 17.606 20.8736 17.535 20.9234 17.4494C20.9731 17.3638 20.9995 17.2666 20.9998 17.1676V14.9008C20.9998 14.3507 20.3148 13.9429 19.2999 13.6449ZM17.5999 13.2009C17.5999 13.0445 17.7267 12.9177 17.8832 12.9177H18.4498C18.525 12.9177 18.597 12.9475 18.6502 13.0006C18.7033 13.0537 18.7332 13.1258 18.7332 13.2009V13.4968C18.3785 13.4145 17.9966 13.3425 17.5999 13.2803V13.2009ZM13.6333 12.6343C13.6333 12.4779 13.7602 12.3509 13.9167 12.3509H14.4833C14.6397 12.3509 14.7666 12.4779 14.7666 12.6343V12.9878C14.3765 12.9644 13.996 12.9476 13.6333 12.9364V12.6343ZM10.2335 12.6343C10.2335 12.4779 10.3603 12.3509 10.5167 12.3509H11.0834C11.1585 12.3509 11.2306 12.3808 11.2837 12.4339C11.3369 12.487 11.3667 12.5591 11.3667 12.6343V12.9363C11.0041 12.9476 10.6236 12.9646 10.2335 12.9878V12.6343ZM6.26683 13.2009C6.26683 13.0445 6.39366 12.9177 6.55024 12.9177H7.11687C7.27325 12.9177 7.40012 13.0445 7.40012 13.2009V13.2803C7.00352 13.3425 6.62156 13.4145 6.26683 13.4968V13.2009ZM12.5 13.4843C17.633 13.4843 20.4331 14.4193 20.4331 14.9008V16.5801C20.2955 16.4553 20.1154 16.3876 19.9296 16.3909C19.7473 16.3915 19.5701 16.4511 19.4245 16.5608C19.3244 16.3842 19.1775 16.2385 19 16.1399C18.8226 16.0412 18.6213 15.9934 18.4185 16.0016C18.2268 16.002 18.0374 16.0425 17.8623 16.1203C17.6872 16.1981 17.5302 16.3116 17.4015 16.4536C17.2878 16.2681 17.1263 16.1167 16.9339 16.0152C16.7416 15.9136 16.5254 15.8658 16.3082 15.8767C16.086 15.8766 15.8664 15.9247 15.6646 16.0176C15.4627 16.1105 15.2834 16.2461 15.1389 16.4149C15.0162 16.2023 14.8371 16.0278 14.6214 15.9106C14.4057 15.7934 14.1618 15.7381 13.9167 15.7509C13.636 15.7511 13.3597 15.8208 13.1125 15.9537C12.8653 16.0867 12.6549 16.2789 12.5 16.513C12.3452 16.2789 12.1347 16.0867 11.8875 15.9538C11.6403 15.8208 11.3641 15.7511 11.0834 15.7509C10.838 15.7381 10.5938 15.7935 10.378 15.9109C10.1621 16.0283 9.98295 16.2031 9.86033 16.4161C9.71586 16.2472 9.53653 16.1117 9.33467 16.0188C9.1328 15.9259 8.9132 15.8778 8.69098 15.8779C8.47399 15.867 8.25808 15.9147 8.06588 16.016C7.87368 16.1173 7.71227 16.2684 7.59857 16.4536C7.46981 16.312 7.31296 16.1988 7.13803 16.1211C6.96309 16.0435 6.7739 16.0032 6.58251 16.0028C6.37948 15.9944 6.17806 16.0421 6.00041 16.1408C5.82276 16.2394 5.67575 16.3852 5.57556 16.562C5.43 16.4521 5.25274 16.3925 5.07039 16.392C4.88474 16.3884 4.70471 16.4557 4.56691 16.5801V14.9008C4.56691 14.4193 7.36705 13.4843 12.5 13.4843ZM4.85029 18.0174V17.2618C4.85029 17.2111 4.86068 16.9576 5.07042 16.9576C5.287 16.9928 5.43873 17.1905 5.41695 17.4089V18.3008H5.13354C5.09633 18.3008 5.05949 18.2935 5.02511 18.2792C4.99074 18.265 4.95951 18.2441 4.9332 18.2178C4.9069 18.1915 4.88603 18.1602 4.8718 18.1259C4.85757 18.0915 4.85028 18.0546 4.85029 18.0174ZM7.11687 18.8675H6.26683C6.19169 18.8674 6.11965 18.8376 6.06654 18.7844C6.01342 18.7313 5.9836 18.6592 5.98361 18.5841V17.1676C5.97843 17.0877 5.99035 17.0076 6.01856 16.9327C6.04678 16.8578 6.09065 16.7898 6.14724 16.7332C6.20383 16.6765 6.27185 16.6327 6.34674 16.6044C6.42164 16.5762 6.5017 16.5642 6.58158 16.5694C7.03347 16.5699 7.39975 16.936 7.40012 17.3879V18.5841C7.40013 18.6213 7.39281 18.6581 7.37858 18.6925C7.36435 18.7269 7.34348 18.7581 7.31718 18.7844C7.29088 18.8108 7.25965 18.8316 7.22528 18.8459C7.19091 18.8601 7.15407 18.8675 7.11687 18.8675ZM9.38345 19.1507H8.25016C8.21295 19.1507 8.17611 19.1434 8.14173 19.1292C8.10736 19.115 8.07612 19.0941 8.04981 19.0678C8.02349 19.0415 8.00261 19.0103 7.98837 18.9759C7.97412 18.9415 7.96679 18.9047 7.96678 18.8675V17.1675C7.9621 17.0712 7.97763 16.9749 8.01237 16.8849C8.04712 16.795 8.1003 16.7132 8.1685 16.645C8.23671 16.5768 8.31842 16.5237 8.4084 16.4889C8.49839 16.4542 8.59464 16.4386 8.69098 16.4433C9.22975 16.444 9.6663 16.8807 9.66679 17.4194V18.8675C9.66679 19.0239 9.53996 19.1507 9.38345 19.1507ZM11.9334 19.4341H10.5167C10.4416 19.4341 10.3695 19.4042 10.3164 19.3511C10.2633 19.2979 10.2335 19.2259 10.2335 19.1507V17.1676C10.228 17.0545 10.2462 16.9415 10.287 16.8359C10.3277 16.7303 10.3901 16.6344 10.4702 16.5543C10.5502 16.4743 10.6461 16.4119 10.7517 16.3711C10.8573 16.3303 10.9703 16.3121 11.0834 16.3175C11.7093 16.3175 12.2167 16.8249 12.2167 17.4508V19.1508C12.2167 19.188 12.2093 19.2248 12.1951 19.2592C12.1809 19.2936 12.16 19.3248 12.1337 19.3511C12.1074 19.3774 12.0762 19.3983 12.0418 19.4125C12.0074 19.4268 11.9706 19.4341 11.9334 19.4341ZM14.7666 19.1507C14.7666 19.2259 14.7368 19.2979 14.6837 19.3511C14.6305 19.4042 14.5585 19.4341 14.4834 19.4341H13.0667C12.9915 19.4341 12.9194 19.4042 12.8663 19.3511C12.8131 19.2979 12.7833 19.2259 12.7833 19.1507V17.4508C12.7833 16.8249 13.2908 16.3175 13.9167 16.3175C14.0298 16.3121 14.1427 16.3303 14.2483 16.3711C14.3539 16.4119 14.4498 16.4744 14.5298 16.5544C14.6098 16.6344 14.6723 16.7303 14.713 16.8359C14.7538 16.9415 14.772 17.0545 14.7666 17.1676V19.1507ZM17.0332 18.8675C17.0332 19.0239 16.9063 19.1507 16.7499 19.1507H15.6166C15.5794 19.1507 15.5426 19.1434 15.5082 19.1292C15.4738 19.115 15.4426 19.0941 15.4163 19.0678C15.39 19.0415 15.3691 19.0103 15.3548 18.9759C15.3406 18.9415 15.3332 18.9047 15.3332 18.8675V17.4194C15.3337 16.8807 15.7703 16.4439 16.3091 16.4433C16.4054 16.4386 16.5017 16.4541 16.5917 16.4889C16.6817 16.5236 16.7634 16.5768 16.8316 16.645C16.8998 16.7132 16.953 16.7949 16.9877 16.8849C17.0224 16.9749 17.0379 17.0712 17.0332 17.1676V18.8675ZM19.0165 18.5841C19.0165 18.6592 18.9866 18.7313 18.9335 18.7844C18.8804 18.8376 18.8084 18.8674 18.7332 18.8675H17.8832C17.846 18.8675 17.8091 18.8601 17.7747 18.8459C17.7404 18.8316 17.7091 18.8108 17.6828 18.7845C17.6565 18.7581 17.6357 18.7269 17.6214 18.6925C17.6072 18.6581 17.5999 18.6213 17.5999 18.5841V17.3879C17.6003 16.936 17.9665 16.5699 18.4184 16.5694C18.4983 16.5642 18.5784 16.5762 18.6533 16.6044C18.7282 16.6326 18.7962 16.6765 18.8528 16.7331C18.9094 16.7897 18.9533 16.8578 18.9815 16.9327C19.0097 17.0076 19.0216 17.0877 19.0165 17.1676V18.5841ZM20.1497 18.0174C20.1498 18.0546 20.1424 18.0915 20.1282 18.1259C20.114 18.1602 20.0931 18.1915 20.0668 18.2178C20.0405 18.2441 20.0093 18.265 19.9749 18.2792C19.9405 18.2935 19.9037 18.3008 19.8665 18.3008H19.5831V17.4089C19.5613 17.1905 19.7131 16.9928 19.9296 16.9576C20.1394 16.9576 20.1498 17.2125 20.1498 17.2618L20.1497 18.0174ZM20.8915 3.61885L20.9811 3.3863C21.0372 3.24015 20.9644 3.0761 20.8182 3.01992C20.672 2.96377 20.508 3.03665 20.4518 3.18281L20.3626 3.41549C19.598 5.37936 17.7102 6.67594 15.6027 6.68447H9.39782C7.29028 6.67621 5.40204 5.37966 4.6375 3.41549L4.54828 3.18281C4.49207 3.03665 4.32802 2.96377 4.18187 3.01992C4.03568 3.0761 3.9628 3.24015 4.01894 3.3863L4.10846 3.61885C4.9581 5.801 7.05564 7.24154 9.39733 7.25114H15.6021C17.944 7.24177 20.0418 5.80113 20.8915 3.61885ZM10.8001 11.2176C10.9565 11.2176 11.0833 11.0908 11.0833 10.9344V8.78504L11.4497 9.15143C11.5609 9.25867 11.7377 9.25728 11.8468 9.14794C11.8994 9.09544 11.9292 9.02438 11.9299 8.9501C11.9305 8.87581 11.902 8.80424 11.8504 8.75081L11.0004 7.90077C10.9979 7.89818 10.9944 7.89738 10.9919 7.89506C10.9677 7.87138 10.9395 7.85218 10.9085 7.83838C10.9063 7.83838 10.9035 7.83838 10.9012 7.83672C10.8726 7.82606 10.8425 7.82012 10.8119 7.81919C10.8024 7.81919 10.7931 7.81985 10.7836 7.82085C10.7599 7.82225 10.7365 7.82683 10.714 7.83446C10.7043 7.83722 10.6948 7.84044 10.6856 7.84436C10.654 7.85792 10.6253 7.87713 10.6006 7.90103L9.7506 8.75104C9.69898 8.80447 9.67042 8.87604 9.67108 8.95033C9.67174 9.02461 9.70156 9.09567 9.75412 9.14817C9.80662 9.20072 9.87767 9.23053 9.95194 9.23119C10.0262 9.23185 10.0978 9.2033 10.1512 9.15169L10.5167 8.78504V10.9343C10.5167 11.0908 10.6435 11.2176 10.8001 11.2176ZM14.2 11.2176C14.2751 11.2176 14.3471 11.1878 14.4003 11.1347C14.4534 11.0816 14.4833 11.0095 14.4833 10.9344V8.78504L14.8496 9.15143C14.9031 9.20264 14.9745 9.23087 15.0486 9.23006C15.1227 9.22925 15.1935 9.19946 15.2459 9.14708C15.2982 9.09471 15.328 9.0239 15.3288 8.94983C15.3296 8.87576 15.3014 8.80432 15.2502 8.75081L14.4003 7.90077C14.3977 7.89818 14.3944 7.89738 14.3918 7.89506C14.3676 7.87138 14.3394 7.85219 14.3085 7.83838C14.3062 7.83838 14.3033 7.83838 14.3011 7.83672C14.2726 7.82606 14.2424 7.82012 14.2119 7.81919C14.2024 7.81919 14.1929 7.81985 14.1835 7.82085C14.1598 7.82226 14.1363 7.82684 14.1138 7.83446C14.1042 7.83722 14.0948 7.84044 14.0856 7.84436C14.054 7.85788 14.0251 7.87709 14.0005 7.90103L13.1506 8.75104C13.0992 8.80452 13.0708 8.87602 13.0716 8.95019C13.0723 9.02435 13.1021 9.09527 13.1545 9.14772C13.207 9.20017 13.2779 9.22996 13.3521 9.23071C13.4262 9.23145 13.4977 9.20308 13.5512 9.15169L13.9167 8.78504V10.9343C13.9167 11.0908 14.0435 11.2176 14.2 11.2176ZM18.1666 11.7843C18.323 11.7843 18.4498 11.6574 18.4498 11.501V9.35164L18.8162 9.71802C18.8697 9.76961 18.9412 9.79815 19.0155 9.7975C19.0898 9.79685 19.1608 9.76705 19.2133 9.71454C19.2659 9.66203 19.2957 9.59098 19.2964 9.51669C19.297 9.4424 19.2685 9.37083 19.2169 9.3174L18.3668 8.46736C18.3642 8.46477 18.3608 8.46401 18.3584 8.46169C18.3341 8.43804 18.3059 8.41886 18.275 8.40501C18.2725 8.40501 18.2699 8.40501 18.2673 8.40332C18.2388 8.39277 18.2088 8.38685 18.1784 8.38579C18.1689 8.38579 18.1594 8.38645 18.1501 8.38748C18.1263 8.38889 18.1027 8.39346 18.0801 8.40109C18.0708 8.40421 18.0617 8.4068 18.0518 8.41072C18.0203 8.42433 17.9915 8.44352 17.9668 8.46736L17.1169 9.31744C17.0652 9.37086 17.0367 9.44242 17.0373 9.5167C17.038 9.59098 17.0678 9.66203 17.1203 9.71454C17.2296 9.8239 17.4063 9.82533 17.5175 9.71805L17.8832 9.35167V11.501C17.8832 11.6574 18.0101 11.7842 18.1666 11.7842L18.1666 11.7843ZM6.55024 11.7843C6.70662 11.7843 6.83346 11.6574 6.83346 11.501V9.35164L7.19987 9.71802C7.31104 9.82526 7.4878 9.82387 7.59697 9.71454C7.64953 9.66203 7.67935 9.59098 7.68 9.51669C7.68066 9.4424 7.65211 9.37083 7.60049 9.3174L6.75048 8.4674C6.74803 8.46481 6.74451 8.46404 6.74205 8.46172C6.71779 8.43808 6.68956 8.41889 6.65865 8.40504C6.65645 8.40504 6.6536 8.40504 6.65101 8.40335C6.62251 8.39269 6.59244 8.38685 6.56203 8.38608C6.55258 8.38592 6.54313 8.38639 6.53374 8.38751C6.5099 8.38892 6.48635 8.3935 6.46372 8.40112C6.42116 8.41344 6.38228 8.43601 6.3505 8.46687L5.50046 9.31677C5.44924 9.37029 5.42101 9.44173 5.42182 9.5158C5.42264 9.58987 5.45242 9.66067 5.5048 9.71305C5.55718 9.76543 5.62798 9.79521 5.70205 9.79602C5.77612 9.79683 5.84756 9.76861 5.90107 9.71739L6.26683 9.35167V11.501C6.26683 11.6574 6.39366 11.7842 6.55024 11.7842V11.7843Z" fill="#5E6D6D" fill-opacity="0.5"/>
</g>
<defs>
<clipPath id="clip0_1_1670">
<rect width="17" height="17" fill="white" transform="translate(4 3)"/>
</clipPath>
</defs>
</svg>
