<svg width="24" height="24" viewBox="0 0 24 24" fill="none" xmlns="http://www.w3.org/2000/svg">
<g clip-path="url(#clip0_1_1676)">
<mask id="path-1-outside-1_1_1676" maskUnits="userSpaceOnUse" x="2" y="2" width="20" height="20" fill="black">
<rect fill="white" x="2" y="2" width="20" height="20"/>
<path d="M11.5267 13.4232C11.4829 13.4233 11.4402 13.41 11.4042 13.3851C11.3682 13.3602 11.3406 13.3249 11.3252 13.2839C11.3098 13.243 11.3072 13.1983 11.3178 13.1558C11.3285 13.1134 11.3518 13.0752 11.3847 13.0463L11.6196 12.8404C11.7262 12.7471 11.8633 12.696 12.005 12.6967C12.1467 12.6974 12.2832 12.75 12.3888 12.8444L12.6167 13.0478C12.6577 13.0862 12.682 13.1391 12.6845 13.1953C12.687 13.2514 12.6674 13.3063 12.6299 13.3482C12.5924 13.3901 12.54 13.4156 12.484 13.4194C12.4279 13.4231 12.3726 13.4048 12.3298 13.3683L12.1028 13.1648C12.0756 13.1404 12.0404 13.1269 12.0038 13.1267C11.9673 13.1265 11.9319 13.1397 11.9045 13.1638L11.6695 13.3697C11.6301 13.4045 11.5793 13.4235 11.5267 13.4232ZM12 14.7879C11.9429 14.7879 11.8882 14.7652 11.8479 14.7249C11.8075 14.6845 11.7849 14.6298 11.7849 14.5727V13.6526C11.7849 13.5955 11.8075 13.5408 11.8479 13.5004C11.8882 13.4601 11.9429 13.4374 12 13.4374C12.057 13.4374 12.1118 13.4601 12.1521 13.5004C12.1924 13.5408 12.2151 13.5955 12.2151 13.6526V14.5727C12.2151 14.6298 12.1924 14.6845 12.1521 14.7249C12.1118 14.7652 12.057 14.7879 12 14.7879ZM20.2595 3.64103C19.0118 2.32258 15.1575 3.30084 13.0216 4.22719C12.699 4.36648 12.3513 4.43834 12 4.43834C11.6486 4.43834 11.301 4.36648 10.9784 4.22719C8.84246 3.30084 4.98849 2.32258 3.74045 3.64103C2.81267 4.62159 2.75186 6.3812 3.58571 7.84838C3.55975 8.5401 3.6544 9.2995 3.74347 9.51205C3.92346 9.94546 4.92309 10.1566 5.53836 10.1566C5.5986 10.1566 5.65539 10.1546 5.70717 10.1506C5.82659 10.1438 5.94429 10.1189 6.05625 10.0768C6.4148 10.4506 7.38589 10.6086 8.03544 10.6086C8.12378 10.6086 8.2061 10.6056 8.28025 10.6C8.4534 10.5921 8.62393 10.5547 8.78452 10.4895C8.90949 10.6592 9.09518 10.7741 9.30283 10.8101C9.79615 10.8987 10.2965 10.9423 10.7977 10.9402C11.02 10.9402 11.2389 10.9318 11.4457 10.9147C11.6491 10.9023 11.8433 10.8253 12 10.6948C12.1565 10.8254 12.3507 10.9027 12.5542 10.9153C12.7611 10.9323 12.9798 10.9406 13.2023 10.9406C13.7035 10.9427 14.2038 10.8992 14.6971 10.8107C14.9049 10.7745 15.0906 10.6594 15.2154 10.4895C15.3761 10.5547 15.5467 10.5921 15.72 10.6C15.7941 10.6056 15.8765 10.6086 15.9648 10.6086C16.6146 10.6086 17.5854 10.4509 17.944 10.0768C18.056 10.1189 18.1737 10.1438 18.2931 10.1506C18.3449 10.1546 18.4015 10.1566 18.4619 10.1566C19.0772 10.1566 20.0768 9.94546 20.2568 9.51205C20.3453 9.29893 20.4399 8.53952 20.4145 7.84838C21.2481 6.3812 21.1873 4.62159 20.2595 3.64103ZM4.78455 9.63596C4.34511 9.53256 4.16039 9.39674 4.13988 9.34726C4.01496 9.04608 3.91657 7.44279 4.16856 7.01067C4.33866 6.71996 4.67899 6.74993 4.81753 6.77632C5.06479 6.83326 5.29167 6.95699 5.47343 7.13402C5.65519 7.31105 5.78486 7.53459 5.84829 7.78026C5.86522 7.85309 5.86925 7.92833 5.86019 8.00256C5.79962 8.56174 5.80718 9.12622 5.88271 9.68358C5.74216 9.7365 5.31377 9.76074 4.78498 9.63625L4.78455 9.63596ZM7.32135 10.1201C6.65545 10.0122 6.37478 9.82585 6.34337 9.75271C6.19866 9.41653 6.21085 7.59683 6.51548 7.01856C6.63021 6.80157 6.9803 6.71379 7.3879 6.80027C7.94035 6.91745 8.51733 7.34111 8.60051 8.02881C8.60524 8.07254 8.60567 8.11664 8.6018 8.16046C8.56241 8.77055 8.56495 9.38262 8.6094 9.99236C8.61198 10.0271 8.61844 10.0596 8.62374 10.0928C8.4885 10.1663 7.99643 10.2299 7.32178 10.1204L7.32135 10.1201ZM11.71 10.3762C11.6265 10.4486 11.5193 10.4878 11.4088 10.4862C10.7318 10.5388 10.0509 10.5058 9.38214 10.3879C9.28317 10.3695 9.19402 10.3163 9.13076 10.238C9.0675 10.1596 9.03428 10.0613 9.03708 9.96067C9.01255 9.6308 8.945 8.4823 9.10319 7.56556C9.13174 7.34155 9.24249 7.13613 9.41396 6.98918C9.58543 6.84223 9.80538 6.76422 10.0311 6.7703C10.3894 6.76659 10.7387 6.88249 11.0237 7.09965C11.3088 7.31682 11.5132 7.62284 11.6047 7.96929C11.8455 8.99445 11.8174 10.1435 11.711 10.3764L11.71 10.3762ZM14.9604 9.96024C14.9632 10.0609 14.93 10.1592 14.8667 10.2375C14.8035 10.3158 14.7143 10.3689 14.6154 10.3873C13.9466 10.5054 13.2656 10.5384 12.5886 10.4856C12.478 10.4872 12.3708 10.4479 12.2874 10.3754C12.1811 10.1427 12.153 8.99359 12.3924 7.96914C12.4823 7.62915 12.6809 7.32788 12.9579 7.1113C13.235 6.89472 13.5753 6.77471 13.927 6.76958H13.9653C14.191 6.7635 14.4109 6.84151 14.5824 6.98846C14.7539 7.13542 14.8646 7.34083 14.8932 7.56484C15.0535 8.48258 14.986 9.6308 14.9614 9.96109L14.9604 9.96024ZM17.655 9.75199C17.6236 9.82528 17.3431 10.0116 16.6772 10.1196C16.0031 10.2291 15.5106 10.1653 15.3754 10.092C15.4215 9.44839 15.4287 8.80255 15.397 8.15803C15.3934 8.11505 15.3939 8.07183 15.3984 8.02895C15.4812 7.34054 16.0582 6.91673 16.6112 6.79941C17.0194 6.71336 17.3697 6.8007 17.4836 7.0177C17.7887 7.59711 17.8009 9.41682 17.656 9.75285L17.655 9.75199ZM19.8594 9.34755C19.8389 9.39703 19.6541 9.53285 19.214 9.63625C18.6848 9.76103 18.2567 9.73664 18.1152 9.68444C18.1908 9.12708 18.1983 8.56261 18.1378 8.00342C18.1287 7.92919 18.1327 7.85395 18.1497 7.78112C18.2131 7.53545 18.3428 7.31191 18.5245 7.13488C18.7063 6.95785 18.9332 6.83412 19.1804 6.77718C19.3187 6.75094 19.6593 6.72068 19.8294 7.01139C20.083 7.44308 19.9846 9.0468 19.8594 9.34755ZM20.2014 6.79368C19.9876 6.42796 19.5765 6.26303 19.1007 6.35395C18.6423 6.45246 18.2406 6.72615 17.9811 7.11666C17.9524 7.01361 17.9138 6.91357 17.8658 6.81792C17.6579 6.42251 17.1305 6.24997 16.5231 6.3792C16.0054 6.48642 15.5489 6.7892 15.2487 7.22451C15.1563 6.96305 14.9842 6.73715 14.7567 6.57855C14.5292 6.41995 14.2578 6.33664 13.9805 6.34033C13.5384 6.33336 13.1061 6.47043 12.7488 6.73085C12.3915 6.99126 12.1287 7.36087 12 7.78385C11.872 7.36057 11.6093 6.99062 11.2519 6.7302C10.8945 6.46977 10.4619 6.33309 10.0198 6.3409C9.74249 6.33721 9.47102 6.42053 9.24353 6.57912C9.01604 6.73772 8.84397 6.96363 8.75153 7.22508C8.45137 6.78977 7.99489 6.48699 7.4771 6.37977C6.86958 6.25069 6.34237 6.42279 6.13441 6.81849C6.08633 6.91394 6.04752 7.01379 6.01853 7.11666C5.7591 6.72615 5.35736 6.45246 4.899 6.35395C4.4237 6.26346 4.01209 6.42796 3.79811 6.79382C3.75143 6.8779 3.71539 6.96746 3.69083 7.06044C3.25699 5.90649 3.38047 4.64827 4.05311 3.93691C4.9829 2.95391 8.28312 3.5273 10.8073 4.62188C11.1839 4.78451 11.5898 4.86841 12 4.86841C12.4102 4.86841 12.8161 4.78451 13.1927 4.62188C15.7168 3.5273 19.0172 2.95405 19.9468 3.93691C20.6201 4.64827 20.743 5.90649 20.3091 7.06044C20.2846 6.96739 20.2482 6.87778 20.2014 6.79368ZM20.3867 16.4557C20.2807 16.2768 20.1286 16.1296 19.9464 16.0294C19.7641 15.9292 19.5584 15.8797 19.3505 15.886C19.1054 15.8934 18.8641 15.949 18.6405 16.0496C18.4168 16.1502 18.2152 16.2939 18.0471 16.4725C17.8482 16.1109 17.4313 15.9037 16.8998 15.9037C16.4239 15.9079 15.9615 16.062 15.5781 16.344C15.4747 16.4213 15.382 16.5119 15.3022 16.6135C15.155 16.3851 14.951 16.1988 14.7102 16.0728C14.4694 15.9468 14.2 15.8854 13.9284 15.8946C13.5394 15.9025 13.1588 16.0084 12.8216 16.2026C12.4845 16.3967 12.2019 16.6729 12 17.0054C11.798 16.673 11.5153 16.3969 11.1782 16.2028C10.841 16.0087 10.4604 15.9029 10.0714 15.8951C9.79994 15.8858 9.53069 15.9471 9.29 16.0731C9.0493 16.199 8.84539 16.3852 8.69818 16.6135C8.61823 16.5117 8.52532 16.4209 8.42181 16.3433C8.0384 16.0612 7.57588 15.9071 7.09991 15.9028C6.56926 15.9028 6.1522 16.1099 5.95256 16.4718C5.78452 16.2931 5.58293 16.1494 5.35931 16.0488C5.13569 15.9481 4.89442 15.8925 4.6493 15.8852C4.44131 15.8789 4.23545 15.9286 4.05315 16.0289C3.87086 16.1292 3.7188 16.2766 3.61281 16.4557C3.21023 17.1412 3.38248 18.9759 3.54383 19.3648C3.80887 20.0002 5.09577 20.143 5.52574 20.143C5.68588 20.1455 5.84571 20.1282 6.00161 20.0915C6.62921 20.5879 8.00661 20.5946 8.02296 20.5946C8.25784 20.6012 8.49247 20.5744 8.71983 20.515C8.86913 20.6589 9.05757 20.7554 9.26153 20.7926C9.7668 20.8831 10.2792 20.9278 10.7925 20.9261C11.0257 20.9261 11.2515 20.917 11.4634 20.8994C11.6519 20.8843 11.8349 20.8288 12 20.7366C12.165 20.8288 12.3479 20.8844 12.5364 20.8995C12.7488 20.9172 12.9745 20.9262 13.2077 20.9262C13.7203 20.928 14.2319 20.8834 14.7364 20.7931C14.9417 20.756 15.1313 20.6588 15.2814 20.5139C15.3248 20.5268 15.3707 20.5382 15.4191 20.5482C15.6025 20.5818 15.7887 20.5977 15.9751 20.5956C16.4139 20.5956 17.4704 20.4967 17.9946 20.0907C18.1517 20.1281 18.3129 20.1458 18.4744 20.1432C18.9046 20.1432 20.1912 19.9997 20.456 19.3657C20.6175 18.976 20.7897 17.1414 20.3867 16.4557ZM20.0587 19.2006C19.8708 19.6509 17.9806 19.9177 17.8845 19.5176C17.8762 19.5487 17.8661 19.5793 17.8544 19.6093C17.6751 20.0224 16.2007 20.2648 15.5052 20.1271C15.3087 20.0869 15.1739 20.0181 15.148 19.9148V19.9077C15.1213 20.025 15.0602 20.1317 14.9726 20.2142C14.885 20.2967 14.7748 20.3512 14.6561 20.3709C13.9685 20.4919 13.2683 20.5257 12.5722 20.4713C12.4188 20.4584 12.1663 20.3967 12.0932 20.2361C12.043 20.1271 11.957 20.1271 11.9068 20.2361C11.8336 20.3967 11.5812 20.4584 11.4277 20.4713C10.7317 20.5257 10.0315 20.4919 9.34385 20.3709C9.22514 20.3512 9.11496 20.2967 9.02736 20.2142C8.93976 20.1317 8.87869 20.025 8.85192 19.9077V19.9148C8.73002 20.3867 6.37507 20.1386 6.1456 19.6093C6.13386 19.5793 6.1238 19.5487 6.11548 19.5176C6.01939 19.9177 4.12912 19.6509 3.94124 19.2006C3.80499 18.8722 3.68022 17.1913 3.98427 16.6736C4.39445 15.9722 5.64793 16.3595 6.01078 17.3462C6.0153 17.3599 6.02429 17.3717 6.03632 17.3797C6.04835 17.3877 6.06272 17.3914 6.07712 17.3903C6.09152 17.3891 6.10511 17.3831 6.11571 17.3733C6.12631 17.3635 6.1333 17.3504 6.13556 17.3362C6.16698 17.1125 6.23075 16.8946 6.32487 16.6893C6.57299 16.2175 7.52386 16.2132 8.16494 16.6893C8.46182 16.9102 8.61241 17.3017 8.74006 17.6761C8.74422 17.6891 8.75283 17.7004 8.7644 17.7078C8.77596 17.7152 8.78976 17.7183 8.80339 17.7166C8.81701 17.7149 8.82961 17.7085 8.839 17.6984C8.84839 17.6884 8.85398 17.6754 8.85479 17.6617C8.86483 17.5212 8.87774 17.3849 8.89208 17.3003C9.15884 15.7585 11.4593 16.1644 11.815 17.6918C11.8451 17.818 11.8709 17.9486 11.8938 18.0791C11.898 18.1042 11.9109 18.1271 11.9304 18.1436C11.9498 18.1601 11.9745 18.1691 12 18.1691C12.0255 18.1691 12.0501 18.1601 12.0696 18.1436C12.089 18.1271 12.102 18.1042 12.1061 18.0791C12.1291 17.9486 12.1549 17.818 12.185 17.6918C12.5407 16.1644 14.8411 15.7585 15.1079 17.3003C15.115 17.3405 15.1208 17.3935 15.128 17.4523V17.4681C15.1351 17.5283 15.1409 17.5943 15.1452 17.6617C15.146 17.6754 15.1516 17.6884 15.161 17.6984C15.1703 17.7085 15.1829 17.7149 15.1966 17.7166C15.2102 17.7183 15.224 17.7152 15.2356 17.7078C15.2471 17.7004 15.2557 17.6891 15.2599 17.6761C15.2929 17.5814 15.3259 17.4853 15.3632 17.3921C15.453 17.119 15.6162 16.8758 15.835 16.6893C16.4761 16.2132 17.427 16.2175 17.6751 16.6893C17.7692 16.8946 17.833 17.1125 17.8644 17.3362C17.8667 17.3504 17.8736 17.3635 17.8842 17.3733C17.8948 17.3831 17.9084 17.3891 17.9228 17.3903C17.9372 17.3914 17.9516 17.3877 17.9636 17.3797C17.9757 17.3717 17.9847 17.3599 17.9892 17.3462C18.352 16.3595 19.6055 15.9722 20.0157 16.6736C20.3197 17.1907 20.195 18.8716 20.0587 19.2V19.2006Z"/>
</mask>
<path d="M11.5267 13.4232C11.4829 13.4233 11.4402 13.41 11.4042 13.3851C11.3682 13.3602 11.3406 13.3249 11.3252 13.2839C11.3098 13.243 11.3072 13.1983 11.3178 13.1558C11.3285 13.1134 11.3518 13.0752 11.3847 13.0463L11.6196 12.8404C11.7262 12.7471 11.8633 12.696 12.005 12.6967C12.1467 12.6974 12.2832 12.75 12.3888 12.8444L12.6167 13.0478C12.6577 13.0862 12.682 13.1391 12.6845 13.1953C12.687 13.2514 12.6674 13.3063 12.6299 13.3482C12.5924 13.3901 12.54 13.4156 12.484 13.4194C12.4279 13.4231 12.3726 13.4048 12.3298 13.3683L12.1028 13.1648C12.0756 13.1404 12.0404 13.1269 12.0038 13.1267C11.9673 13.1265 11.9319 13.1397 11.9045 13.1638L11.6695 13.3697C11.6301 13.4045 11.5793 13.4235 11.5267 13.4232ZM12 14.7879C11.9429 14.7879 11.8882 14.7652 11.8479 14.7249C11.8075 14.6845 11.7849 14.6298 11.7849 14.5727V13.6526C11.7849 13.5955 11.8075 13.5408 11.8479 13.5004C11.8882 13.4601 11.9429 13.4374 12 13.4374C12.057 13.4374 12.1118 13.4601 12.1521 13.5004C12.1924 13.5408 12.2151 13.5955 12.2151 13.6526V14.5727C12.2151 14.6298 12.1924 14.6845 12.1521 14.7249C12.1118 14.7652 12.057 14.7879 12 14.7879ZM20.2595 3.64103C19.0118 2.32258 15.1575 3.30084 13.0216 4.22719C12.699 4.36648 12.3513 4.43834 12 4.43834C11.6486 4.43834 11.301 4.36648 10.9784 4.22719C8.84246 3.30084 4.98849 2.32258 3.74045 3.64103C2.81267 4.62159 2.75186 6.3812 3.58571 7.84838C3.55975 8.5401 3.6544 9.2995 3.74347 9.51205C3.92346 9.94546 4.92309 10.1566 5.53836 10.1566C5.5986 10.1566 5.65539 10.1546 5.70717 10.1506C5.82659 10.1438 5.94429 10.1189 6.05625 10.0768C6.4148 10.4506 7.38589 10.6086 8.03544 10.6086C8.12378 10.6086 8.2061 10.6056 8.28025 10.6C8.4534 10.5921 8.62393 10.5547 8.78452 10.4895C8.90949 10.6592 9.09518 10.7741 9.30283 10.8101C9.79615 10.8987 10.2965 10.9423 10.7977 10.9402C11.02 10.9402 11.2389 10.9318 11.4457 10.9147C11.6491 10.9023 11.8433 10.8253 12 10.6948C12.1565 10.8254 12.3507 10.9027 12.5542 10.9153C12.7611 10.9323 12.9798 10.9406 13.2023 10.9406C13.7035 10.9427 14.2038 10.8992 14.6971 10.8107C14.9049 10.7745 15.0906 10.6594 15.2154 10.4895C15.3761 10.5547 15.5467 10.5921 15.72 10.6C15.7941 10.6056 15.8765 10.6086 15.9648 10.6086C16.6146 10.6086 17.5854 10.4509 17.944 10.0768C18.056 10.1189 18.1737 10.1438 18.2931 10.1506C18.3449 10.1546 18.4015 10.1566 18.4619 10.1566C19.0772 10.1566 20.0768 9.94546 20.2568 9.51205C20.3453 9.29893 20.4399 8.53952 20.4145 7.84838C21.2481 6.3812 21.1873 4.62159 20.2595 3.64103ZM4.78455 9.63596C4.34511 9.53256 4.16039 9.39674 4.13988 9.34726C4.01496 9.04608 3.91657 7.44279 4.16856 7.01067C4.33866 6.71996 4.67899 6.74993 4.81753 6.77632C5.06479 6.83326 5.29167 6.95699 5.47343 7.13402C5.65519 7.31105 5.78486 7.53459 5.84829 7.78026C5.86522 7.85309 5.86925 7.92833 5.86019 8.00256C5.79962 8.56174 5.80718 9.12622 5.88271 9.68358C5.74216 9.7365 5.31377 9.76074 4.78498 9.63625L4.78455 9.63596ZM7.32135 10.1201C6.65545 10.0122 6.37478 9.82585 6.34337 9.75271C6.19866 9.41653 6.21085 7.59683 6.51548 7.01856C6.63021 6.80157 6.9803 6.71379 7.3879 6.80027C7.94035 6.91745 8.51733 7.34111 8.60051 8.02881C8.60524 8.07254 8.60567 8.11664 8.6018 8.16046C8.56241 8.77055 8.56495 9.38262 8.6094 9.99236C8.61198 10.0271 8.61844 10.0596 8.62374 10.0928C8.4885 10.1663 7.99643 10.2299 7.32178 10.1204L7.32135 10.1201ZM11.71 10.3762C11.6265 10.4486 11.5193 10.4878 11.4088 10.4862C10.7318 10.5388 10.0509 10.5058 9.38214 10.3879C9.28317 10.3695 9.19402 10.3163 9.13076 10.238C9.0675 10.1596 9.03428 10.0613 9.03708 9.96067C9.01255 9.6308 8.945 8.4823 9.10319 7.56556C9.13174 7.34155 9.24249 7.13613 9.41396 6.98918C9.58543 6.84223 9.80538 6.76422 10.0311 6.7703C10.3894 6.76659 10.7387 6.88249 11.0237 7.09965C11.3088 7.31682 11.5132 7.62284 11.6047 7.96929C11.8455 8.99445 11.8174 10.1435 11.711 10.3764L11.71 10.3762ZM14.9604 9.96024C14.9632 10.0609 14.93 10.1592 14.8667 10.2375C14.8035 10.3158 14.7143 10.3689 14.6154 10.3873C13.9466 10.5054 13.2656 10.5384 12.5886 10.4856C12.478 10.4872 12.3708 10.4479 12.2874 10.3754C12.1811 10.1427 12.153 8.99359 12.3924 7.96914C12.4823 7.62915 12.6809 7.32788 12.9579 7.1113C13.235 6.89472 13.5753 6.77471 13.927 6.76958H13.9653C14.191 6.7635 14.4109 6.84151 14.5824 6.98846C14.7539 7.13542 14.8646 7.34083 14.8932 7.56484C15.0535 8.48258 14.986 9.6308 14.9614 9.96109L14.9604 9.96024ZM17.655 9.75199C17.6236 9.82528 17.3431 10.0116 16.6772 10.1196C16.0031 10.2291 15.5106 10.1653 15.3754 10.092C15.4215 9.44839 15.4287 8.80255 15.397 8.15803C15.3934 8.11505 15.3939 8.07183 15.3984 8.02895C15.4812 7.34054 16.0582 6.91673 16.6112 6.79941C17.0194 6.71336 17.3697 6.8007 17.4836 7.0177C17.7887 7.59711 17.8009 9.41682 17.656 9.75285L17.655 9.75199ZM19.8594 9.34755C19.8389 9.39703 19.6541 9.53285 19.214 9.63625C18.6848 9.76103 18.2567 9.73664 18.1152 9.68444C18.1908 9.12708 18.1983 8.56261 18.1378 8.00342C18.1287 7.92919 18.1327 7.85395 18.1497 7.78112C18.2131 7.53545 18.3428 7.31191 18.5245 7.13488C18.7063 6.95785 18.9332 6.83412 19.1804 6.77718C19.3187 6.75094 19.6593 6.72068 19.8294 7.01139C20.083 7.44308 19.9846 9.0468 19.8594 9.34755ZM20.2014 6.79368C19.9876 6.42796 19.5765 6.26303 19.1007 6.35395C18.6423 6.45246 18.2406 6.72615 17.9811 7.11666C17.9524 7.01361 17.9138 6.91357 17.8658 6.81792C17.6579 6.42251 17.1305 6.24997 16.5231 6.3792C16.0054 6.48642 15.5489 6.7892 15.2487 7.22451C15.1563 6.96305 14.9842 6.73715 14.7567 6.57855C14.5292 6.41995 14.2578 6.33664 13.9805 6.34033C13.5384 6.33336 13.1061 6.47043 12.7488 6.73085C12.3915 6.99126 12.1287 7.36087 12 7.78385C11.872 7.36057 11.6093 6.99062 11.2519 6.7302C10.8945 6.46977 10.4619 6.33309 10.0198 6.3409C9.74249 6.33721 9.47102 6.42053 9.24353 6.57912C9.01604 6.73772 8.84397 6.96363 8.75153 7.22508C8.45137 6.78977 7.99489 6.48699 7.4771 6.37977C6.86958 6.25069 6.34237 6.42279 6.13441 6.81849C6.08633 6.91394 6.04752 7.01379 6.01853 7.11666C5.7591 6.72615 5.35736 6.45246 4.899 6.35395C4.4237 6.26346 4.01209 6.42796 3.79811 6.79382C3.75143 6.8779 3.71539 6.96746 3.69083 7.06044C3.25699 5.90649 3.38047 4.64827 4.05311 3.93691C4.9829 2.95391 8.28312 3.5273 10.8073 4.62188C11.1839 4.78451 11.5898 4.86841 12 4.86841C12.4102 4.86841 12.8161 4.78451 13.1927 4.62188C15.7168 3.5273 19.0172 2.95405 19.9468 3.93691C20.6201 4.64827 20.743 5.90649 20.3091 7.06044C20.2846 6.96739 20.2482 6.87778 20.2014 6.79368ZM20.3867 16.4557C20.2807 16.2768 20.1286 16.1296 19.9464 16.0294C19.7641 15.9292 19.5584 15.8797 19.3505 15.886C19.1054 15.8934 18.8641 15.949 18.6405 16.0496C18.4168 16.1502 18.2152 16.2939 18.0471 16.4725C17.8482 16.1109 17.4313 15.9037 16.8998 15.9037C16.4239 15.9079 15.9615 16.062 15.5781 16.344C15.4747 16.4213 15.382 16.5119 15.3022 16.6135C15.155 16.3851 14.951 16.1988 14.7102 16.0728C14.4694 15.9468 14.2 15.8854 13.9284 15.8946C13.5394 15.9025 13.1588 16.0084 12.8216 16.2026C12.4845 16.3967 12.2019 16.6729 12 17.0054C11.798 16.673 11.5153 16.3969 11.1782 16.2028C10.841 16.0087 10.4604 15.9029 10.0714 15.8951C9.79994 15.8858 9.53069 15.9471 9.29 16.0731C9.0493 16.199 8.84539 16.3852 8.69818 16.6135C8.61823 16.5117 8.52532 16.4209 8.42181 16.3433C8.0384 16.0612 7.57588 15.9071 7.09991 15.9028C6.56926 15.9028 6.1522 16.1099 5.95256 16.4718C5.78452 16.2931 5.58293 16.1494 5.35931 16.0488C5.13569 15.9481 4.89442 15.8925 4.6493 15.8852C4.44131 15.8789 4.23545 15.9286 4.05315 16.0289C3.87086 16.1292 3.7188 16.2766 3.61281 16.4557C3.21023 17.1412 3.38248 18.9759 3.54383 19.3648C3.80887 20.0002 5.09577 20.143 5.52574 20.143C5.68588 20.1455 5.84571 20.1282 6.00161 20.0915C6.62921 20.5879 8.00661 20.5946 8.02296 20.5946C8.25784 20.6012 8.49247 20.5744 8.71983 20.515C8.86913 20.6589 9.05757 20.7554 9.26153 20.7926C9.7668 20.8831 10.2792 20.9278 10.7925 20.9261C11.0257 20.9261 11.2515 20.917 11.4634 20.8994C11.6519 20.8843 11.8349 20.8288 12 20.7366C12.165 20.8288 12.3479 20.8844 12.5364 20.8995C12.7488 20.9172 12.9745 20.9262 13.2077 20.9262C13.7203 20.928 14.2319 20.8834 14.7364 20.7931C14.9417 20.756 15.1313 20.6588 15.2814 20.5139C15.3248 20.5268 15.3707 20.5382 15.4191 20.5482C15.6025 20.5818 15.7887 20.5977 15.9751 20.5956C16.4139 20.5956 17.4704 20.4967 17.9946 20.0907C18.1517 20.1281 18.3129 20.1458 18.4744 20.1432C18.9046 20.1432 20.1912 19.9997 20.456 19.3657C20.6175 18.976 20.7897 17.1414 20.3867 16.4557ZM20.0587 19.2006C19.8708 19.6509 17.9806 19.9177 17.8845 19.5176C17.8762 19.5487 17.8661 19.5793 17.8544 19.6093C17.6751 20.0224 16.2007 20.2648 15.5052 20.1271C15.3087 20.0869 15.1739 20.0181 15.148 19.9148V19.9077C15.1213 20.025 15.0602 20.1317 14.9726 20.2142C14.885 20.2967 14.7748 20.3512 14.6561 20.3709C13.9685 20.4919 13.2683 20.5257 12.5722 20.4713C12.4188 20.4584 12.1663 20.3967 12.0932 20.2361C12.043 20.1271 11.957 20.1271 11.9068 20.2361C11.8336 20.3967 11.5812 20.4584 11.4277 20.4713C10.7317 20.5257 10.0315 20.4919 9.34385 20.3709C9.22514 20.3512 9.11496 20.2967 9.02736 20.2142C8.93976 20.1317 8.87869 20.025 8.85192 19.9077V19.9148C8.73002 20.3867 6.37507 20.1386 6.1456 19.6093C6.13386 19.5793 6.1238 19.5487 6.11548 19.5176C6.01939 19.9177 4.12912 19.6509 3.94124 19.2006C3.80499 18.8722 3.68022 17.1913 3.98427 16.6736C4.39445 15.9722 5.64793 16.3595 6.01078 17.3462C6.0153 17.3599 6.02429 17.3717 6.03632 17.3797C6.04835 17.3877 6.06272 17.3914 6.07712 17.3903C6.09152 17.3891 6.10511 17.3831 6.11571 17.3733C6.12631 17.3635 6.1333 17.3504 6.13556 17.3362C6.16698 17.1125 6.23075 16.8946 6.32487 16.6893C6.57299 16.2175 7.52386 16.2132 8.16494 16.6893C8.46182 16.9102 8.61241 17.3017 8.74006 17.6761C8.74422 17.6891 8.75283 17.7004 8.7644 17.7078C8.77596 17.7152 8.78976 17.7183 8.80339 17.7166C8.81701 17.7149 8.82961 17.7085 8.839 17.6984C8.84839 17.6884 8.85398 17.6754 8.85479 17.6617C8.86483 17.5212 8.87774 17.3849 8.89208 17.3003C9.15884 15.7585 11.4593 16.1644 11.815 17.6918C11.8451 17.818 11.8709 17.9486 11.8938 18.0791C11.898 18.1042 11.9109 18.1271 11.9304 18.1436C11.9498 18.1601 11.9745 18.1691 12 18.1691C12.0255 18.1691 12.0501 18.1601 12.0696 18.1436C12.089 18.1271 12.102 18.1042 12.1061 18.0791C12.1291 17.9486 12.1549 17.818 12.185 17.6918C12.5407 16.1644 14.8411 15.7585 15.1079 17.3003C15.115 17.3405 15.1208 17.3935 15.128 17.4523V17.4681C15.1351 17.5283 15.1409 17.5943 15.1452 17.6617C15.146 17.6754 15.1516 17.6884 15.161 17.6984C15.1703 17.7085 15.1829 17.7149 15.1966 17.7166C15.2102 17.7183 15.224 17.7152 15.2356 17.7078C15.2471 17.7004 15.2557 17.6891 15.2599 17.6761C15.2929 17.5814 15.3259 17.4853 15.3632 17.3921C15.453 17.119 15.6162 16.8758 15.835 16.6893C16.4761 16.2132 17.427 16.2175 17.6751 16.6893C17.7692 16.8946 17.833 17.1125 17.8644 17.3362C17.8667 17.3504 17.8736 17.3635 17.8842 17.3733C17.8948 17.3831 17.9084 17.3891 17.9228 17.3903C17.9372 17.3914 17.9516 17.3877 17.9636 17.3797C17.9757 17.3717 17.9847 17.3599 17.9892 17.3462C18.352 16.3595 19.6055 15.9722 20.0157 16.6736C20.3197 17.1907 20.195 18.8716 20.0587 19.2V19.2006Z" fill="#5E6D6D" fill-opacity="0.5"/>
<path d="M11.5267 13.4232C11.4829 13.4233 11.4402 13.41 11.4042 13.3851C11.3682 13.3602 11.3406 13.3249 11.3252 13.2839C11.3098 13.243 11.3072 13.1983 11.3178 13.1558C11.3285 13.1134 11.3518 13.0752 11.3847 13.0463L11.6196 12.8404C11.7262 12.7471 11.8633 12.696 12.005 12.6967C12.1467 12.6974 12.2832 12.75 12.3888 12.8444L12.6167 13.0478C12.6577 13.0862 12.682 13.1391 12.6845 13.1953C12.687 13.2514 12.6674 13.3063 12.6299 13.3482C12.5924 13.3901 12.54 13.4156 12.484 13.4194C12.4279 13.4231 12.3726 13.4048 12.3298 13.3683L12.1028 13.1648C12.0756 13.1404 12.0404 13.1269 12.0038 13.1267C11.9673 13.1265 11.9319 13.1397 11.9045 13.1638L11.6695 13.3697C11.6301 13.4045 11.5793 13.4235 11.5267 13.4232ZM12 14.7879C11.9429 14.7879 11.8882 14.7652 11.8479 14.7249C11.8075 14.6845 11.7849 14.6298 11.7849 14.5727V13.6526C11.7849 13.5955 11.8075 13.5408 11.8479 13.5004C11.8882 13.4601 11.9429 13.4374 12 13.4374C12.057 13.4374 12.1118 13.4601 12.1521 13.5004C12.1924 13.5408 12.2151 13.5955 12.2151 13.6526V14.5727C12.2151 14.6298 12.1924 14.6845 12.1521 14.7249C12.1118 14.7652 12.057 14.7879 12 14.7879ZM20.2595 3.64103C19.0118 2.32258 15.1575 3.30084 13.0216 4.22719C12.699 4.36648 12.3513 4.43834 12 4.43834C11.6486 4.43834 11.301 4.36648 10.9784 4.22719C8.84246 3.30084 4.98849 2.32258 3.74045 3.64103C2.81267 4.62159 2.75186 6.3812 3.58571 7.84838C3.55975 8.5401 3.6544 9.2995 3.74347 9.51205C3.92346 9.94546 4.92309 10.1566 5.53836 10.1566C5.5986 10.1566 5.65539 10.1546 5.70717 10.1506C5.82659 10.1438 5.94429 10.1189 6.05625 10.0768C6.4148 10.4506 7.38589 10.6086 8.03544 10.6086C8.12378 10.6086 8.2061 10.6056 8.28025 10.6C8.4534 10.5921 8.62393 10.5547 8.78452 10.4895C8.90949 10.6592 9.09518 10.7741 9.30283 10.8101C9.79615 10.8987 10.2965 10.9423 10.7977 10.9402C11.02 10.9402 11.2389 10.9318 11.4457 10.9147C11.6491 10.9023 11.8433 10.8253 12 10.6948C12.1565 10.8254 12.3507 10.9027 12.5542 10.9153C12.7611 10.9323 12.9798 10.9406 13.2023 10.9406C13.7035 10.9427 14.2038 10.8992 14.6971 10.8107C14.9049 10.7745 15.0906 10.6594 15.2154 10.4895C15.3761 10.5547 15.5467 10.5921 15.72 10.6C15.7941 10.6056 15.8765 10.6086 15.9648 10.6086C16.6146 10.6086 17.5854 10.4509 17.944 10.0768C18.056 10.1189 18.1737 10.1438 18.2931 10.1506C18.3449 10.1546 18.4015 10.1566 18.4619 10.1566C19.0772 10.1566 20.0768 9.94546 20.2568 9.51205C20.3453 9.29893 20.4399 8.53952 20.4145 7.84838C21.2481 6.3812 21.1873 4.62159 20.2595 3.64103ZM4.78455 9.63596C4.34511 9.53256 4.16039 9.39674 4.13988 9.34726C4.01496 9.04608 3.91657 7.44279 4.16856 7.01067C4.33866 6.71996 4.67899 6.74993 4.81753 6.77632C5.06479 6.83326 5.29167 6.95699 5.47343 7.13402C5.65519 7.31105 5.78486 7.53459 5.84829 7.78026C5.86522 7.85309 5.86925 7.92833 5.86019 8.00256C5.79962 8.56174 5.80718 9.12622 5.88271 9.68358C5.74216 9.7365 5.31377 9.76074 4.78498 9.63625L4.78455 9.63596ZM7.32135 10.1201C6.65545 10.0122 6.37478 9.82585 6.34337 9.75271C6.19866 9.41653 6.21085 7.59683 6.51548 7.01856C6.63021 6.80157 6.9803 6.71379 7.3879 6.80027C7.94035 6.91745 8.51733 7.34111 8.60051 8.02881C8.60524 8.07254 8.60567 8.11664 8.6018 8.16046C8.56241 8.77055 8.56495 9.38262 8.6094 9.99236C8.61198 10.0271 8.61844 10.0596 8.62374 10.0928C8.4885 10.1663 7.99643 10.2299 7.32178 10.1204L7.32135 10.1201ZM11.71 10.3762C11.6265 10.4486 11.5193 10.4878 11.4088 10.4862C10.7318 10.5388 10.0509 10.5058 9.38214 10.3879C9.28317 10.3695 9.19402 10.3163 9.13076 10.238C9.0675 10.1596 9.03428 10.0613 9.03708 9.96067C9.01255 9.6308 8.945 8.4823 9.10319 7.56556C9.13174 7.34155 9.24249 7.13613 9.41396 6.98918C9.58543 6.84223 9.80538 6.76422 10.0311 6.7703C10.3894 6.76659 10.7387 6.88249 11.0237 7.09965C11.3088 7.31682 11.5132 7.62284 11.6047 7.96929C11.8455 8.99445 11.8174 10.1435 11.711 10.3764L11.71 10.3762ZM14.9604 9.96024C14.9632 10.0609 14.93 10.1592 14.8667 10.2375C14.8035 10.3158 14.7143 10.3689 14.6154 10.3873C13.9466 10.5054 13.2656 10.5384 12.5886 10.4856C12.478 10.4872 12.3708 10.4479 12.2874 10.3754C12.1811 10.1427 12.153 8.99359 12.3924 7.96914C12.4823 7.62915 12.6809 7.32788 12.9579 7.1113C13.235 6.89472 13.5753 6.77471 13.927 6.76958H13.9653C14.191 6.7635 14.4109 6.84151 14.5824 6.98846C14.7539 7.13542 14.8646 7.34083 14.8932 7.56484C15.0535 8.48258 14.986 9.6308 14.9614 9.96109L14.9604 9.96024ZM17.655 9.75199C17.6236 9.82528 17.3431 10.0116 16.6772 10.1196C16.0031 10.2291 15.5106 10.1653 15.3754 10.092C15.4215 9.44839 15.4287 8.80255 15.397 8.15803C15.3934 8.11505 15.3939 8.07183 15.3984 8.02895C15.4812 7.34054 16.0582 6.91673 16.6112 6.79941C17.0194 6.71336 17.3697 6.8007 17.4836 7.0177C17.7887 7.59711 17.8009 9.41682 17.656 9.75285L17.655 9.75199ZM19.8594 9.34755C19.8389 9.39703 19.6541 9.53285 19.214 9.63625C18.6848 9.76103 18.2567 9.73664 18.1152 9.68444C18.1908 9.12708 18.1983 8.56261 18.1378 8.00342C18.1287 7.92919 18.1327 7.85395 18.1497 7.78112C18.2131 7.53545 18.3428 7.31191 18.5245 7.13488C18.7063 6.95785 18.9332 6.83412 19.1804 6.77718C19.3187 6.75094 19.6593 6.72068 19.8294 7.01139C20.083 7.44308 19.9846 9.0468 19.8594 9.34755ZM20.2014 6.79368C19.9876 6.42796 19.5765 6.26303 19.1007 6.35395C18.6423 6.45246 18.2406 6.72615 17.9811 7.11666C17.9524 7.01361 17.9138 6.91357 17.8658 6.81792C17.6579 6.42251 17.1305 6.24997 16.5231 6.3792C16.0054 6.48642 15.5489 6.7892 15.2487 7.22451C15.1563 6.96305 14.9842 6.73715 14.7567 6.57855C14.5292 6.41995 14.2578 6.33664 13.9805 6.34033C13.5384 6.33336 13.1061 6.47043 12.7488 6.73085C12.3915 6.99126 12.1287 7.36087 12 7.78385C11.872 7.36057 11.6093 6.99062 11.2519 6.7302C10.8945 6.46977 10.4619 6.33309 10.0198 6.3409C9.74249 6.33721 9.47102 6.42053 9.24353 6.57912C9.01604 6.73772 8.84397 6.96363 8.75153 7.22508C8.45137 6.78977 7.99489 6.48699 7.4771 6.37977C6.86958 6.25069 6.34237 6.42279 6.13441 6.81849C6.08633 6.91394 6.04752 7.01379 6.01853 7.11666C5.7591 6.72615 5.35736 6.45246 4.899 6.35395C4.4237 6.26346 4.01209 6.42796 3.79811 6.79382C3.75143 6.8779 3.71539 6.96746 3.69083 7.06044C3.25699 5.90649 3.38047 4.64827 4.05311 3.93691C4.9829 2.95391 8.28312 3.5273 10.8073 4.62188C11.1839 4.78451 11.5898 4.86841 12 4.86841C12.4102 4.86841 12.8161 4.78451 13.1927 4.62188C15.7168 3.5273 19.0172 2.95405 19.9468 3.93691C20.6201 4.64827 20.743 5.90649 20.3091 7.06044C20.2846 6.96739 20.2482 6.87778 20.2014 6.79368ZM20.3867 16.4557C20.2807 16.2768 20.1286 16.1296 19.9464 16.0294C19.7641 15.9292 19.5584 15.8797 19.3505 15.886C19.1054 15.8934 18.8641 15.949 18.6405 16.0496C18.4168 16.1502 18.2152 16.2939 18.0471 16.4725C17.8482 16.1109 17.4313 15.9037 16.8998 15.9037C16.4239 15.9079 15.9615 16.062 15.5781 16.344C15.4747 16.4213 15.382 16.5119 15.3022 16.6135C15.155 16.3851 14.951 16.1988 14.7102 16.0728C14.4694 15.9468 14.2 15.8854 13.9284 15.8946C13.5394 15.9025 13.1588 16.0084 12.8216 16.2026C12.4845 16.3967 12.2019 16.6729 12 17.0054C11.798 16.673 11.5153 16.3969 11.1782 16.2028C10.841 16.0087 10.4604 15.9029 10.0714 15.8951C9.79994 15.8858 9.53069 15.9471 9.29 16.0731C9.0493 16.199 8.84539 16.3852 8.69818 16.6135C8.61823 16.5117 8.52532 16.4209 8.42181 16.3433C8.0384 16.0612 7.57588 15.9071 7.09991 15.9028C6.56926 15.9028 6.1522 16.1099 5.95256 16.4718C5.78452 16.2931 5.58293 16.1494 5.35931 16.0488C5.13569 15.9481 4.89442 15.8925 4.6493 15.8852C4.44131 15.8789 4.23545 15.9286 4.05315 16.0289C3.87086 16.1292 3.7188 16.2766 3.61281 16.4557C3.21023 17.1412 3.38248 18.9759 3.54383 19.3648C3.80887 20.0002 5.09577 20.143 5.52574 20.143C5.68588 20.1455 5.84571 20.1282 6.00161 20.0915C6.62921 20.5879 8.00661 20.5946 8.02296 20.5946C8.25784 20.6012 8.49247 20.5744 8.71983 20.515C8.86913 20.6589 9.05757 20.7554 9.26153 20.7926C9.7668 20.8831 10.2792 20.9278 10.7925 20.9261C11.0257 20.9261 11.2515 20.917 11.4634 20.8994C11.6519 20.8843 11.8349 20.8288 12 20.7366C12.165 20.8288 12.3479 20.8844 12.5364 20.8995C12.7488 20.9172 12.9745 20.9262 13.2077 20.9262C13.7203 20.928 14.2319 20.8834 14.7364 20.7931C14.9417 20.756 15.1313 20.6588 15.2814 20.5139C15.3248 20.5268 15.3707 20.5382 15.4191 20.5482C15.6025 20.5818 15.7887 20.5977 15.9751 20.5956C16.4139 20.5956 17.4704 20.4967 17.9946 20.0907C18.1517 20.1281 18.3129 20.1458 18.4744 20.1432C18.9046 20.1432 20.1912 19.9997 20.456 19.3657C20.6175 18.976 20.7897 17.1414 20.3867 16.4557ZM20.0587 19.2006C19.8708 19.6509 17.9806 19.9177 17.8845 19.5176C17.8762 19.5487 17.8661 19.5793 17.8544 19.6093C17.6751 20.0224 16.2007 20.2648 15.5052 20.1271C15.3087 20.0869 15.1739 20.0181 15.148 19.9148V19.9077C15.1213 20.025 15.0602 20.1317 14.9726 20.2142C14.885 20.2967 14.7748 20.3512 14.6561 20.3709C13.9685 20.4919 13.2683 20.5257 12.5722 20.4713C12.4188 20.4584 12.1663 20.3967 12.0932 20.2361C12.043 20.1271 11.957 20.1271 11.9068 20.2361C11.8336 20.3967 11.5812 20.4584 11.4277 20.4713C10.7317 20.5257 10.0315 20.4919 9.34385 20.3709C9.22514 20.3512 9.11496 20.2967 9.02736 20.2142C8.93976 20.1317 8.87869 20.025 8.85192 19.9077V19.9148C8.73002 20.3867 6.37507 20.1386 6.1456 19.6093C6.13386 19.5793 6.1238 19.5487 6.11548 19.5176C6.01939 19.9177 4.12912 19.6509 3.94124 19.2006C3.80499 18.8722 3.68022 17.1913 3.98427 16.6736C4.39445 15.9722 5.64793 16.3595 6.01078 17.3462C6.0153 17.3599 6.02429 17.3717 6.03632 17.3797C6.04835 17.3877 6.06272 17.3914 6.07712 17.3903C6.09152 17.3891 6.10511 17.3831 6.11571 17.3733C6.12631 17.3635 6.1333 17.3504 6.13556 17.3362C6.16698 17.1125 6.23075 16.8946 6.32487 16.6893C6.57299 16.2175 7.52386 16.2132 8.16494 16.6893C8.46182 16.9102 8.61241 17.3017 8.74006 17.6761C8.74422 17.6891 8.75283 17.7004 8.7644 17.7078C8.77596 17.7152 8.78976 17.7183 8.80339 17.7166C8.81701 17.7149 8.82961 17.7085 8.839 17.6984C8.84839 17.6884 8.85398 17.6754 8.85479 17.6617C8.86483 17.5212 8.87774 17.3849 8.89208 17.3003C9.15884 15.7585 11.4593 16.1644 11.815 17.6918C11.8451 17.818 11.8709 17.9486 11.8938 18.0791C11.898 18.1042 11.9109 18.1271 11.9304 18.1436C11.9498 18.1601 11.9745 18.1691 12 18.1691C12.0255 18.1691 12.0501 18.1601 12.0696 18.1436C12.089 18.1271 12.102 18.1042 12.1061 18.0791C12.1291 17.9486 12.1549 17.818 12.185 17.6918C12.5407 16.1644 14.8411 15.7585 15.1079 17.3003C15.115 17.3405 15.1208 17.3935 15.128 17.4523V17.4681C15.1351 17.5283 15.1409 17.5943 15.1452 17.6617C15.146 17.6754 15.1516 17.6884 15.161 17.6984C15.1703 17.7085 15.1829 17.7149 15.1966 17.7166C15.2102 17.7183 15.224 17.7152 15.2356 17.7078C15.2471 17.7004 15.2557 17.6891 15.2599 17.6761C15.2929 17.5814 15.3259 17.4853 15.3632 17.3921C15.453 17.119 15.6162 16.8758 15.835 16.6893C16.4761 16.2132 17.427 16.2175 17.6751 16.6893C17.7692 16.8946 17.833 17.1125 17.8644 17.3362C17.8667 17.3504 17.8736 17.3635 17.8842 17.3733C17.8948 17.3831 17.9084 17.3891 17.9228 17.3903C17.9372 17.3914 17.9516 17.3877 17.9636 17.3797C17.9757 17.3717 17.9847 17.3599 17.9892 17.3462C18.352 16.3595 19.6055 15.9722 20.0157 16.6736C20.3197 17.1907 20.195 18.8716 20.0587 19.2V19.2006Z" stroke="#5E6D6D" stroke-opacity="0.5" stroke-width="0.4" mask="url(#path-1-outside-1_1_1676)"/>
</g>
<defs>
<clipPath id="clip0_1_1676">
<rect width="20" height="20" fill="white" transform="translate(2 2)"/>
</clipPath>
</defs>
</svg>
