<svg width="24" height="24" viewBox="0 0 24 24" fill="none" xmlns="http://www.w3.org/2000/svg">
<g clip-path="url(#clip0_1_1683)">
<path d="M11.5833 5.8164C9.975 5.8164 8.66667 4.50807 8.66667 2.89973C8.66667 2.7039 8.68583 2.51807 8.725 2.33057C8.73711 2.27255 8.76145 2.21779 8.79641 2.16993C8.83136 2.12207 8.87613 2.08222 8.92771 2.05304C8.97929 2.02386 9.0365 2.00601 9.09553 2.0007C9.15456 1.99539 9.21404 2.00273 9.27 2.02223C9.62583 2.14723 9.95833 2.28807 10.2858 2.45223C11.16 2.88473 12.0075 2.8839 12.8817 2.4514C13.2083 2.28807 13.54 2.14723 13.8958 2.02307C13.9517 2.00339 14.0111 1.99596 14.07 2.00128C14.129 2.0066 14.1861 2.02455 14.2375 2.0539C14.3425 2.11223 14.4167 2.2139 14.4408 2.3314C14.4808 2.51807 14.5 2.7039 14.5 2.89973C14.5 4.50807 13.1917 5.8164 11.5833 5.8164ZM9.5025 3.0064C9.55833 4.10557 10.47 4.98307 11.5833 4.98307C12.6967 4.98307 13.6083 4.10557 13.6642 3.0064C13.525 3.06557 13.3892 3.1289 13.2533 3.19723C12.1458 3.74723 11.0225 3.7464 9.915 3.19807C9.77934 3.13029 9.64179 3.06637 9.5025 3.0064ZM14.875 21.9997C14.4771 21.9975 14.0923 21.857 13.7864 21.6024C13.4806 21.3478 13.2727 20.9948 13.1983 20.6039L12.49 16.7672C12.4092 16.3222 12.0283 15.9997 11.5833 15.9997C11.1383 15.9997 10.7575 16.3222 10.6767 16.7656L9.9675 20.6006C9.89399 20.9921 9.68657 21.3458 9.38081 21.6011C9.07504 21.8563 8.68999 21.9973 8.29167 21.9997C7.86864 21.9994 7.46096 21.8412 7.14851 21.556C6.83605 21.2709 6.64133 20.8793 6.6025 20.4581L6.32833 17.8431C6.22298 16.8979 6.02736 15.9651 5.74417 15.0572L5.20417 13.3506C4.73802 11.89 4.50049 10.3662 4.5 8.83307C4.5 7.36307 5.685 6.1664 7.14167 6.1664C7.56917 6.1664 7.9575 6.2089 8.34583 6.29223C8.43664 6.31213 8.51826 6.36165 8.57785 6.43301C8.63743 6.50436 8.67161 6.5935 8.675 6.6864C8.72583 8.2639 10.0033 9.49973 11.5833 9.49973C13.1633 9.49973 14.4408 8.2639 14.4917 6.6864C14.4951 6.5935 14.5292 6.50436 14.5888 6.43301C14.6484 6.36165 14.73 6.31213 14.8208 6.29223C15.21 6.2089 15.5975 6.1664 15.975 6.1664C16.7383 6.1664 17.4042 6.44473 17.8983 6.94973C18.3933 7.45557 18.6667 8.12473 18.6667 8.83307C18.6667 10.3614 18.43 11.8822 17.9633 13.3506L17.4225 15.0581C17.1395 15.9665 16.9441 16.8999 16.8392 17.8456L16.565 20.4597C16.5254 20.8807 16.3303 21.2717 16.0178 21.5565C15.7053 21.8413 15.2978 21.9993 14.875 21.9997ZM11.5833 15.1664C11.9956 15.1675 12.3943 15.3133 12.7099 15.5785C13.0255 15.8437 13.2379 16.2114 13.31 16.6172L14.0175 20.4497C14.0983 20.8631 14.4583 21.1664 14.875 21.1664C15.32 21.1664 15.6908 20.8264 15.7358 20.3747L16.01 17.7556C16.1225 16.7481 16.33 15.7572 16.6267 14.8081L17.1683 13.0989C17.6092 11.7114 17.8333 10.2764 17.8333 8.83307C17.8333 8.35057 17.64 7.87723 17.3025 7.53307C17.1363 7.36293 16.9375 7.22802 16.718 7.13639C16.4985 7.04476 16.2628 6.99828 16.025 6.99973C15.7683 6.99973 15.5308 7.01723 15.2992 7.05223C15.0725 8.91723 13.5008 10.3331 11.5833 10.3331C9.66583 10.3331 8.09417 8.91723 7.8675 7.05223C7.64388 7.01765 7.41795 7.0001 7.19167 6.99973C6.145 6.99973 5.33333 7.82223 5.33333 8.83307C5.33333 10.2764 5.5575 11.7114 5.9975 13.0989L6.53833 14.8072C6.83583 15.7572 7.04333 16.7481 7.15583 17.7531L7.43 20.3731C7.47583 20.8264 7.84667 21.1664 8.29167 21.1664C8.70833 21.1664 9.06917 20.8631 9.14917 20.4456L9.8575 16.6156C9.92961 16.21 10.1419 15.8427 10.4574 15.5778C10.7729 15.3129 11.1714 15.1673 11.5833 15.1664Z" fill="#5E6D6D" fill-opacity="0.5"/>
</g>
<defs>
<clipPath id="clip0_1_1683">
<rect width="20" height="20" fill="white" transform="translate(2 2)"/>
</clipPath>
</defs>
</svg>
