<svg width="24" height="24" viewBox="0 0 24 24" fill="none" xmlns="http://www.w3.org/2000/svg">
<g clip-path="url(#clip0_1_1689)">
<mask id="path-1-outside-1_1_1689" maskUnits="userSpaceOnUse" x="10.7891" y="2.84668" width="9" height="17" fill="black">
<rect fill="white" x="10.7891" y="2.84668" width="9" height="17"/>
<path d="M12 19.0547C11.9441 19.0547 11.8904 19.0325 11.8508 18.9929C11.8113 18.9533 11.7891 18.8997 11.7891 18.8437V18.2812C11.7891 18.2253 11.8113 18.1716 11.8508 18.1321C11.8904 18.0925 11.9441 18.0703 12 18.0703C12.0559 18.0703 12.1096 18.0925 12.1492 18.1321C12.1887 18.1716 12.2109 18.2253 12.2109 18.2812V18.8437C12.2109 18.8997 12.1887 18.9533 12.1492 18.9929C12.1096 19.0325 12.0559 19.0547 12 19.0547ZM12 17.9297C11.9441 17.9297 11.8904 17.9075 11.8508 17.8679C11.8113 17.8283 11.7891 17.7747 11.7891 17.7187V17.1562C11.7891 17.1003 11.8113 17.0466 11.8508 17.0071C11.8904 16.9675 11.9441 16.9453 12 16.9453C12.0559 16.9453 12.1096 16.9675 12.1492 17.0071C12.1887 17.0466 12.2109 17.1003 12.2109 17.1562V17.7187C12.2109 17.7747 12.1887 17.8283 12.1492 17.8679C12.1096 17.9075 12.0559 17.9297 12 17.9297ZM12 16.8047C11.9441 16.8047 11.8904 16.7825 11.8508 16.7429C11.8113 16.7033 11.7891 16.6497 11.7891 16.5937V16.0312C11.7891 15.9753 11.8113 15.9216 11.8508 15.8821C11.8904 15.8425 11.9441 15.8203 12 15.8203C12.0559 15.8203 12.1096 15.8425 12.1492 15.8821C12.1887 15.9216 12.2109 15.9753 12.2109 16.0312V16.5937C12.2109 16.6497 12.1887 16.7033 12.1492 16.7429C12.1096 16.7825 12.0559 16.8047 12 16.8047ZM12 15.6797C11.9441 15.6797 11.8904 15.6575 11.8508 15.6179C11.8113 15.5783 11.7891 15.5247 11.7891 15.4687V14.9062C11.7891 14.8503 11.8113 14.7966 11.8508 14.7571C11.8904 14.7175 11.9441 14.6953 12 14.6953C12.0559 14.6953 12.1096 14.7175 12.1492 14.7571C12.1887 14.7966 12.2109 14.8503 12.2109 14.9062V15.4687C12.2109 15.5247 12.1887 15.5783 12.1492 15.6179C12.1096 15.6575 12.0559 15.6797 12 15.6797ZM12 14.5547C11.9441 14.5547 11.8904 14.5325 11.8508 14.4929C11.8113 14.4533 11.7891 14.3997 11.7891 14.3437V13.7812C11.7891 13.7253 11.8113 13.6716 11.8508 13.6321C11.8904 13.5925 11.9441 13.5703 12 13.5703C12.0559 13.5703 12.1096 13.5925 12.1492 13.6321C12.1887 13.6716 12.2109 13.7253 12.2109 13.7812V14.3437C12.2109 14.3997 12.1887 14.4533 12.1492 14.4929C12.1096 14.5325 12.0559 14.5547 12 14.5547ZM12 13.4297C11.9441 13.4297 11.8904 13.4075 11.8508 13.3679C11.8113 13.3283 11.7891 13.2747 11.7891 13.2187V12.6562C11.7891 12.6003 11.8113 12.5466 11.8508 12.5071C11.8904 12.4675 11.9441 12.4453 12 12.4453C12.0559 12.4453 12.1096 12.4675 12.1492 12.5071C12.1887 12.5466 12.2109 12.6003 12.2109 12.6562V13.2187C12.2109 13.2747 12.1887 13.3283 12.1492 13.3679C12.1096 13.4075 12.0559 13.4297 12 13.4297ZM12 12.3047C11.9441 12.3047 11.8904 12.2825 11.8508 12.2429C11.8113 12.2033 11.7891 12.1497 11.7891 12.0937V11.5312C11.7891 11.4753 11.8113 11.4216 11.8508 11.3821C11.8904 11.3425 11.9441 11.3203 12 11.3203C12.0559 11.3203 12.1096 11.3425 12.1492 11.3821C12.1887 11.4216 12.2109 11.4753 12.2109 11.5312V12.0937C12.2109 12.1497 12.1887 12.2033 12.1492 12.2429C12.1096 12.2825 12.0559 12.3047 12 12.3047ZM12 11.1797C11.9441 11.1797 11.8904 11.1575 11.8508 11.1179C11.8113 11.0783 11.7891 11.0247 11.7891 10.9687V10.4062C11.7891 10.3503 11.8113 10.2966 11.8508 10.2571C11.8904 10.2175 11.9441 10.1953 12 10.1953C12.0559 10.1953 12.1096 10.2175 12.1492 10.2571C12.1887 10.2966 12.2109 10.3503 12.2109 10.4062V10.9687C12.2109 11.0247 12.1887 11.0783 12.1492 11.1179C12.1096 11.1575 12.0559 11.1797 12 11.1797ZM12 10.0547C11.9441 10.0547 11.8904 10.0325 11.8508 9.9929C11.8113 9.95334 11.7891 9.89969 11.7891 9.84375V9.28125C11.7891 9.2253 11.8113 9.17165 11.8508 9.13209C11.8904 9.09253 11.9441 9.07031 12 9.07031C12.0559 9.07031 12.1096 9.09253 12.1492 9.13209C12.1887 9.17165 12.2109 9.2253 12.2109 9.28125V9.84375C12.2109 9.89969 12.1887 9.95334 12.1492 9.9929C12.1096 10.0325 12.0559 10.0547 12 10.0547ZM12 8.92968C11.9441 8.92968 11.8904 8.90746 11.8508 8.8679C11.8113 8.82834 11.7891 8.77469 11.7891 8.71875V8.15625C11.7891 8.1003 11.8113 8.04665 11.8508 8.00709C11.8904 7.96753 11.9441 7.94531 12 7.94531C12.0559 7.94531 12.1096 7.96753 12.1492 8.00709C12.1887 8.04665 12.2109 8.1003 12.2109 8.15625V8.71875C12.2109 8.77469 12.1887 8.82834 12.1492 8.8679C12.1096 8.90746 12.0559 8.92968 12 8.92968ZM12 7.80468C11.9441 7.80468 11.8904 7.78246 11.8508 7.7429C11.8113 7.70334 11.7891 7.64969 11.7891 7.59375V7.03125C11.7891 6.9753 11.8113 6.92165 11.8508 6.88209C11.8904 6.84253 11.9441 6.82031 12 6.82031C12.0559 6.82031 12.1096 6.84253 12.1492 6.88209C12.1887 6.92165 12.2109 6.9753 12.2109 7.03125V7.59375C12.2109 7.64969 12.1887 7.70334 12.1492 7.7429C12.1096 7.78246 12.0559 7.80468 12 7.80468ZM12 6.67968C11.9441 6.67968 11.8904 6.65746 11.8508 6.6179C11.8113 6.57834 11.7891 6.52469 11.7891 6.46875V5.90625C11.7891 5.8503 11.8113 5.79665 11.8508 5.75709C11.8904 5.71753 11.9441 5.69531 12 5.69531C12.0559 5.69531 12.1096 5.71753 12.1492 5.75709C12.1887 5.79665 12.2109 5.8503 12.2109 5.90625V6.46875C12.2109 6.52469 12.1887 6.57834 12.1492 6.6179C12.1096 6.65746 12.0559 6.67968 12 6.67968ZM17.1763 4.80234L16.8182 4.60645C16.7177 4.55172 16.6352 4.46915 16.5804 4.36865L16.3845 4.01062C16.3574 3.96099 16.3173 3.91958 16.2686 3.89074C16.2199 3.8619 16.1644 3.84668 16.1078 3.84668C16.0512 3.84668 15.9957 3.8619 15.947 3.89074C15.8983 3.91958 15.8582 3.96099 15.831 4.01062L15.6352 4.36879C15.5803 4.46923 15.4978 4.55178 15.3974 4.60659L15.0389 4.80248C14.9893 4.82968 14.9479 4.86972 14.9191 4.91839C14.8903 4.96707 14.8751 5.02259 14.8751 5.07916C14.8751 5.13573 14.8903 5.19125 14.9191 5.23993C14.9479 5.2886 14.9893 5.32864 15.0389 5.35584L15.3971 5.55173C15.4975 5.60654 15.5801 5.68909 15.6349 5.78953L15.8308 6.14784C15.858 6.19747 15.898 6.23887 15.9467 6.2677C15.9954 6.29654 16.051 6.31176 16.1076 6.31176C16.1642 6.31176 16.2197 6.29654 16.2684 6.2677C16.3171 6.23887 16.3572 6.19747 16.3844 6.14784L16.5802 5.78953C16.635 5.68916 16.7176 5.60667 16.818 5.55187L17.176 5.35612C17.2256 5.32894 17.2671 5.2889 17.296 5.24019C17.3248 5.19149 17.3401 5.13592 17.3401 5.0793C17.3401 5.02268 17.3248 4.96711 17.296 4.91841C17.2671 4.8697 17.2256 4.82966 17.176 4.80248L17.1763 4.80234ZM16.6157 5.18203C16.4445 5.2755 16.3037 5.41623 16.2102 5.58745L16.1078 5.7749L16.0053 5.58745C15.9119 5.41608 15.7712 5.2752 15.6 5.1816L15.4125 5.07909L15.6 4.97671C15.7712 4.8832 15.912 4.74242 16.0054 4.57115L16.1079 4.3837L16.2103 4.57101C16.3038 4.74236 16.4446 4.88319 16.6159 4.97671L16.8032 5.07909L16.6157 5.18203ZM19.3654 6.39196L19.0785 6.23503C19.0051 6.19492 18.9447 6.13454 18.9047 6.06107L18.7477 5.77434C18.7224 5.72792 18.685 5.68919 18.6395 5.66221C18.594 5.63522 18.5421 5.62098 18.4892 5.62098C18.4363 5.62098 18.3844 5.63522 18.3389 5.66221C18.2934 5.68919 18.256 5.72792 18.2307 5.77434L18.0739 6.06093C18.0338 6.13442 17.9734 6.19485 17.8999 6.23503L17.6132 6.39182C17.567 6.41734 17.5284 6.45478 17.5016 6.50026C17.4747 6.54573 17.4606 6.59756 17.4606 6.65036C17.4606 6.70316 17.4747 6.755 17.5016 6.80047C17.5284 6.84594 17.567 6.88339 17.6132 6.9089L17.9001 7.06584C17.9735 7.1059 18.0338 7.16624 18.0739 7.23965L18.2308 7.52639C18.2563 7.57261 18.2938 7.61115 18.3392 7.63799C18.3847 7.66483 18.4365 7.67899 18.4894 7.67899C18.5422 7.67899 18.594 7.66483 18.6395 7.63799C18.6849 7.61115 18.7224 7.57261 18.7479 7.52639L18.9048 7.23951C18.9448 7.16605 19.0052 7.10569 19.0786 7.0657L19.3654 6.90876C19.4118 6.88342 19.4505 6.84605 19.4775 6.80057C19.5045 6.75509 19.5188 6.70318 19.5188 6.65029C19.5188 6.59741 19.5045 6.5455 19.4775 6.50002C19.4505 6.45454 19.4118 6.4173 19.3654 6.39196ZM18.876 6.69571C18.7318 6.77446 18.6132 6.89297 18.5344 7.03715L18.4893 7.11998L18.4439 7.03701C18.3651 6.8929 18.2466 6.77445 18.1024 6.69571L18.0196 6.65043L18.1024 6.60515C18.2466 6.52626 18.3651 6.40772 18.444 6.26357L18.4893 6.18075L18.5344 6.26343C18.6131 6.40774 18.7317 6.52636 18.876 6.60515L18.9588 6.65029L18.876 6.69571Z"/>
</mask>
<path d="M12 19.0547C11.9441 19.0547 11.8904 19.0325 11.8508 18.9929C11.8113 18.9533 11.7891 18.8997 11.7891 18.8437V18.2812C11.7891 18.2253 11.8113 18.1716 11.8508 18.1321C11.8904 18.0925 11.9441 18.0703 12 18.0703C12.0559 18.0703 12.1096 18.0925 12.1492 18.1321C12.1887 18.1716 12.2109 18.2253 12.2109 18.2812V18.8437C12.2109 18.8997 12.1887 18.9533 12.1492 18.9929C12.1096 19.0325 12.0559 19.0547 12 19.0547ZM12 17.9297C11.9441 17.9297 11.8904 17.9075 11.8508 17.8679C11.8113 17.8283 11.7891 17.7747 11.7891 17.7187V17.1562C11.7891 17.1003 11.8113 17.0466 11.8508 17.0071C11.8904 16.9675 11.9441 16.9453 12 16.9453C12.0559 16.9453 12.1096 16.9675 12.1492 17.0071C12.1887 17.0466 12.2109 17.1003 12.2109 17.1562V17.7187C12.2109 17.7747 12.1887 17.8283 12.1492 17.8679C12.1096 17.9075 12.0559 17.9297 12 17.9297ZM12 16.8047C11.9441 16.8047 11.8904 16.7825 11.8508 16.7429C11.8113 16.7033 11.7891 16.6497 11.7891 16.5937V16.0312C11.7891 15.9753 11.8113 15.9216 11.8508 15.8821C11.8904 15.8425 11.9441 15.8203 12 15.8203C12.0559 15.8203 12.1096 15.8425 12.1492 15.8821C12.1887 15.9216 12.2109 15.9753 12.2109 16.0312V16.5937C12.2109 16.6497 12.1887 16.7033 12.1492 16.7429C12.1096 16.7825 12.0559 16.8047 12 16.8047ZM12 15.6797C11.9441 15.6797 11.8904 15.6575 11.8508 15.6179C11.8113 15.5783 11.7891 15.5247 11.7891 15.4687V14.9062C11.7891 14.8503 11.8113 14.7966 11.8508 14.7571C11.8904 14.7175 11.9441 14.6953 12 14.6953C12.0559 14.6953 12.1096 14.7175 12.1492 14.7571C12.1887 14.7966 12.2109 14.8503 12.2109 14.9062V15.4687C12.2109 15.5247 12.1887 15.5783 12.1492 15.6179C12.1096 15.6575 12.0559 15.6797 12 15.6797ZM12 14.5547C11.9441 14.5547 11.8904 14.5325 11.8508 14.4929C11.8113 14.4533 11.7891 14.3997 11.7891 14.3437V13.7812C11.7891 13.7253 11.8113 13.6716 11.8508 13.6321C11.8904 13.5925 11.9441 13.5703 12 13.5703C12.0559 13.5703 12.1096 13.5925 12.1492 13.6321C12.1887 13.6716 12.2109 13.7253 12.2109 13.7812V14.3437C12.2109 14.3997 12.1887 14.4533 12.1492 14.4929C12.1096 14.5325 12.0559 14.5547 12 14.5547ZM12 13.4297C11.9441 13.4297 11.8904 13.4075 11.8508 13.3679C11.8113 13.3283 11.7891 13.2747 11.7891 13.2187V12.6562C11.7891 12.6003 11.8113 12.5466 11.8508 12.5071C11.8904 12.4675 11.9441 12.4453 12 12.4453C12.0559 12.4453 12.1096 12.4675 12.1492 12.5071C12.1887 12.5466 12.2109 12.6003 12.2109 12.6562V13.2187C12.2109 13.2747 12.1887 13.3283 12.1492 13.3679C12.1096 13.4075 12.0559 13.4297 12 13.4297ZM12 12.3047C11.9441 12.3047 11.8904 12.2825 11.8508 12.2429C11.8113 12.2033 11.7891 12.1497 11.7891 12.0937V11.5312C11.7891 11.4753 11.8113 11.4216 11.8508 11.3821C11.8904 11.3425 11.9441 11.3203 12 11.3203C12.0559 11.3203 12.1096 11.3425 12.1492 11.3821C12.1887 11.4216 12.2109 11.4753 12.2109 11.5312V12.0937C12.2109 12.1497 12.1887 12.2033 12.1492 12.2429C12.1096 12.2825 12.0559 12.3047 12 12.3047ZM12 11.1797C11.9441 11.1797 11.8904 11.1575 11.8508 11.1179C11.8113 11.0783 11.7891 11.0247 11.7891 10.9687V10.4062C11.7891 10.3503 11.8113 10.2966 11.8508 10.2571C11.8904 10.2175 11.9441 10.1953 12 10.1953C12.0559 10.1953 12.1096 10.2175 12.1492 10.2571C12.1887 10.2966 12.2109 10.3503 12.2109 10.4062V10.9687C12.2109 11.0247 12.1887 11.0783 12.1492 11.1179C12.1096 11.1575 12.0559 11.1797 12 11.1797ZM12 10.0547C11.9441 10.0547 11.8904 10.0325 11.8508 9.9929C11.8113 9.95334 11.7891 9.89969 11.7891 9.84375V9.28125C11.7891 9.2253 11.8113 9.17165 11.8508 9.13209C11.8904 9.09253 11.9441 9.07031 12 9.07031C12.0559 9.07031 12.1096 9.09253 12.1492 9.13209C12.1887 9.17165 12.2109 9.2253 12.2109 9.28125V9.84375C12.2109 9.89969 12.1887 9.95334 12.1492 9.9929C12.1096 10.0325 12.0559 10.0547 12 10.0547ZM12 8.92968C11.9441 8.92968 11.8904 8.90746 11.8508 8.8679C11.8113 8.82834 11.7891 8.77469 11.7891 8.71875V8.15625C11.7891 8.1003 11.8113 8.04665 11.8508 8.00709C11.8904 7.96753 11.9441 7.94531 12 7.94531C12.0559 7.94531 12.1096 7.96753 12.1492 8.00709C12.1887 8.04665 12.2109 8.1003 12.2109 8.15625V8.71875C12.2109 8.77469 12.1887 8.82834 12.1492 8.8679C12.1096 8.90746 12.0559 8.92968 12 8.92968ZM12 7.80468C11.9441 7.80468 11.8904 7.78246 11.8508 7.7429C11.8113 7.70334 11.7891 7.64969 11.7891 7.59375V7.03125C11.7891 6.9753 11.8113 6.92165 11.8508 6.88209C11.8904 6.84253 11.9441 6.82031 12 6.82031C12.0559 6.82031 12.1096 6.84253 12.1492 6.88209C12.1887 6.92165 12.2109 6.9753 12.2109 7.03125V7.59375C12.2109 7.64969 12.1887 7.70334 12.1492 7.7429C12.1096 7.78246 12.0559 7.80468 12 7.80468ZM12 6.67968C11.9441 6.67968 11.8904 6.65746 11.8508 6.6179C11.8113 6.57834 11.7891 6.52469 11.7891 6.46875V5.90625C11.7891 5.8503 11.8113 5.79665 11.8508 5.75709C11.8904 5.71753 11.9441 5.69531 12 5.69531C12.0559 5.69531 12.1096 5.71753 12.1492 5.75709C12.1887 5.79665 12.2109 5.8503 12.2109 5.90625V6.46875C12.2109 6.52469 12.1887 6.57834 12.1492 6.6179C12.1096 6.65746 12.0559 6.67968 12 6.67968ZM17.1763 4.80234L16.8182 4.60645C16.7177 4.55172 16.6352 4.46915 16.5804 4.36865L16.3845 4.01062C16.3574 3.96099 16.3173 3.91958 16.2686 3.89074C16.2199 3.8619 16.1644 3.84668 16.1078 3.84668C16.0512 3.84668 15.9957 3.8619 15.947 3.89074C15.8983 3.91958 15.8582 3.96099 15.831 4.01062L15.6352 4.36879C15.5803 4.46923 15.4978 4.55178 15.3974 4.60659L15.0389 4.80248C14.9893 4.82968 14.9479 4.86972 14.9191 4.91839C14.8903 4.96707 14.8751 5.02259 14.8751 5.07916C14.8751 5.13573 14.8903 5.19125 14.9191 5.23993C14.9479 5.2886 14.9893 5.32864 15.0389 5.35584L15.3971 5.55173C15.4975 5.60654 15.5801 5.68909 15.6349 5.78953L15.8308 6.14784C15.858 6.19747 15.898 6.23887 15.9467 6.2677C15.9954 6.29654 16.051 6.31176 16.1076 6.31176C16.1642 6.31176 16.2197 6.29654 16.2684 6.2677C16.3171 6.23887 16.3572 6.19747 16.3844 6.14784L16.5802 5.78953C16.635 5.68916 16.7176 5.60667 16.818 5.55187L17.176 5.35612C17.2256 5.32894 17.2671 5.2889 17.296 5.24019C17.3248 5.19149 17.3401 5.13592 17.3401 5.0793C17.3401 5.02268 17.3248 4.96711 17.296 4.91841C17.2671 4.8697 17.2256 4.82966 17.176 4.80248L17.1763 4.80234ZM16.6157 5.18203C16.4445 5.2755 16.3037 5.41623 16.2102 5.58745L16.1078 5.7749L16.0053 5.58745C15.9119 5.41608 15.7712 5.2752 15.6 5.1816L15.4125 5.07909L15.6 4.97671C15.7712 4.8832 15.912 4.74242 16.0054 4.57115L16.1079 4.3837L16.2103 4.57101C16.3038 4.74236 16.4446 4.88319 16.6159 4.97671L16.8032 5.07909L16.6157 5.18203ZM19.3654 6.39196L19.0785 6.23503C19.0051 6.19492 18.9447 6.13454 18.9047 6.06107L18.7477 5.77434C18.7224 5.72792 18.685 5.68919 18.6395 5.66221C18.594 5.63522 18.5421 5.62098 18.4892 5.62098C18.4363 5.62098 18.3844 5.63522 18.3389 5.66221C18.2934 5.68919 18.256 5.72792 18.2307 5.77434L18.0739 6.06093C18.0338 6.13442 17.9734 6.19485 17.8999 6.23503L17.6132 6.39182C17.567 6.41734 17.5284 6.45478 17.5016 6.50026C17.4747 6.54573 17.4606 6.59756 17.4606 6.65036C17.4606 6.70316 17.4747 6.755 17.5016 6.80047C17.5284 6.84594 17.567 6.88339 17.6132 6.9089L17.9001 7.06584C17.9735 7.1059 18.0338 7.16624 18.0739 7.23965L18.2308 7.52639C18.2563 7.57261 18.2938 7.61115 18.3392 7.63799C18.3847 7.66483 18.4365 7.67899 18.4894 7.67899C18.5422 7.67899 18.594 7.66483 18.6395 7.63799C18.6849 7.61115 18.7224 7.57261 18.7479 7.52639L18.9048 7.23951C18.9448 7.16605 19.0052 7.10569 19.0786 7.0657L19.3654 6.90876C19.4118 6.88342 19.4505 6.84605 19.4775 6.80057C19.5045 6.75509 19.5188 6.70318 19.5188 6.65029C19.5188 6.59741 19.5045 6.5455 19.4775 6.50002C19.4505 6.45454 19.4118 6.4173 19.3654 6.39196ZM18.876 6.69571C18.7318 6.77446 18.6132 6.89297 18.5344 7.03715L18.4893 7.11998L18.4439 7.03701C18.3651 6.8929 18.2466 6.77445 18.1024 6.69571L18.0196 6.65043L18.1024 6.60515C18.2466 6.52626 18.3651 6.40772 18.444 6.26357L18.4893 6.18075L18.5344 6.26343C18.6131 6.40774 18.7317 6.52636 18.876 6.60515L18.9588 6.65029L18.876 6.69571Z" fill="#5E6D6D" fill-opacity="0.5"/>
<path d="M12 19.0547C11.9441 19.0547 11.8904 19.0325 11.8508 18.9929C11.8113 18.9533 11.7891 18.8997 11.7891 18.8437V18.2812C11.7891 18.2253 11.8113 18.1716 11.8508 18.1321C11.8904 18.0925 11.9441 18.0703 12 18.0703C12.0559 18.0703 12.1096 18.0925 12.1492 18.1321C12.1887 18.1716 12.2109 18.2253 12.2109 18.2812V18.8437C12.2109 18.8997 12.1887 18.9533 12.1492 18.9929C12.1096 19.0325 12.0559 19.0547 12 19.0547ZM12 17.9297C11.9441 17.9297 11.8904 17.9075 11.8508 17.8679C11.8113 17.8283 11.7891 17.7747 11.7891 17.7187V17.1562C11.7891 17.1003 11.8113 17.0466 11.8508 17.0071C11.8904 16.9675 11.9441 16.9453 12 16.9453C12.0559 16.9453 12.1096 16.9675 12.1492 17.0071C12.1887 17.0466 12.2109 17.1003 12.2109 17.1562V17.7187C12.2109 17.7747 12.1887 17.8283 12.1492 17.8679C12.1096 17.9075 12.0559 17.9297 12 17.9297ZM12 16.8047C11.9441 16.8047 11.8904 16.7825 11.8508 16.7429C11.8113 16.7033 11.7891 16.6497 11.7891 16.5937V16.0312C11.7891 15.9753 11.8113 15.9216 11.8508 15.8821C11.8904 15.8425 11.9441 15.8203 12 15.8203C12.0559 15.8203 12.1096 15.8425 12.1492 15.8821C12.1887 15.9216 12.2109 15.9753 12.2109 16.0312V16.5937C12.2109 16.6497 12.1887 16.7033 12.1492 16.7429C12.1096 16.7825 12.0559 16.8047 12 16.8047ZM12 15.6797C11.9441 15.6797 11.8904 15.6575 11.8508 15.6179C11.8113 15.5783 11.7891 15.5247 11.7891 15.4687V14.9062C11.7891 14.8503 11.8113 14.7966 11.8508 14.7571C11.8904 14.7175 11.9441 14.6953 12 14.6953C12.0559 14.6953 12.1096 14.7175 12.1492 14.7571C12.1887 14.7966 12.2109 14.8503 12.2109 14.9062V15.4687C12.2109 15.5247 12.1887 15.5783 12.1492 15.6179C12.1096 15.6575 12.0559 15.6797 12 15.6797ZM12 14.5547C11.9441 14.5547 11.8904 14.5325 11.8508 14.4929C11.8113 14.4533 11.7891 14.3997 11.7891 14.3437V13.7812C11.7891 13.7253 11.8113 13.6716 11.8508 13.6321C11.8904 13.5925 11.9441 13.5703 12 13.5703C12.0559 13.5703 12.1096 13.5925 12.1492 13.6321C12.1887 13.6716 12.2109 13.7253 12.2109 13.7812V14.3437C12.2109 14.3997 12.1887 14.4533 12.1492 14.4929C12.1096 14.5325 12.0559 14.5547 12 14.5547ZM12 13.4297C11.9441 13.4297 11.8904 13.4075 11.8508 13.3679C11.8113 13.3283 11.7891 13.2747 11.7891 13.2187V12.6562C11.7891 12.6003 11.8113 12.5466 11.8508 12.5071C11.8904 12.4675 11.9441 12.4453 12 12.4453C12.0559 12.4453 12.1096 12.4675 12.1492 12.5071C12.1887 12.5466 12.2109 12.6003 12.2109 12.6562V13.2187C12.2109 13.2747 12.1887 13.3283 12.1492 13.3679C12.1096 13.4075 12.0559 13.4297 12 13.4297ZM12 12.3047C11.9441 12.3047 11.8904 12.2825 11.8508 12.2429C11.8113 12.2033 11.7891 12.1497 11.7891 12.0937V11.5312C11.7891 11.4753 11.8113 11.4216 11.8508 11.3821C11.8904 11.3425 11.9441 11.3203 12 11.3203C12.0559 11.3203 12.1096 11.3425 12.1492 11.3821C12.1887 11.4216 12.2109 11.4753 12.2109 11.5312V12.0937C12.2109 12.1497 12.1887 12.2033 12.1492 12.2429C12.1096 12.2825 12.0559 12.3047 12 12.3047ZM12 11.1797C11.9441 11.1797 11.8904 11.1575 11.8508 11.1179C11.8113 11.0783 11.7891 11.0247 11.7891 10.9687V10.4062C11.7891 10.3503 11.8113 10.2966 11.8508 10.2571C11.8904 10.2175 11.9441 10.1953 12 10.1953C12.0559 10.1953 12.1096 10.2175 12.1492 10.2571C12.1887 10.2966 12.2109 10.3503 12.2109 10.4062V10.9687C12.2109 11.0247 12.1887 11.0783 12.1492 11.1179C12.1096 11.1575 12.0559 11.1797 12 11.1797ZM12 10.0547C11.9441 10.0547 11.8904 10.0325 11.8508 9.9929C11.8113 9.95334 11.7891 9.89969 11.7891 9.84375V9.28125C11.7891 9.2253 11.8113 9.17165 11.8508 9.13209C11.8904 9.09253 11.9441 9.07031 12 9.07031C12.0559 9.07031 12.1096 9.09253 12.1492 9.13209C12.1887 9.17165 12.2109 9.2253 12.2109 9.28125V9.84375C12.2109 9.89969 12.1887 9.95334 12.1492 9.9929C12.1096 10.0325 12.0559 10.0547 12 10.0547ZM12 8.92968C11.9441 8.92968 11.8904 8.90746 11.8508 8.8679C11.8113 8.82834 11.7891 8.77469 11.7891 8.71875V8.15625C11.7891 8.1003 11.8113 8.04665 11.8508 8.00709C11.8904 7.96753 11.9441 7.94531 12 7.94531C12.0559 7.94531 12.1096 7.96753 12.1492 8.00709C12.1887 8.04665 12.2109 8.1003 12.2109 8.15625V8.71875C12.2109 8.77469 12.1887 8.82834 12.1492 8.8679C12.1096 8.90746 12.0559 8.92968 12 8.92968ZM12 7.80468C11.9441 7.80468 11.8904 7.78246 11.8508 7.7429C11.8113 7.70334 11.7891 7.64969 11.7891 7.59375V7.03125C11.7891 6.9753 11.8113 6.92165 11.8508 6.88209C11.8904 6.84253 11.9441 6.82031 12 6.82031C12.0559 6.82031 12.1096 6.84253 12.1492 6.88209C12.1887 6.92165 12.2109 6.9753 12.2109 7.03125V7.59375C12.2109 7.64969 12.1887 7.70334 12.1492 7.7429C12.1096 7.78246 12.0559 7.80468 12 7.80468ZM12 6.67968C11.9441 6.67968 11.8904 6.65746 11.8508 6.6179C11.8113 6.57834 11.7891 6.52469 11.7891 6.46875V5.90625C11.7891 5.8503 11.8113 5.79665 11.8508 5.75709C11.8904 5.71753 11.9441 5.69531 12 5.69531C12.0559 5.69531 12.1096 5.71753 12.1492 5.75709C12.1887 5.79665 12.2109 5.8503 12.2109 5.90625V6.46875C12.2109 6.52469 12.1887 6.57834 12.1492 6.6179C12.1096 6.65746 12.0559 6.67968 12 6.67968ZM17.1763 4.80234L16.8182 4.60645C16.7177 4.55172 16.6352 4.46915 16.5804 4.36865L16.3845 4.01062C16.3574 3.96099 16.3173 3.91958 16.2686 3.89074C16.2199 3.8619 16.1644 3.84668 16.1078 3.84668C16.0512 3.84668 15.9957 3.8619 15.947 3.89074C15.8983 3.91958 15.8582 3.96099 15.831 4.01062L15.6352 4.36879C15.5803 4.46923 15.4978 4.55178 15.3974 4.60659L15.0389 4.80248C14.9893 4.82968 14.9479 4.86972 14.9191 4.91839C14.8903 4.96707 14.8751 5.02259 14.8751 5.07916C14.8751 5.13573 14.8903 5.19125 14.9191 5.23993C14.9479 5.2886 14.9893 5.32864 15.0389 5.35584L15.3971 5.55173C15.4975 5.60654 15.5801 5.68909 15.6349 5.78953L15.8308 6.14784C15.858 6.19747 15.898 6.23887 15.9467 6.2677C15.9954 6.29654 16.051 6.31176 16.1076 6.31176C16.1642 6.31176 16.2197 6.29654 16.2684 6.2677C16.3171 6.23887 16.3572 6.19747 16.3844 6.14784L16.5802 5.78953C16.635 5.68916 16.7176 5.60667 16.818 5.55187L17.176 5.35612C17.2256 5.32894 17.2671 5.2889 17.296 5.24019C17.3248 5.19149 17.3401 5.13592 17.3401 5.0793C17.3401 5.02268 17.3248 4.96711 17.296 4.91841C17.2671 4.8697 17.2256 4.82966 17.176 4.80248L17.1763 4.80234ZM16.6157 5.18203C16.4445 5.2755 16.3037 5.41623 16.2102 5.58745L16.1078 5.7749L16.0053 5.58745C15.9119 5.41608 15.7712 5.2752 15.6 5.1816L15.4125 5.07909L15.6 4.97671C15.7712 4.8832 15.912 4.74242 16.0054 4.57115L16.1079 4.3837L16.2103 4.57101C16.3038 4.74236 16.4446 4.88319 16.6159 4.97671L16.8032 5.07909L16.6157 5.18203ZM19.3654 6.39196L19.0785 6.23503C19.0051 6.19492 18.9447 6.13454 18.9047 6.06107L18.7477 5.77434C18.7224 5.72792 18.685 5.68919 18.6395 5.66221C18.594 5.63522 18.5421 5.62098 18.4892 5.62098C18.4363 5.62098 18.3844 5.63522 18.3389 5.66221C18.2934 5.68919 18.256 5.72792 18.2307 5.77434L18.0739 6.06093C18.0338 6.13442 17.9734 6.19485 17.8999 6.23503L17.6132 6.39182C17.567 6.41734 17.5284 6.45478 17.5016 6.50026C17.4747 6.54573 17.4606 6.59756 17.4606 6.65036C17.4606 6.70316 17.4747 6.755 17.5016 6.80047C17.5284 6.84594 17.567 6.88339 17.6132 6.9089L17.9001 7.06584C17.9735 7.1059 18.0338 7.16624 18.0739 7.23965L18.2308 7.52639C18.2563 7.57261 18.2938 7.61115 18.3392 7.63799C18.3847 7.66483 18.4365 7.67899 18.4894 7.67899C18.5422 7.67899 18.594 7.66483 18.6395 7.63799C18.6849 7.61115 18.7224 7.57261 18.7479 7.52639L18.9048 7.23951C18.9448 7.16605 19.0052 7.10569 19.0786 7.0657L19.3654 6.90876C19.4118 6.88342 19.4505 6.84605 19.4775 6.80057C19.5045 6.75509 19.5188 6.70318 19.5188 6.65029C19.5188 6.59741 19.5045 6.5455 19.4775 6.50002C19.4505 6.45454 19.4118 6.4173 19.3654 6.39196ZM18.876 6.69571C18.7318 6.77446 18.6132 6.89297 18.5344 7.03715L18.4893 7.11998L18.4439 7.03701C18.3651 6.8929 18.2466 6.77445 18.1024 6.69571L18.0196 6.65043L18.1024 6.60515C18.2466 6.52626 18.3651 6.40772 18.444 6.26357L18.4893 6.18075L18.5344 6.26343C18.6131 6.40774 18.7317 6.52636 18.876 6.60515L18.9588 6.65029L18.876 6.69571Z" stroke="#5E6D6D" stroke-opacity="0.5" stroke-width="0.4" mask="url(#path-1-outside-1_1_1689)"/>
<mask id="path-2-outside-2_1_1689" maskUnits="userSpaceOnUse" x="2.17578" y="7.10742" width="19" height="9" fill="black">
<rect fill="white" x="2.17578" y="7.10742" width="19" height="9"/>
<path d="M20.099 8.73596C18.8756 7.4432 15.0964 8.4024 13.0021 9.3107C12.6858 9.44728 12.3449 9.51774 12.0004 9.51774C11.6559 9.51774 11.315 9.44728 10.9987 9.3107C8.9044 8.4024 5.12553 7.4432 3.90181 8.73596C2.99211 9.69742 2.93248 11.4227 3.75007 12.8613C3.72462 13.5396 3.81743 14.2842 3.90476 14.4926C4.08125 14.9176 5.0614 15.1246 5.66468 15.1246C5.72375 15.1246 5.77943 15.1226 5.8302 15.1187C5.9473 15.112 6.06271 15.0877 6.17248 15.0464C6.52404 15.4128 7.47621 15.5678 8.11311 15.5678C8.19973 15.5678 8.28045 15.5649 8.35315 15.5594C8.52303 15.5517 8.69034 15.515 8.84787 15.4509C8.97041 15.6174 9.15248 15.73 9.35609 15.7654C9.83979 15.8522 10.3304 15.8949 10.8218 15.8929C11.0398 15.8929 11.2544 15.8846 11.4572 15.8679C11.6566 15.8557 11.8469 15.7802 12.0004 15.6523C12.1539 15.7804 12.3443 15.8561 12.5438 15.8685C12.7467 15.8852 12.9612 15.8934 13.1793 15.8934C13.6707 15.8954 14.1613 15.8528 14.645 15.7659C14.8486 15.7306 15.0307 15.6179 15.1532 15.4515C15.3107 15.5156 15.4781 15.5522 15.6479 15.5599C15.7206 15.5654 15.8014 15.5684 15.888 15.5684C16.5252 15.5684 17.477 15.4137 17.8286 15.0469C17.9384 15.0882 18.0538 15.1126 18.1709 15.1192C18.2217 15.1232 18.2772 15.1251 18.3364 15.1251C18.9397 15.1251 19.9198 14.9181 20.0963 14.4932C20.1831 14.2842 20.2759 13.5396 20.251 12.8619C21.0683 11.4227 21.0087 9.69742 20.099 8.73596ZM4.92556 14.6141C4.49468 14.5127 4.31356 14.3795 4.29345 14.331C4.17096 14.0357 4.0745 12.4637 4.32157 12.0399C4.48836 11.7549 4.82206 11.7843 4.9579 11.8102C5.20034 11.866 5.4228 11.9873 5.60102 12.1609C5.77924 12.3345 5.90638 12.5537 5.96857 12.7945C5.9857 12.866 5.99012 12.9399 5.98165 13.0129C5.92226 13.5612 5.92967 14.1147 6.00373 14.6612C5.86451 14.7127 5.44446 14.7364 4.92598 14.6144L4.92556 14.6141ZM7.41293 15.0888C6.76001 14.9829 6.48481 14.8003 6.45401 14.7286C6.31212 14.3989 6.32407 12.6147 6.62276 12.0477C6.73526 11.8349 7.07853 11.7489 7.47818 11.8337C8.01987 11.9485 8.58561 12.3639 8.66717 13.0384C8.67181 13.0813 8.67223 13.1245 8.66843 13.1675C8.62981 13.7656 8.6323 14.3657 8.67589 14.9635C8.67842 14.9976 8.68475 15.0295 8.68995 15.062C8.55734 15.1341 8.07486 15.1964 7.41336 15.0891L7.41293 15.0888ZM11.7161 15.3399C11.6342 15.4109 11.5291 15.4493 11.4207 15.4477C10.7569 15.4993 10.0893 15.467 9.43357 15.3514C9.33651 15.3333 9.24909 15.2812 9.18706 15.2044C9.12502 15.1276 9.09246 15.0312 9.09523 14.9325C9.07118 14.609 9.00495 13.4829 9.16006 12.584C9.18805 12.3644 9.29664 12.163 9.46477 12.0189C9.6329 11.8748 9.84856 11.7983 10.0699 11.8043C10.4212 11.8006 10.7637 11.9143 11.0432 12.1272C11.3227 12.3401 11.5231 12.6402 11.6128 12.9799C11.8489 13.9851 11.8214 15.1118 11.717 15.3401L11.7161 15.3399ZM14.9032 14.932C14.9059 15.0307 14.8733 15.1271 14.8113 15.2039C14.7493 15.2807 14.6619 15.3328 14.5648 15.3508C13.9091 15.4666 13.2414 15.4989 12.5775 15.4472C12.4692 15.4487 12.364 15.4102 12.2822 15.3392C12.178 15.1109 12.1504 13.9842 12.3852 12.9797C12.4733 12.6464 12.668 12.351 12.9397 12.1386C13.2114 11.9263 13.5451 11.8086 13.8898 11.8036H13.9274C14.1487 11.7976 14.3644 11.8741 14.5325 12.0182C14.7006 12.1623 14.8092 12.3637 14.8372 12.5833C14.9944 13.4832 14.9282 14.609 14.9042 14.9329L14.9032 14.932ZM17.5462 14.7286C17.5154 14.8004 17.2404 14.9831 16.5875 15.089C15.9265 15.1964 15.4436 15.1338 15.311 15.062C15.3562 14.4309 15.3633 13.7976 15.3322 13.1657C15.3287 13.1235 15.3291 13.0811 15.3336 13.0391C15.4148 12.3641 15.9805 11.9485 16.5228 11.8335C16.923 11.7491 17.2665 11.8348 17.3782 12.0475C17.6763 12.615 17.6883 14.3992 17.5462 14.7286ZM19.7067 14.3313C19.6865 14.3798 19.5054 14.513 19.0738 14.6144C18.5549 14.7367 18.1352 14.7128 17.9965 14.6616C18.0708 14.115 18.0784 13.5614 18.0192 13.0129C18.0103 12.9402 18.0142 12.8664 18.0308 12.795C18.093 12.5541 18.2202 12.3349 18.3984 12.1613C18.5766 11.9877 18.7991 11.8664 19.0415 11.8106C19.1771 11.7849 19.511 11.7552 19.6778 12.0402C19.9259 12.4645 19.8294 14.0364 19.7067 14.3313ZM20.042 11.8272C19.8324 11.4686 19.4293 11.3069 18.9627 11.396C18.5133 11.4926 18.1194 11.761 17.865 12.1439C17.8366 12.043 17.7985 11.9451 17.7514 11.8515C17.5475 11.4638 17.0304 11.2946 16.4349 11.4213C15.9272 11.5265 15.4796 11.8234 15.1853 12.2502C15.0946 11.9938 14.9259 11.7724 14.7028 11.6169C14.4798 11.4614 14.2136 11.3797 13.9417 11.3832C13.5084 11.3765 13.0847 11.5109 12.7345 11.7661C12.3843 12.0213 12.1267 12.3835 12.0004 12.7981C11.8749 12.383 11.6174 12.0203 11.2669 11.7649C10.9165 11.5096 10.4923 11.3756 10.0588 11.3832C9.78691 11.3797 9.52074 11.4614 9.2977 11.6169C9.07465 11.7724 8.90593 11.9938 8.81525 12.2502C8.52093 11.8234 8.07335 11.5265 7.56565 11.4213C6.96996 11.2948 6.45303 11.4635 6.24912 11.8515C6.202 11.9451 6.16395 12.043 6.1355 12.1439C5.88117 11.7609 5.48726 11.4924 5.03778 11.3957C4.57175 11.307 4.16815 11.4683 3.95834 11.827C3.91257 11.9095 3.87723 11.9973 3.85315 12.0885C3.42776 10.9573 3.54884 9.72357 4.20837 9.02607C5.12004 8.06223 8.35596 8.62445 10.831 9.6977C11.2002 9.85717 11.5982 9.93943 12.0004 9.93943C12.4026 9.93943 12.8006 9.85717 13.1698 9.6977C15.6448 8.62445 18.8809 8.06237 19.7924 9.02607C20.4525 9.72357 20.573 10.9573 20.1477 12.0887C20.1236 11.9975 20.0882 11.9096 20.0423 11.8272H20.042Z"/>
</mask>
<path d="M20.099 8.73596C18.8756 7.4432 15.0964 8.4024 13.0021 9.3107C12.6858 9.44728 12.3449 9.51774 12.0004 9.51774C11.6559 9.51774 11.315 9.44728 10.9987 9.3107C8.9044 8.4024 5.12553 7.4432 3.90181 8.73596C2.99211 9.69742 2.93248 11.4227 3.75007 12.8613C3.72462 13.5396 3.81743 14.2842 3.90476 14.4926C4.08125 14.9176 5.0614 15.1246 5.66468 15.1246C5.72375 15.1246 5.77943 15.1226 5.8302 15.1187C5.9473 15.112 6.06271 15.0877 6.17248 15.0464C6.52404 15.4128 7.47621 15.5678 8.11311 15.5678C8.19973 15.5678 8.28045 15.5649 8.35315 15.5594C8.52303 15.5517 8.69034 15.515 8.84787 15.4509C8.97041 15.6174 9.15248 15.73 9.35609 15.7654C9.83979 15.8522 10.3304 15.8949 10.8218 15.8929C11.0398 15.8929 11.2544 15.8846 11.4572 15.8679C11.6566 15.8557 11.8469 15.7802 12.0004 15.6523C12.1539 15.7804 12.3443 15.8561 12.5438 15.8685C12.7467 15.8852 12.9612 15.8934 13.1793 15.8934C13.6707 15.8954 14.1613 15.8528 14.645 15.7659C14.8486 15.7306 15.0307 15.6179 15.1532 15.4515C15.3107 15.5156 15.4781 15.5522 15.6479 15.5599C15.7206 15.5654 15.8014 15.5684 15.888 15.5684C16.5252 15.5684 17.477 15.4137 17.8286 15.0469C17.9384 15.0882 18.0538 15.1126 18.1709 15.1192C18.2217 15.1232 18.2772 15.1251 18.3364 15.1251C18.9397 15.1251 19.9198 14.9181 20.0963 14.4932C20.1831 14.2842 20.2759 13.5396 20.251 12.8619C21.0683 11.4227 21.0087 9.69742 20.099 8.73596ZM4.92556 14.6141C4.49468 14.5127 4.31356 14.3795 4.29345 14.331C4.17096 14.0357 4.0745 12.4637 4.32157 12.0399C4.48836 11.7549 4.82206 11.7843 4.9579 11.8102C5.20034 11.866 5.4228 11.9873 5.60102 12.1609C5.77924 12.3345 5.90638 12.5537 5.96857 12.7945C5.9857 12.866 5.99012 12.9399 5.98165 13.0129C5.92226 13.5612 5.92967 14.1147 6.00373 14.6612C5.86451 14.7127 5.44446 14.7364 4.92598 14.6144L4.92556 14.6141ZM7.41293 15.0888C6.76001 14.9829 6.48481 14.8003 6.45401 14.7286C6.31212 14.3989 6.32407 12.6147 6.62276 12.0477C6.73526 11.8349 7.07853 11.7489 7.47818 11.8337C8.01987 11.9485 8.58561 12.3639 8.66717 13.0384C8.67181 13.0813 8.67223 13.1245 8.66843 13.1675C8.62981 13.7656 8.6323 14.3657 8.67589 14.9635C8.67842 14.9976 8.68475 15.0295 8.68995 15.062C8.55734 15.1341 8.07486 15.1964 7.41336 15.0891L7.41293 15.0888ZM11.7161 15.3399C11.6342 15.4109 11.5291 15.4493 11.4207 15.4477C10.7569 15.4993 10.0893 15.467 9.43357 15.3514C9.33651 15.3333 9.24909 15.2812 9.18706 15.2044C9.12502 15.1276 9.09246 15.0312 9.09523 14.9325C9.07118 14.609 9.00495 13.4829 9.16006 12.584C9.18805 12.3644 9.29664 12.163 9.46477 12.0189C9.6329 11.8748 9.84856 11.7983 10.0699 11.8043C10.4212 11.8006 10.7637 11.9143 11.0432 12.1272C11.3227 12.3401 11.5231 12.6402 11.6128 12.9799C11.8489 13.9851 11.8214 15.1118 11.717 15.3401L11.7161 15.3399ZM14.9032 14.932C14.9059 15.0307 14.8733 15.1271 14.8113 15.2039C14.7493 15.2807 14.6619 15.3328 14.5648 15.3508C13.9091 15.4666 13.2414 15.4989 12.5775 15.4472C12.4692 15.4487 12.364 15.4102 12.2822 15.3392C12.178 15.1109 12.1504 13.9842 12.3852 12.9797C12.4733 12.6464 12.668 12.351 12.9397 12.1386C13.2114 11.9263 13.5451 11.8086 13.8898 11.8036H13.9274C14.1487 11.7976 14.3644 11.8741 14.5325 12.0182C14.7006 12.1623 14.8092 12.3637 14.8372 12.5833C14.9944 13.4832 14.9282 14.609 14.9042 14.9329L14.9032 14.932ZM17.5462 14.7286C17.5154 14.8004 17.2404 14.9831 16.5875 15.089C15.9265 15.1964 15.4436 15.1338 15.311 15.062C15.3562 14.4309 15.3633 13.7976 15.3322 13.1657C15.3287 13.1235 15.3291 13.0811 15.3336 13.0391C15.4148 12.3641 15.9805 11.9485 16.5228 11.8335C16.923 11.7491 17.2665 11.8348 17.3782 12.0475C17.6763 12.615 17.6883 14.3992 17.5462 14.7286ZM19.7067 14.3313C19.6865 14.3798 19.5054 14.513 19.0738 14.6144C18.5549 14.7367 18.1352 14.7128 17.9965 14.6616C18.0708 14.115 18.0784 13.5614 18.0192 13.0129C18.0103 12.9402 18.0142 12.8664 18.0308 12.795C18.093 12.5541 18.2202 12.3349 18.3984 12.1613C18.5766 11.9877 18.7991 11.8664 19.0415 11.8106C19.1771 11.7849 19.511 11.7552 19.6778 12.0402C19.9259 12.4645 19.8294 14.0364 19.7067 14.3313ZM20.042 11.8272C19.8324 11.4686 19.4293 11.3069 18.9627 11.396C18.5133 11.4926 18.1194 11.761 17.865 12.1439C17.8366 12.043 17.7985 11.9451 17.7514 11.8515C17.5475 11.4638 17.0304 11.2946 16.4349 11.4213C15.9272 11.5265 15.4796 11.8234 15.1853 12.2502C15.0946 11.9938 14.9259 11.7724 14.7028 11.6169C14.4798 11.4614 14.2136 11.3797 13.9417 11.3832C13.5084 11.3765 13.0847 11.5109 12.7345 11.7661C12.3843 12.0213 12.1267 12.3835 12.0004 12.7981C11.8749 12.383 11.6174 12.0203 11.2669 11.7649C10.9165 11.5096 10.4923 11.3756 10.0588 11.3832C9.78691 11.3797 9.52074 11.4614 9.2977 11.6169C9.07465 11.7724 8.90593 11.9938 8.81525 12.2502C8.52093 11.8234 8.07335 11.5265 7.56565 11.4213C6.96996 11.2948 6.45303 11.4635 6.24912 11.8515C6.202 11.9451 6.16395 12.043 6.1355 12.1439C5.88117 11.7609 5.48726 11.4924 5.03778 11.3957C4.57175 11.307 4.16815 11.4683 3.95834 11.827C3.91257 11.9095 3.87723 11.9973 3.85315 12.0885C3.42776 10.9573 3.54884 9.72357 4.20837 9.02607C5.12004 8.06223 8.35596 8.62445 10.831 9.6977C11.2002 9.85717 11.5982 9.93943 12.0004 9.93943C12.4026 9.93943 12.8006 9.85717 13.1698 9.6977C15.6448 8.62445 18.8809 8.06237 19.7924 9.02607C20.4525 9.72357 20.573 10.9573 20.1477 12.0887C20.1236 11.9975 20.0882 11.9096 20.0423 11.8272H20.042Z" fill="#5E6D6D" fill-opacity="0.5"/>
<path d="M20.099 8.73596C18.8756 7.4432 15.0964 8.4024 13.0021 9.3107C12.6858 9.44728 12.3449 9.51774 12.0004 9.51774C11.6559 9.51774 11.315 9.44728 10.9987 9.3107C8.9044 8.4024 5.12553 7.4432 3.90181 8.73596C2.99211 9.69742 2.93248 11.4227 3.75007 12.8613C3.72462 13.5396 3.81743 14.2842 3.90476 14.4926C4.08125 14.9176 5.0614 15.1246 5.66468 15.1246C5.72375 15.1246 5.77943 15.1226 5.8302 15.1187C5.9473 15.112 6.06271 15.0877 6.17248 15.0464C6.52404 15.4128 7.47621 15.5678 8.11311 15.5678C8.19973 15.5678 8.28045 15.5649 8.35315 15.5594C8.52303 15.5517 8.69034 15.515 8.84787 15.4509C8.97041 15.6174 9.15248 15.73 9.35609 15.7654C9.83979 15.8522 10.3304 15.8949 10.8218 15.8929C11.0398 15.8929 11.2544 15.8846 11.4572 15.8679C11.6566 15.8557 11.8469 15.7802 12.0004 15.6523C12.1539 15.7804 12.3443 15.8561 12.5438 15.8685C12.7467 15.8852 12.9612 15.8934 13.1793 15.8934C13.6707 15.8954 14.1613 15.8528 14.645 15.7659C14.8486 15.7306 15.0307 15.6179 15.1532 15.4515C15.3107 15.5156 15.4781 15.5522 15.6479 15.5599C15.7206 15.5654 15.8014 15.5684 15.888 15.5684C16.5252 15.5684 17.477 15.4137 17.8286 15.0469C17.9384 15.0882 18.0538 15.1126 18.1709 15.1192C18.2217 15.1232 18.2772 15.1251 18.3364 15.1251C18.9397 15.1251 19.9198 14.9181 20.0963 14.4932C20.1831 14.2842 20.2759 13.5396 20.251 12.8619C21.0683 11.4227 21.0087 9.69742 20.099 8.73596ZM4.92556 14.6141C4.49468 14.5127 4.31356 14.3795 4.29345 14.331C4.17096 14.0357 4.0745 12.4637 4.32157 12.0399C4.48836 11.7549 4.82206 11.7843 4.9579 11.8102C5.20034 11.866 5.4228 11.9873 5.60102 12.1609C5.77924 12.3345 5.90638 12.5537 5.96857 12.7945C5.9857 12.866 5.99012 12.9399 5.98165 13.0129C5.92226 13.5612 5.92967 14.1147 6.00373 14.6612C5.86451 14.7127 5.44446 14.7364 4.92598 14.6144L4.92556 14.6141ZM7.41293 15.0888C6.76001 14.9829 6.48481 14.8003 6.45401 14.7286C6.31212 14.3989 6.32407 12.6147 6.62276 12.0477C6.73526 11.8349 7.07853 11.7489 7.47818 11.8337C8.01987 11.9485 8.58561 12.3639 8.66717 13.0384C8.67181 13.0813 8.67223 13.1245 8.66843 13.1675C8.62981 13.7656 8.6323 14.3657 8.67589 14.9635C8.67842 14.9976 8.68475 15.0295 8.68995 15.062C8.55734 15.1341 8.07486 15.1964 7.41336 15.0891L7.41293 15.0888ZM11.7161 15.3399C11.6342 15.4109 11.5291 15.4493 11.4207 15.4477C10.7569 15.4993 10.0893 15.467 9.43357 15.3514C9.33651 15.3333 9.24909 15.2812 9.18706 15.2044C9.12502 15.1276 9.09246 15.0312 9.09523 14.9325C9.07118 14.609 9.00495 13.4829 9.16006 12.584C9.18805 12.3644 9.29664 12.163 9.46477 12.0189C9.6329 11.8748 9.84856 11.7983 10.0699 11.8043C10.4212 11.8006 10.7637 11.9143 11.0432 12.1272C11.3227 12.3401 11.5231 12.6402 11.6128 12.9799C11.8489 13.9851 11.8214 15.1118 11.717 15.3401L11.7161 15.3399ZM14.9032 14.932C14.9059 15.0307 14.8733 15.1271 14.8113 15.2039C14.7493 15.2807 14.6619 15.3328 14.5648 15.3508C13.9091 15.4666 13.2414 15.4989 12.5775 15.4472C12.4692 15.4487 12.364 15.4102 12.2822 15.3392C12.178 15.1109 12.1504 13.9842 12.3852 12.9797C12.4733 12.6464 12.668 12.351 12.9397 12.1386C13.2114 11.9263 13.5451 11.8086 13.8898 11.8036H13.9274C14.1487 11.7976 14.3644 11.8741 14.5325 12.0182C14.7006 12.1623 14.8092 12.3637 14.8372 12.5833C14.9944 13.4832 14.9282 14.609 14.9042 14.9329L14.9032 14.932ZM17.5462 14.7286C17.5154 14.8004 17.2404 14.9831 16.5875 15.089C15.9265 15.1964 15.4436 15.1338 15.311 15.062C15.3562 14.4309 15.3633 13.7976 15.3322 13.1657C15.3287 13.1235 15.3291 13.0811 15.3336 13.0391C15.4148 12.3641 15.9805 11.9485 16.5228 11.8335C16.923 11.7491 17.2665 11.8348 17.3782 12.0475C17.6763 12.615 17.6883 14.3992 17.5462 14.7286ZM19.7067 14.3313C19.6865 14.3798 19.5054 14.513 19.0738 14.6144C18.5549 14.7367 18.1352 14.7128 17.9965 14.6616C18.0708 14.115 18.0784 13.5614 18.0192 13.0129C18.0103 12.9402 18.0142 12.8664 18.0308 12.795C18.093 12.5541 18.2202 12.3349 18.3984 12.1613C18.5766 11.9877 18.7991 11.8664 19.0415 11.8106C19.1771 11.7849 19.511 11.7552 19.6778 12.0402C19.9259 12.4645 19.8294 14.0364 19.7067 14.3313ZM20.042 11.8272C19.8324 11.4686 19.4293 11.3069 18.9627 11.396C18.5133 11.4926 18.1194 11.761 17.865 12.1439C17.8366 12.043 17.7985 11.9451 17.7514 11.8515C17.5475 11.4638 17.0304 11.2946 16.4349 11.4213C15.9272 11.5265 15.4796 11.8234 15.1853 12.2502C15.0946 11.9938 14.9259 11.7724 14.7028 11.6169C14.4798 11.4614 14.2136 11.3797 13.9417 11.3832C13.5084 11.3765 13.0847 11.5109 12.7345 11.7661C12.3843 12.0213 12.1267 12.3835 12.0004 12.7981C11.8749 12.383 11.6174 12.0203 11.2669 11.7649C10.9165 11.5096 10.4923 11.3756 10.0588 11.3832C9.78691 11.3797 9.52074 11.4614 9.2977 11.6169C9.07465 11.7724 8.90593 11.9938 8.81525 12.2502C8.52093 11.8234 8.07335 11.5265 7.56565 11.4213C6.96996 11.2948 6.45303 11.4635 6.24912 11.8515C6.202 11.9451 6.16395 12.043 6.1355 12.1439C5.88117 11.7609 5.48726 11.4924 5.03778 11.3957C4.57175 11.307 4.16815 11.4683 3.95834 11.827C3.91257 11.9095 3.87723 11.9973 3.85315 12.0885C3.42776 10.9573 3.54884 9.72357 4.20837 9.02607C5.12004 8.06223 8.35596 8.62445 10.831 9.6977C11.2002 9.85717 11.5982 9.93943 12.0004 9.93943C12.4026 9.93943 12.8006 9.85717 13.1698 9.6977C15.6448 8.62445 18.8809 8.06237 19.7924 9.02607C20.4525 9.72357 20.573 10.9573 20.1477 12.0887C20.1236 11.9975 20.0882 11.9096 20.0423 11.8272H20.042Z" stroke="#5E6D6D" stroke-opacity="0.5" stroke-width="0.4" mask="url(#path-2-outside-2_1_1689)"/>
</g>
<defs>
<clipPath id="clip0_1_1689">
<rect width="18" height="18" fill="white" transform="translate(3 3)"/>
</clipPath>
</defs>
</svg>
