<svg width="24" height="24" viewBox="0 0 24 24" fill="none" xmlns="http://www.w3.org/2000/svg">
<path d="M20.7665 5H3.3417C3.25108 5 3.16416 5.036 3.10008 5.10008C3.036 5.16416 3 5.25108 3 5.3417V19.4583C3 19.5489 3.036 19.6358 3.10008 19.6999C3.16416 19.764 3.25108 19.8 3.3417 19.8H20.7665C20.8571 19.8 20.944 19.764 21.0081 19.6999C21.0722 19.6358 21.1082 19.5489 21.1082 19.4583V5.3417C21.1082 5.25108 21.0722 5.16416 21.0081 5.10008C20.944 5.036 20.8571 5 20.7665 5H20.7665ZM20.4248 5.6834V8.29591C20.0662 8.27831 19.7095 8.35819 19.3927 8.52708C19.2341 8.60892 19.0582 8.65163 18.8797 8.65163C18.7012 8.65163 18.5253 8.60892 18.3667 8.52708C18.0561 8.35906 17.7057 8.2786 17.3529 8.29428C17.0001 8.30995 16.6583 8.42119 16.3638 8.61609C15.9903 8.86631 15.6826 9.2029 15.4669 9.59732C15.2511 9.20291 14.9434 8.86632 14.5699 8.61609C14.2755 8.4212 13.9336 8.30997 13.5809 8.2943C13.2281 8.27863 12.8777 8.3591 12.5671 8.52712C12.4085 8.60897 12.2326 8.65168 12.0541 8.65168C11.8756 8.65168 11.6997 8.60897 11.5411 8.52712C11.2305 8.35911 10.8801 8.27864 10.5274 8.29431C10.1746 8.30998 9.83276 8.4212 9.53831 8.61609C9.16479 8.86631 8.85711 9.2029 8.64135 9.59732C8.42559 9.20291 8.11792 8.86632 7.74443 8.61609C7.44998 8.4212 7.1081 8.30997 6.75535 8.2943C6.40259 8.27863 6.05221 8.3591 5.74163 8.52712C5.58301 8.60896 5.40711 8.65167 5.22861 8.65167C5.05012 8.65167 4.87422 8.60896 4.71559 8.52712C4.39874 8.35823 4.04206 8.27834 3.68344 8.29591V5.68344L20.4248 5.6834ZM20.4248 15.7348C20.3545 15.6806 20.3029 15.6057 20.2772 15.5207L19.7804 13.8879C19.7217 13.6947 19.6024 13.5256 19.4402 13.4054C19.278 13.2852 19.0815 13.2203 18.8796 13.2203C18.6777 13.2203 18.4812 13.2852 18.319 13.4054C18.1568 13.5256 18.0376 13.6948 17.9788 13.8879L17.4822 15.5207C17.4544 15.6118 17.397 15.691 17.3191 15.7457C17.2411 15.8004 17.1471 15.8275 17.052 15.8226C16.9569 15.8177 16.8662 15.7811 16.7942 15.7187C16.7223 15.6563 16.6733 15.5716 16.6551 15.4781L15.8483 11.3386C15.7685 10.931 15.811 10.5089 15.9705 10.1254C16.13 9.74196 16.3994 9.41422 16.7447 9.18344C16.9365 9.05758 17.159 8.9862 17.3882 8.97692C17.6175 8.96765 17.845 9.02083 18.0464 9.13077C18.3036 9.26494 18.5895 9.335 18.8796 9.335C19.1698 9.335 19.4556 9.26494 19.7129 9.13077C19.9311 9.01421 20.178 8.96218 20.4248 8.98077L20.4248 15.7348ZM15.0854 11.3387L14.2787 15.4781C14.2605 15.5716 14.2115 15.6563 14.1396 15.7187C14.0677 15.7812 13.9769 15.8177 13.8818 15.8226C13.7867 15.8275 13.6927 15.8005 13.6147 15.7458C13.5368 15.691 13.4794 15.6118 13.4516 15.5207L12.9549 13.8879C12.8962 13.6947 12.7769 13.5256 12.6147 13.4054C12.4525 13.2852 12.256 13.2203 12.0541 13.2203C11.8522 13.2203 11.6557 13.2852 11.4935 13.4054C11.3313 13.5256 11.2121 13.6948 11.1533 13.8879L10.6566 15.5207C10.6289 15.6118 10.5715 15.691 10.4935 15.7457C10.4156 15.8004 10.3216 15.8275 10.2265 15.8226C10.1314 15.8177 10.0406 15.7811 9.96868 15.7187C9.89676 15.6563 9.84779 15.5716 9.82957 15.4781L9.02277 11.3386C8.94299 10.931 8.98553 10.5089 9.14504 10.1254C9.30455 9.74195 9.57391 9.41421 9.91922 9.18344C10.1111 9.05759 10.3335 8.98621 10.5627 8.97694C10.792 8.96766 11.0195 9.02083 11.2208 9.13077C11.4781 9.26494 11.764 9.335 12.0541 9.335C12.3443 9.335 12.6301 9.26494 12.8874 9.13077C13.0888 9.02082 13.3162 8.96764 13.5455 8.97692C13.7748 8.98619 13.9972 9.05757 14.189 9.18344C14.5344 9.41422 14.8037 9.74198 14.9632 10.1255C15.1227 10.509 15.1652 10.9311 15.0854 11.3387ZM3.6834 8.98077C3.93013 8.96217 4.17706 9.01421 4.39529 9.13082C4.65256 9.26499 4.93842 9.33505 5.22857 9.33505C5.51872 9.33505 5.80458 9.26499 6.06185 9.13082C6.26323 9.02085 6.49071 8.96767 6.71997 8.97695C6.94924 8.98622 7.17167 9.05761 7.36351 9.18348C7.70883 9.41427 7.97817 9.74202 8.13767 10.1255C8.29716 10.509 8.33968 10.9311 8.25988 11.3387L7.45313 15.4781C7.43491 15.5716 7.38595 15.6563 7.31403 15.7187C7.24212 15.7811 7.15138 15.8177 7.05626 15.8226C6.96115 15.8275 6.86713 15.8005 6.78917 15.7457C6.71122 15.691 6.65381 15.6118 6.62608 15.5207L6.12934 13.8879C6.07058 13.6947 5.95131 13.5256 5.78912 13.4054C5.62692 13.2852 5.43039 13.2203 5.22851 13.2203C5.02664 13.2203 4.83011 13.2852 4.66792 13.4054C4.50572 13.5256 4.38646 13.6948 4.32772 13.8879L3.8311 15.5207C3.80542 15.6057 3.7538 15.6806 3.68344 15.7348L3.6834 8.98077ZM3.6834 19.1166V16.4759C3.87158 16.4312 4.04469 16.3378 4.18536 16.205C4.32604 16.0723 4.42932 15.9048 4.48486 15.7196L4.98156 14.0868C4.99768 14.0339 5.03039 13.9875 5.07486 13.9546C5.11934 13.9216 5.17322 13.9038 5.22857 13.9038C5.28392 13.9038 5.3378 13.9216 5.38228 13.9546C5.42675 13.9875 5.45946 14.0339 5.47558 14.0868L5.97232 15.7196C6.04445 15.9566 6.1938 16.1627 6.3966 16.305C6.59939 16.4474 6.84397 16.5178 7.09141 16.505C7.33884 16.4923 7.5749 16.3971 7.76201 16.2347C7.94912 16.0723 8.07652 15.852 8.12393 15.6088L8.64139 12.954L9.15881 15.6089C9.2062 15.8521 9.3336 16.0724 9.52071 16.2348C9.70782 16.3973 9.9439 16.4924 10.1913 16.5052C10.4388 16.5179 10.6834 16.4475 10.8862 16.3051C11.089 16.1628 11.2383 15.9567 11.3105 15.7196L11.8072 14.0869C11.8233 14.034 11.856 13.9876 11.9004 13.9546C11.9449 13.9217 11.9988 13.9039 12.0541 13.9039C12.1095 13.9039 12.1634 13.9217 12.2079 13.9546C12.2523 13.9876 12.285 14.0339 12.3012 14.0869L12.7979 15.7196C12.87 15.9566 13.0194 16.1627 13.2222 16.3051C13.425 16.4474 13.6696 16.5178 13.917 16.5051C14.1644 16.4923 14.4005 16.3972 14.5876 16.2348C14.7747 16.0724 14.9021 15.852 14.9495 15.6089L15.4669 12.954L15.9844 15.6089C16.0318 15.8521 16.1592 16.0725 16.3463 16.2349C16.5334 16.3973 16.7695 16.4924 17.0169 16.5052C17.2644 16.5179 17.509 16.4475 17.7118 16.3051C17.9146 16.1628 18.0639 15.9567 18.136 15.7196L18.6327 14.0869C18.6488 14.034 18.6815 13.9876 18.726 13.9546C18.7705 13.9217 18.8244 13.9039 18.8797 13.9039C18.9351 13.9039 18.9889 13.9217 19.0334 13.9546C19.0779 13.9876 19.1106 14.0339 19.1267 14.0869L19.6234 15.7196C19.679 15.9049 19.7822 16.0723 19.9229 16.205C20.0636 16.3378 20.2367 16.4312 20.4248 16.4759V19.1166L3.6834 19.1166Z" fill="#5E6D6D" fill-opacity="0.5"/>
</svg>
