<svg width="25" height="19" viewBox="0 0 25 19" fill="none" xmlns="http://www.w3.org/2000/svg">
<path d="M24.4023 6.42099L12.6836 0.170989C12.627 0.140795 12.5639 0.125 12.4998 0.125C12.4357 0.125 12.3726 0.140795 12.316 0.170989L0.59727 6.42099C0.53463 6.45411 0.482202 6.50368 0.445621 6.56436C0.409039 6.62504 0.389689 6.69455 0.389649 6.7654C0.389608 6.83626 0.40888 6.90579 0.445393 6.96651C0.481905 7.02724 0.534277 7.07686 0.596879 7.11005L3.90586 8.8749V13.7968H4.68711V9.29169L5.85899 9.91669V12.2897C5.18672 12.4643 4.68711 13.0706 4.68711 13.7968C4.68711 14.1538 4.81211 14.4792 5.01446 14.7429C4.79922 15.4709 4.68899 16.2259 4.68711 16.9851V18.0936C4.68711 18.2417 4.77071 18.3769 4.90313 18.4433L5.33477 18.6593C5.61758 18.8003 5.9336 18.8749 6.24961 18.8749C6.56563 18.8749 6.88164 18.8003 7.16446 18.6589L7.5961 18.4429C7.66103 18.4105 7.71565 18.3607 7.75381 18.299C7.79197 18.2373 7.81216 18.1662 7.81211 18.0936V16.9851C7.81211 16.2241 7.69805 15.4722 7.48477 14.7429C7.69569 14.4725 7.81083 14.1397 7.81211 13.7968C7.81211 13.0706 7.3125 12.4643 6.64024 12.2897V10.3335L12.3156 13.3604C12.3723 13.3904 12.4355 13.4061 12.4996 13.4061C12.5637 13.4061 12.6269 13.3904 12.6836 13.3604L20.3121 9.29169V13.6038C18.1264 15.2459 15.4675 16.1359 12.7336 16.1405H12.266C10.925 16.1405 9.59922 15.9276 8.325 15.5077L8.08086 16.2499C9.43111 16.6953 10.8438 16.9221 12.2656 16.9218H12.7332C15.7059 16.9169 18.5931 15.9262 20.9426 14.105C20.9895 14.0685 21.0275 14.0217 21.0536 13.9683C21.0798 13.9149 21.0933 13.8562 21.0934 13.7968V8.8749L24.4023 7.11005C24.4647 7.07671 24.5169 7.02705 24.5533 6.96637C24.5897 6.90569 24.6089 6.83627 24.6089 6.76552C24.6089 6.69477 24.5897 6.62535 24.5533 6.56467C24.5169 6.50399 24.4647 6.45433 24.4023 6.42099ZM7.03086 17.8522L6.81485 17.9601C6.46524 18.1347 6.0336 18.1347 5.68399 17.9601L5.46836 17.8522V16.9851C5.46836 16.3979 5.53985 15.8163 5.68086 15.2483C5.85743 15.3179 6.04844 15.3593 6.24961 15.3593C6.45079 15.3593 6.6418 15.3179 6.81836 15.2483C6.95938 15.8163 7.03086 16.3979 7.03086 16.9851V17.8522ZM7.03086 13.7968C7.03086 14.2276 6.68047 14.578 6.24961 14.578C5.81875 14.578 5.46836 14.2276 5.46836 13.7968C5.46836 13.3659 5.81875 13.0155 6.24961 13.0155C6.68047 13.0155 7.03086 13.3659 7.03086 13.7968ZM12.4996 12.5726L6.90899 9.59091L11.7484 7.01005C11.987 7.10703 12.2421 7.15665 12.4996 7.15615C13.3758 7.15615 14.0621 6.6413 14.0621 5.98427C14.0621 5.32724 13.3758 4.8124 12.4996 4.8124C11.6234 4.8124 10.9371 5.32724 10.9371 5.98427C10.9371 6.16279 10.9914 6.32919 11.0828 6.47958L6.07891 9.14833L1.61094 6.76552L12.4996 0.958099L23.3883 6.76552L12.4996 12.5726ZM11.7184 5.98427C11.7184 5.8249 12.0227 5.59365 12.4996 5.59365C12.9766 5.59365 13.2809 5.8249 13.2809 5.98427C13.2809 6.14365 12.9766 6.3749 12.4996 6.3749C12.0227 6.3749 11.7184 6.14365 11.7184 5.98427Z" fill="url(#paint0_linear_1_7896)"/>
<defs>
<linearGradient id="paint0_linear_1_7896" x1="17.225" y1="33.8054" x2="17.225" y2="-11.1597" gradientUnits="userSpaceOnUse">
<stop stop-color="#24A363"/>
<stop offset="1" stop-color="#4BDD48"/>
</linearGradient>
</defs>
</svg>
